{"glyphs":{"0":{"ha":894,"x_min":83,"x_max":811,"o":"m 500 878 q 394 838 443 878 q 307 730 344 797 q 249 581 269 663 q 228 415 228 499 q 248 241 228 321 q 310 113 268 161 q 418 64 353 64 q 523 103 478 64 q 599 210 568 143 q 647 359 631 276 q 663 528 663 442 q 640 735 663 658 q 580 844 617 811 q 500 878 543 878 m 442 928 q 515 954 481 946 q 579 963 549 963 q 708 913 657 963 q 785 781 760 864 q 811 596 811 699 q 796 420 811 510 q 748 250 781 331 q 665 106 715 169 q 546 5 615 42 q 388 -32 476 -32 q 278 -6 332 -32 q 180 76 224 21 q 110 216 136 131 q 83 418 83 301 q 124 678 83 560 q 236 877 164 796 q 406 986 308 958 q 442 928 439 986 z "},"1":{"ha":738,"x_min":56,"x_max":668,"o":"m 200 696 q 160 713 176 696 q 132 756 143 731 q 116 804 121 781 q 111 840 111 828 q 185 858 138 846 q 292 890 232 871 q 415 934 351 910 q 536 986 478 958 q 528 907 533 932 q 517 874 524 882 q 503 861 511 865 q 449 828 482 849 q 377 784 415 807 q 302 741 339 761 q 238 708 265 721 q 200 696 211 696 m 56 -29 q 58 -12 56 -28 q 70 25 61 3 q 99 69 79 47 q 154 107 119 92 q 242 122 189 122 q 346 120 292 122 q 456 118 400 118 q 565 126 511 118 q 668 153 619 133 q 635 17 663 60 q 529 -26 607 -26 q 456 -20 497 -26 q 367 -8 415 -14 q 260 -1 318 -1 q 157 -7 210 -1 q 56 -29 104 -12 m 303 60 l 386 849 l 536 986 q 528 832 536 919 q 508 645 519 744 q 483 443 496 546 q 463 242 471 340 q 454 58 454 143 l 303 60 z "},"2":{"ha":790,"x_min":-14,"x_max":707,"o":"m -14 -29 q -1 15 -14 -7 q 33 57 11 38 q 83 92 54 76 q 143 115 111 107 q 208 124 175 124 q 228 124 218 124 q 251 123 238 124 q 289 122 265 122 q 416 126 353 122 q 535 135 479 129 q 635 149 592 142 q 701 167 678 157 q 652 25 696 76 q 538 -26 608 -26 q 463 -20 510 -26 q 353 -8 415 -14 q 217 -1 292 -1 q 92 -8 151 -1 q -14 -29 33 -15 m 269 613 q 188 631 224 613 q 133 684 153 650 q 114 761 114 718 q 152 876 114 825 q 256 956 190 926 q 401 986 321 986 q 562 954 493 986 q 669 864 631 922 q 707 728 707 806 q 667 558 707 646 q 553 381 628 469 q 373 210 478 293 q 138 54 268 126 l 49 57 q 224 189 144 122 q 364 322 303 256 q 466 453 425 388 q 528 581 507 518 q 550 703 550 644 q 508 838 550 788 q 397 888 467 888 q 298 849 336 888 q 260 749 260 810 q 273 681 260 714 q 313 617 286 647 q 292 614 303 615 q 269 613 281 613 z "},"3":{"ha":764,"x_min":44,"x_max":667,"o":"m 192 183 q 230 93 192 126 q 333 60 268 60 q 460 113 411 60 q 510 247 510 167 q 481 353 510 307 q 403 429 453 400 q 289 463 354 458 l 285 493 q 324 501 300 497 q 373 506 347 504 q 419 508 399 508 q 547 478 492 508 q 635 393 603 447 q 667 268 667 339 q 624 113 667 181 q 505 5 581 44 q 332 -35 429 -35 q 183 -8 249 -35 q 81 65 118 18 q 44 174 44 113 q 65 254 44 219 q 120 309 85 289 q 200 329 156 329 q 257 319 232 329 q 209 260 226 297 q 192 183 192 224 m 249 499 q 387 549 326 513 q 481 640 447 586 q 515 754 515 693 q 481 851 515 815 q 386 886 446 886 q 297 854 331 886 q 263 767 263 822 q 275 707 263 736 q 311 650 288 678 q 286 645 299 647 q 263 643 274 643 q 166 681 203 643 q 129 779 129 718 q 163 885 129 839 q 257 959 197 932 q 392 986 317 986 q 528 956 469 986 q 621 875 588 926 q 654 756 654 824 q 606 615 654 678 q 469 510 558 551 q 256 451 381 468 l 249 499 z "},"4":{"ha":781,"x_min":25,"x_max":711,"o":"m 25 353 q 203 627 131 499 q 320 863 276 756 q 382 1054 364 971 q 421 1028 403 1044 q 451 994 439 1013 q 472 957 464 976 q 479 918 479 938 q 456 825 479 879 q 394 707 433 771 q 308 572 356 643 q 210 429 260 501 q 114 288 160 357 l 25 353 m 56 250 q 40 274 47 258 q 29 311 33 290 q 25 353 25 332 q 213 354 128 353 q 374 360 297 356 q 531 371 451 364 q 701 389 610 378 q 709 357 707 374 q 711 321 711 340 q 700 271 711 290 q 666 242 689 251 q 606 232 643 232 l 56 250 m 633 535 q 627 458 633 494 q 613 376 621 421 q 599 269 606 332 q 593 114 593 207 q 594 62 593 86 q 599 18 596 38 q 604 -14 601 -1 q 569 -19 588 -18 q 540 -21 550 -21 q 472 9 496 -21 q 447 111 447 39 q 455 194 447 146 q 472 308 463 242 q 488 461 481 374 q 496 661 496 549 q 520 663 511 663 q 535 664 529 664 q 610 633 586 664 q 633 535 633 603 z "},"5":{"ha":782,"x_min":69,"x_max":713,"o":"m 349 -35 q 203 -8 267 -35 q 105 66 140 18 q 69 176 69 114 q 89 260 69 224 q 141 318 108 297 q 217 339 174 339 q 249 338 233 339 q 271 335 264 338 q 217 201 217 275 q 253 101 217 138 q 354 64 290 64 q 494 124 440 64 q 547 276 547 183 q 515 406 547 351 q 422 490 482 460 q 279 519 361 519 q 213 515 247 519 q 138 501 178 511 l 218 961 l 282 935 l 313 897 l 264 594 q 307 599 283 597 q 353 601 331 601 q 537 564 458 601 q 660 459 615 526 q 704 301 704 392 q 658 130 704 206 q 531 10 611 54 q 349 -35 450 -35 m 700 983 q 709 952 706 974 q 713 908 713 931 q 693 840 713 861 q 633 818 674 818 q 570 823 615 818 q 467 835 525 828 q 353 852 410 843 q 254 869 296 861 q 188 903 210 879 q 161 972 167 926 q 241 965 196 967 q 343 963 286 963 q 460 965 397 963 q 586 973 524 968 q 700 983 649 978 z "},"6":{"ha":828,"x_min":69,"x_max":731,"o":"m 174 464 q 306 524 235 503 q 440 544 376 544 q 588 512 525 544 q 685 419 650 479 q 721 281 721 360 q 695 156 721 214 q 624 56 669 99 q 517 -10 578 14 q 386 -35 457 -35 q 217 14 288 -35 q 108 155 146 63 q 69 376 69 247 q 101 618 69 507 q 189 812 132 729 q 322 940 246 894 q 489 986 399 986 q 613 960 558 986 q 699 890 667 935 q 731 790 731 846 q 715 725 731 753 q 670 682 699 697 q 604 667 642 667 q 546 681 572 667 q 578 724 567 694 q 590 783 590 753 q 561 863 590 833 q 483 893 532 893 q 379 851 428 893 q 294 733 331 808 q 236 560 257 658 q 215 349 215 461 q 260 138 215 213 q 385 64 304 64 q 481 90 439 64 q 546 163 522 117 q 569 271 569 210 q 521 402 569 354 q 389 450 472 450 q 290 435 346 450 q 188 397 235 421 l 174 464 z "},"7":{"ha":689,"x_min":63,"x_max":703,"o":"m 75 983 q 186 974 124 978 q 315 967 249 969 q 439 964 382 964 q 544 966 496 964 q 628 972 592 968 l 571 874 q 378 844 467 857 q 230 825 290 832 q 146 818 169 818 q 83 841 103 818 q 63 911 63 864 q 66 951 63 931 q 75 983 69 971 m 635 1126 q 684 1065 665 1100 q 703 1000 703 1031 q 675 890 703 960 q 603 733 647 821 q 506 544 558 644 q 406 340 454 444 q 322 137 357 236 q 274 -49 286 38 q 181 -4 218 -37 q 143 71 143 29 q 175 190 143 115 q 259 359 207 265 q 371 557 311 453 q 486 764 431 661 q 582 960 542 867 q 635 1126 622 1054 z "},"8":{"ha":801,"x_min":69,"x_max":732,"o":"m 367 486 l 390 440 q 260 317 301 375 q 218 197 218 258 q 259 91 218 132 q 367 50 300 50 q 459 72 417 50 q 527 128 501 93 q 553 204 553 164 q 524 287 553 249 q 449 361 494 325 q 353 435 404 397 q 256 517 301 474 q 182 614 211 561 q 153 733 153 667 q 193 865 153 808 q 306 954 233 922 q 474 986 378 986 q 664 932 596 986 q 732 779 732 878 q 665 603 732 683 q 488 485 599 522 l 435 524 q 600 765 600 639 q 564 864 600 828 q 467 900 528 900 q 353 858 399 900 q 307 751 307 817 q 336 658 307 700 q 411 578 365 617 q 508 503 457 540 q 604 423 558 465 q 679 331 650 381 q 708 218 708 281 q 666 86 708 143 q 549 -3 624 29 q 374 -35 474 -35 q 215 -6 283 -35 q 108 76 146 24 q 69 197 69 129 q 106 317 69 261 q 210 418 143 374 q 367 486 276 463 z "},"9":{"ha":832,"x_min":103,"x_max":764,"o":"m 660 488 q 533 428 603 449 q 393 407 463 407 q 247 440 310 407 q 148 533 183 474 q 113 671 113 592 q 157 831 113 760 q 276 944 201 901 q 444 986 351 986 q 617 932 546 986 q 726 775 689 878 q 764 525 764 672 q 736 294 764 397 q 656 117 708 190 q 529 4 603 43 q 364 -35 456 -35 q 230 -9 289 -35 q 137 60 171 17 q 103 160 103 104 q 119 225 103 197 q 163 269 135 253 q 229 285 192 285 q 288 271 264 285 q 256 230 268 258 q 243 168 243 201 q 276 88 243 118 q 365 58 310 58 q 500 117 443 58 q 588 286 557 176 q 618 544 618 396 q 443 888 618 888 q 351 860 392 888 q 288 788 311 833 q 264 682 264 742 q 313 550 264 599 q 444 501 361 501 q 544 516 489 501 q 646 554 599 531 l 660 488 z "},"A":{"ha":896,"x_min":-7,"x_max":861,"o":"m 489 982 q 422 820 461 913 q 338 621 382 728 q 249 400 293 514 q 168 173 206 286 q 106 -46 131 60 q 36 -8 61 -26 q 2 27 11 10 q -7 61 -7 44 q 17 138 -7 79 q 79 282 40 196 q 166 472 118 368 q 263 683 214 575 q 356 894 313 792 q 428 1078 399 996 l 489 982 m 657 89 q 633 178 647 118 q 603 320 619 239 q 567 492 586 401 q 526 674 547 583 q 484 845 506 765 q 442 983 463 925 q 402 1058 424 1032 q 365 1101 381 1083 q 408 1114 388 1110 q 447 1118 429 1118 q 530 1088 497 1118 q 585 1002 563 1058 q 627 866 608 946 q 667 685 646 786 q 722 422 696 550 q 781 189 747 294 q 861 17 814 83 q 803 -11 833 0 q 751 -22 772 -22 q 690 6 708 -22 q 657 89 672 35 m 232 425 l 606 425 q 579 366 601 386 q 527 339 557 346 q 468 331 497 332 l 201 321 l 232 425 z "},"Á":{"ha":896,"x_min":-7,"x_max":861,"o":"m 489 982 q 422 820 461 913 q 338 621 382 728 q 249 400 293 514 q 168 173 206 286 q 106 -46 131 60 q 36 -8 61 -26 q 2 27 11 10 q -7 61 -7 44 q 17 138 -7 79 q 79 282 40 196 q 166 472 118 368 q 263 683 214 575 q 356 894 313 792 q 428 1078 399 996 l 489 982 m 657 89 q 633 178 647 118 q 603 320 619 239 q 567 492 586 401 q 526 674 547 583 q 484 845 506 765 q 442 983 463 925 q 402 1058 424 1032 q 365 1101 381 1083 q 408 1114 388 1110 q 447 1118 429 1118 q 530 1088 497 1118 q 585 1002 563 1058 q 627 866 608 946 q 667 685 646 786 q 722 422 696 550 q 781 189 747 294 q 861 17 814 83 q 803 -11 833 0 q 751 -22 772 -22 q 690 6 708 -22 q 657 89 672 35 m 232 425 l 606 425 q 579 366 601 386 q 527 339 557 346 q 468 331 497 332 l 201 321 l 232 425 m 349 1250 q 413 1356 371 1299 q 509 1460 456 1413 q 614 1528 563 1507 q 639 1508 624 1522 q 667 1472 654 1494 q 681 1414 679 1450 q 567 1360 622 1396 q 467 1282 511 1324 q 393 1204 422 1240 q 364 1222 376 1208 q 349 1250 351 1235 z "},"Ă":{"ha":896,"x_min":-7,"x_max":861,"o":"m 489 982 q 422 820 461 913 q 338 621 382 728 q 249 400 293 514 q 168 173 206 286 q 106 -46 131 60 q 36 -8 61 -26 q 2 27 11 10 q -7 61 -7 44 q 17 138 -7 79 q 79 282 40 196 q 166 472 118 368 q 263 683 214 575 q 356 894 313 792 q 428 1078 399 996 l 489 982 m 657 89 q 633 178 647 118 q 603 320 619 239 q 567 492 586 401 q 526 674 547 583 q 484 845 506 765 q 442 983 463 925 q 402 1058 424 1032 q 365 1101 381 1083 q 408 1114 388 1110 q 447 1118 429 1118 q 530 1088 497 1118 q 585 1002 563 1058 q 627 866 608 946 q 667 685 646 786 q 722 422 696 550 q 781 189 747 294 q 861 17 814 83 q 803 -11 833 0 q 751 -22 772 -22 q 690 6 708 -22 q 657 89 672 35 m 232 425 l 606 425 q 579 366 601 386 q 527 339 557 346 q 468 331 497 332 l 201 321 l 232 425 m 326 1439 q 347 1453 336 1447 q 368 1458 357 1458 q 399 1440 389 1458 q 429 1369 406 1396 q 490 1343 453 1343 q 551 1360 521 1343 q 603 1407 582 1376 q 628 1479 625 1438 q 665 1465 647 1479 q 692 1431 682 1451 q 703 1388 703 1410 q 659 1303 689 1336 q 590 1255 629 1271 q 504 1239 550 1239 q 419 1258 460 1239 q 352 1320 378 1276 q 326 1439 326 1364 z "},"Ắ":{"ha":896,"x_min":-7,"x_max":861,"o":"m 489 982 q 422 820 461 913 q 338 621 382 728 q 249 400 293 514 q 168 173 206 286 q 106 -46 131 60 q 36 -8 61 -26 q 2 27 11 10 q -7 61 -7 44 q 17 138 -7 79 q 79 282 40 196 q 166 472 118 368 q 263 683 214 575 q 356 894 313 792 q 428 1078 399 996 l 489 982 m 657 89 q 633 178 647 118 q 603 320 619 239 q 567 492 586 401 q 526 674 547 583 q 484 845 506 765 q 442 983 463 925 q 402 1058 424 1032 q 365 1101 381 1083 q 408 1114 388 1110 q 447 1118 429 1118 q 530 1088 497 1118 q 585 1002 563 1058 q 627 866 608 946 q 667 685 646 786 q 722 422 696 550 q 781 189 747 294 q 861 17 814 83 q 803 -11 833 0 q 751 -22 772 -22 q 690 6 708 -22 q 657 89 672 35 m 232 425 l 606 425 q 579 366 601 386 q 527 339 557 346 q 468 331 497 332 l 201 321 l 232 425 m 326 1439 q 347 1453 336 1447 q 368 1458 357 1458 q 399 1440 389 1458 q 429 1369 406 1396 q 490 1343 453 1343 q 551 1360 521 1343 q 603 1407 582 1376 q 628 1479 625 1438 q 665 1465 647 1479 q 692 1431 682 1451 q 703 1388 703 1410 q 659 1303 689 1336 q 590 1255 629 1271 q 504 1239 550 1239 q 419 1258 460 1239 q 352 1320 378 1276 q 326 1439 326 1364 m 349 1553 q 413 1658 371 1601 q 509 1763 456 1715 q 614 1831 563 1810 q 639 1811 624 1825 q 667 1775 654 1797 q 681 1717 679 1753 q 567 1663 622 1699 q 467 1585 511 1626 q 393 1507 422 1543 q 364 1524 376 1511 q 349 1553 351 1538 z "},"Ặ":{"ha":896,"x_min":-7,"x_max":861,"o":"m 489 982 q 422 820 461 913 q 338 621 382 728 q 249 400 293 514 q 168 173 206 286 q 106 -46 131 60 q 36 -8 61 -26 q 2 27 11 10 q -7 61 -7 44 q 17 138 -7 79 q 79 282 40 196 q 166 472 118 368 q 263 683 214 575 q 356 894 313 792 q 428 1078 399 996 l 489 982 m 657 89 q 633 178 647 118 q 603 320 619 239 q 567 492 586 401 q 526 674 547 583 q 484 845 506 765 q 442 983 463 925 q 402 1058 424 1032 q 365 1101 381 1083 q 408 1114 388 1110 q 447 1118 429 1118 q 530 1088 497 1118 q 585 1002 563 1058 q 627 866 608 946 q 667 685 646 786 q 722 422 696 550 q 781 189 747 294 q 861 17 814 83 q 803 -11 833 0 q 751 -22 772 -22 q 690 6 708 -22 q 657 89 672 35 m 232 425 l 606 425 q 579 366 601 386 q 527 339 557 346 q 468 331 497 332 l 201 321 l 232 425 m 326 1439 q 347 1453 336 1447 q 368 1458 357 1458 q 399 1440 389 1458 q 429 1369 406 1396 q 490 1343 453 1343 q 551 1360 521 1343 q 603 1407 582 1376 q 628 1479 625 1438 q 665 1465 647 1479 q 692 1431 682 1451 q 703 1388 703 1410 q 659 1303 689 1336 q 590 1255 629 1271 q 504 1239 550 1239 q 419 1258 460 1239 q 352 1320 378 1276 q 326 1439 326 1364 m 479 -274 q 443 -283 463 -279 q 404 -287 424 -287 q 365 -281 385 -287 q 333 -259 346 -275 q 319 -217 319 -243 q 328 -171 319 -193 q 344 -125 336 -149 q 381 -115 361 -118 q 419 -111 401 -111 q 458 -117 439 -111 q 491 -139 478 -124 q 504 -182 504 -154 q 496 -227 504 -204 q 479 -274 488 -250 z "},"Ằ":{"ha":896,"x_min":-7,"x_max":861,"o":"m 489 982 q 422 820 461 913 q 338 621 382 728 q 249 400 293 514 q 168 173 206 286 q 106 -46 131 60 q 36 -8 61 -26 q 2 27 11 10 q -7 61 -7 44 q 17 138 -7 79 q 79 282 40 196 q 166 472 118 368 q 263 683 214 575 q 356 894 313 792 q 428 1078 399 996 l 489 982 m 657 89 q 633 178 647 118 q 603 320 619 239 q 567 492 586 401 q 526 674 547 583 q 484 845 506 765 q 442 983 463 925 q 402 1058 424 1032 q 365 1101 381 1083 q 408 1114 388 1110 q 447 1118 429 1118 q 530 1088 497 1118 q 585 1002 563 1058 q 627 866 608 946 q 667 685 646 786 q 722 422 696 550 q 781 189 747 294 q 861 17 814 83 q 803 -11 833 0 q 751 -22 772 -22 q 690 6 708 -22 q 657 89 672 35 m 232 425 l 606 425 q 579 366 601 386 q 527 339 557 346 q 468 331 497 332 l 201 321 l 232 425 m 326 1439 q 347 1453 336 1447 q 368 1458 357 1458 q 399 1440 389 1458 q 429 1369 406 1396 q 490 1343 453 1343 q 551 1360 521 1343 q 603 1407 582 1376 q 628 1479 625 1438 q 665 1465 647 1479 q 692 1431 682 1451 q 703 1388 703 1410 q 659 1303 689 1336 q 590 1255 629 1271 q 504 1239 550 1239 q 419 1258 460 1239 q 352 1320 378 1276 q 326 1439 326 1364 m 681 1553 q 666 1524 679 1538 q 636 1507 653 1511 q 563 1585 608 1543 q 463 1663 518 1626 q 349 1717 408 1699 q 363 1775 350 1753 q 390 1811 375 1797 q 415 1831 406 1825 q 521 1763 468 1810 q 617 1658 574 1715 q 681 1553 660 1601 z "},"Ẳ":{"ha":896,"x_min":-7,"x_max":861,"o":"m 489 982 q 422 820 461 913 q 338 621 382 728 q 249 400 293 514 q 168 173 206 286 q 106 -46 131 60 q 36 -8 61 -26 q 2 27 11 10 q -7 61 -7 44 q 17 138 -7 79 q 79 282 40 196 q 166 472 118 368 q 263 683 214 575 q 356 894 313 792 q 428 1078 399 996 l 489 982 m 657 89 q 633 178 647 118 q 603 320 619 239 q 567 492 586 401 q 526 674 547 583 q 484 845 506 765 q 442 983 463 925 q 402 1058 424 1032 q 365 1101 381 1083 q 408 1114 388 1110 q 447 1118 429 1118 q 530 1088 497 1118 q 585 1002 563 1058 q 627 866 608 946 q 667 685 646 786 q 722 422 696 550 q 781 189 747 294 q 861 17 814 83 q 803 -11 833 0 q 751 -22 772 -22 q 690 6 708 -22 q 657 89 672 35 m 232 425 l 606 425 q 579 366 601 386 q 527 339 557 346 q 468 331 497 332 l 201 321 l 232 425 m 326 1439 q 347 1453 336 1447 q 368 1458 357 1458 q 399 1440 389 1458 q 429 1369 406 1396 q 490 1343 453 1343 q 551 1360 521 1343 q 603 1407 582 1376 q 628 1479 625 1438 q 665 1465 647 1479 q 692 1431 682 1451 q 703 1388 703 1410 q 659 1303 689 1336 q 590 1255 629 1271 q 504 1239 550 1239 q 419 1258 460 1239 q 352 1320 378 1276 q 326 1439 326 1364 m 449 1558 q 527 1638 499 1594 q 556 1724 556 1682 q 533 1785 556 1761 q 474 1810 510 1810 q 417 1799 446 1810 q 360 1767 388 1788 q 338 1792 346 1778 q 329 1819 329 1806 q 412 1878 367 1857 q 501 1899 457 1899 q 589 1879 551 1899 q 648 1825 626 1860 q 669 1746 669 1790 q 621 1608 669 1671 q 485 1504 572 1544 l 449 1558 z "},"Ẵ":{"ha":896,"x_min":-7,"x_max":861,"o":"m 489 982 q 422 820 461 913 q 338 621 382 728 q 249 400 293 514 q 168 173 206 286 q 106 -46 131 60 q 36 -8 61 -26 q 2 27 11 10 q -7 61 -7 44 q 17 138 -7 79 q 79 282 40 196 q 166 472 118 368 q 263 683 214 575 q 356 894 313 792 q 428 1078 399 996 l 489 982 m 657 89 q 633 178 647 118 q 603 320 619 239 q 567 492 586 401 q 526 674 547 583 q 484 845 506 765 q 442 983 463 925 q 402 1058 424 1032 q 365 1101 381 1083 q 408 1114 388 1110 q 447 1118 429 1118 q 530 1088 497 1118 q 585 1002 563 1058 q 627 866 608 946 q 667 685 646 786 q 722 422 696 550 q 781 189 747 294 q 861 17 814 83 q 803 -11 833 0 q 751 -22 772 -22 q 690 6 708 -22 q 657 89 672 35 m 232 425 l 606 425 q 579 366 601 386 q 527 339 557 346 q 468 331 497 332 l 201 321 l 232 425 m 326 1439 q 347 1453 336 1447 q 368 1458 357 1458 q 399 1440 389 1458 q 429 1369 406 1396 q 490 1343 453 1343 q 551 1360 521 1343 q 603 1407 582 1376 q 628 1479 625 1438 q 665 1465 647 1479 q 692 1431 682 1451 q 703 1388 703 1410 q 659 1303 689 1336 q 590 1255 629 1271 q 504 1239 550 1239 q 419 1258 460 1239 q 352 1320 378 1276 q 326 1439 326 1364 m 331 1594 q 305 1601 317 1594 q 294 1618 293 1607 q 324 1703 304 1672 q 370 1747 344 1735 q 422 1760 396 1760 q 489 1750 457 1760 q 550 1730 521 1740 q 604 1719 579 1719 q 663 1734 639 1719 q 699 1767 686 1749 q 722 1760 713 1767 q 735 1743 732 1754 q 707 1658 728 1689 q 660 1614 686 1626 q 607 1601 633 1601 q 541 1612 574 1601 q 480 1632 508 1622 q 425 1642 451 1642 q 367 1627 390 1642 q 331 1594 343 1613 z "},"Ǎ":{"ha":896,"x_min":-7,"x_max":861,"o":"m 489 982 q 422 820 461 913 q 338 621 382 728 q 249 400 293 514 q 168 173 206 286 q 106 -46 131 60 q 36 -8 61 -26 q 2 27 11 10 q -7 61 -7 44 q 17 138 -7 79 q 79 282 40 196 q 166 472 118 368 q 263 683 214 575 q 356 894 313 792 q 428 1078 399 996 l 489 982 m 657 89 q 633 178 647 118 q 603 320 619 239 q 567 492 586 401 q 526 674 547 583 q 484 845 506 765 q 442 983 463 925 q 402 1058 424 1032 q 365 1101 381 1083 q 408 1114 388 1110 q 447 1118 429 1118 q 530 1088 497 1118 q 585 1002 563 1058 q 627 866 608 946 q 667 685 646 786 q 722 422 696 550 q 781 189 747 294 q 861 17 814 83 q 803 -11 833 0 q 751 -22 772 -22 q 690 6 708 -22 q 657 89 672 35 m 232 425 l 606 425 q 579 366 601 386 q 527 339 557 346 q 468 331 497 332 l 201 321 l 232 425 m 676 1528 q 701 1509 686 1522 q 728 1473 715 1496 q 742 1414 740 1450 q 599 1310 661 1363 q 493 1204 538 1257 q 449 1226 464 1210 q 423 1269 433 1243 q 399 1331 413 1296 q 360 1406 385 1365 q 289 1490 335 1446 q 319 1501 303 1497 q 361 1506 335 1506 q 428 1485 403 1506 q 472 1408 454 1464 q 504 1250 489 1353 l 475 1296 q 523 1372 497 1336 q 585 1446 549 1408 q 676 1528 622 1483 z "},"Â":{"ha":896,"x_min":-7,"x_max":861,"o":"m 489 982 q 422 820 461 913 q 338 621 382 728 q 249 400 293 514 q 168 173 206 286 q 106 -46 131 60 q 36 -8 61 -26 q 2 27 11 10 q -7 61 -7 44 q 17 138 -7 79 q 79 282 40 196 q 166 472 118 368 q 263 683 214 575 q 356 894 313 792 q 428 1078 399 996 l 489 982 m 657 89 q 633 178 647 118 q 603 320 619 239 q 567 492 586 401 q 526 674 547 583 q 484 845 506 765 q 442 983 463 925 q 402 1058 424 1032 q 365 1101 381 1083 q 408 1114 388 1110 q 447 1118 429 1118 q 530 1088 497 1118 q 585 1002 563 1058 q 627 866 608 946 q 667 685 646 786 q 722 422 696 550 q 781 189 747 294 q 861 17 814 83 q 803 -11 833 0 q 751 -22 772 -22 q 690 6 708 -22 q 657 89 672 35 m 232 425 l 606 425 q 579 366 601 386 q 527 339 557 346 q 468 331 497 332 l 201 321 l 232 425 m 349 1204 q 325 1224 340 1211 q 297 1260 310 1238 q 283 1318 285 1283 q 426 1423 364 1369 q 532 1528 489 1476 q 576 1506 561 1522 q 602 1463 592 1489 q 626 1401 613 1436 q 665 1326 640 1367 q 736 1242 690 1286 q 706 1231 722 1236 q 664 1226 690 1226 q 597 1247 622 1226 q 554 1324 571 1268 q 521 1482 538 1379 l 550 1436 q 502 1360 528 1396 q 440 1286 476 1324 q 349 1204 404 1249 z "},"Ấ":{"ha":896,"x_min":-7,"x_max":861,"o":"m 489 982 q 422 820 461 913 q 338 621 382 728 q 249 400 293 514 q 168 173 206 286 q 106 -46 131 60 q 36 -8 61 -26 q 2 27 11 10 q -7 61 -7 44 q 17 138 -7 79 q 79 282 40 196 q 166 472 118 368 q 263 683 214 575 q 356 894 313 792 q 428 1078 399 996 l 489 982 m 657 89 q 633 178 647 118 q 603 320 619 239 q 567 492 586 401 q 526 674 547 583 q 484 845 506 765 q 442 983 463 925 q 402 1058 424 1032 q 365 1101 381 1083 q 408 1114 388 1110 q 447 1118 429 1118 q 530 1088 497 1118 q 585 1002 563 1058 q 627 866 608 946 q 667 685 646 786 q 722 422 696 550 q 781 189 747 294 q 861 17 814 83 q 803 -11 833 0 q 751 -22 772 -22 q 690 6 708 -22 q 657 89 672 35 m 232 425 l 606 425 q 579 366 601 386 q 527 339 557 346 q 468 331 497 332 l 201 321 l 232 425 m 349 1204 q 325 1224 340 1211 q 297 1260 310 1238 q 283 1318 285 1283 q 426 1423 364 1369 q 532 1528 489 1476 q 576 1506 561 1522 q 602 1463 592 1489 q 626 1401 613 1436 q 665 1326 640 1367 q 736 1242 690 1286 q 706 1231 722 1236 q 664 1226 690 1226 q 597 1247 622 1226 q 554 1324 571 1268 q 521 1482 538 1379 l 550 1436 q 502 1360 528 1396 q 440 1286 476 1324 q 349 1204 404 1249 m 349 1603 q 413 1708 371 1651 q 509 1813 456 1765 q 614 1881 563 1860 q 639 1861 624 1875 q 667 1825 654 1847 q 681 1767 679 1803 q 567 1713 622 1749 q 467 1635 511 1676 q 393 1557 422 1593 q 364 1574 376 1561 q 349 1603 351 1588 z "},"Ậ":{"ha":896,"x_min":-7,"x_max":861,"o":"m 489 982 q 422 820 461 913 q 338 621 382 728 q 249 400 293 514 q 168 173 206 286 q 106 -46 131 60 q 36 -8 61 -26 q 2 27 11 10 q -7 61 -7 44 q 17 138 -7 79 q 79 282 40 196 q 166 472 118 368 q 263 683 214 575 q 356 894 313 792 q 428 1078 399 996 l 489 982 m 657 89 q 633 178 647 118 q 603 320 619 239 q 567 492 586 401 q 526 674 547 583 q 484 845 506 765 q 442 983 463 925 q 402 1058 424 1032 q 365 1101 381 1083 q 408 1114 388 1110 q 447 1118 429 1118 q 530 1088 497 1118 q 585 1002 563 1058 q 627 866 608 946 q 667 685 646 786 q 722 422 696 550 q 781 189 747 294 q 861 17 814 83 q 803 -11 833 0 q 751 -22 772 -22 q 690 6 708 -22 q 657 89 672 35 m 232 425 l 606 425 q 579 366 601 386 q 527 339 557 346 q 468 331 497 332 l 201 321 l 232 425 m 349 1204 q 325 1224 340 1211 q 297 1260 310 1238 q 283 1318 285 1283 q 426 1423 364 1369 q 532 1528 489 1476 q 576 1506 561 1522 q 602 1463 592 1489 q 626 1401 613 1436 q 665 1326 640 1367 q 736 1242 690 1286 q 706 1231 722 1236 q 664 1226 690 1226 q 597 1247 622 1226 q 554 1324 571 1268 q 521 1482 538 1379 l 550 1436 q 502 1360 528 1396 q 440 1286 476 1324 q 349 1204 404 1249 m 479 -274 q 443 -283 463 -279 q 404 -287 424 -287 q 365 -281 385 -287 q 333 -259 346 -275 q 319 -217 319 -243 q 328 -171 319 -193 q 344 -125 336 -149 q 381 -115 361 -118 q 419 -111 401 -111 q 458 -117 439 -111 q 491 -139 478 -124 q 504 -182 504 -154 q 496 -227 504 -204 q 479 -274 488 -250 z "},"Ầ":{"ha":896,"x_min":-7,"x_max":861,"o":"m 489 982 q 422 820 461 913 q 338 621 382 728 q 249 400 293 514 q 168 173 206 286 q 106 -46 131 60 q 36 -8 61 -26 q 2 27 11 10 q -7 61 -7 44 q 17 138 -7 79 q 79 282 40 196 q 166 472 118 368 q 263 683 214 575 q 356 894 313 792 q 428 1078 399 996 l 489 982 m 657 89 q 633 178 647 118 q 603 320 619 239 q 567 492 586 401 q 526 674 547 583 q 484 845 506 765 q 442 983 463 925 q 402 1058 424 1032 q 365 1101 381 1083 q 408 1114 388 1110 q 447 1118 429 1118 q 530 1088 497 1118 q 585 1002 563 1058 q 627 866 608 946 q 667 685 646 786 q 722 422 696 550 q 781 189 747 294 q 861 17 814 83 q 803 -11 833 0 q 751 -22 772 -22 q 690 6 708 -22 q 657 89 672 35 m 232 425 l 606 425 q 579 366 601 386 q 527 339 557 346 q 468 331 497 332 l 201 321 l 232 425 m 349 1204 q 325 1224 340 1211 q 297 1260 310 1238 q 283 1318 285 1283 q 426 1423 364 1369 q 532 1528 489 1476 q 576 1506 561 1522 q 602 1463 592 1489 q 626 1401 613 1436 q 665 1326 640 1367 q 736 1242 690 1286 q 706 1231 722 1236 q 664 1226 690 1226 q 597 1247 622 1226 q 554 1324 571 1268 q 521 1482 538 1379 l 550 1436 q 502 1360 528 1396 q 440 1286 476 1324 q 349 1204 404 1249 m 681 1603 q 666 1574 679 1588 q 636 1557 653 1561 q 563 1635 608 1593 q 463 1713 518 1676 q 349 1767 408 1749 q 363 1825 350 1803 q 390 1861 375 1847 q 415 1881 406 1875 q 521 1813 468 1860 q 617 1708 574 1765 q 681 1603 660 1651 z "},"Ẩ":{"ha":896,"x_min":-7,"x_max":861,"o":"m 489 982 q 422 820 461 913 q 338 621 382 728 q 249 400 293 514 q 168 173 206 286 q 106 -46 131 60 q 36 -8 61 -26 q 2 27 11 10 q -7 61 -7 44 q 17 138 -7 79 q 79 282 40 196 q 166 472 118 368 q 263 683 214 575 q 356 894 313 792 q 428 1078 399 996 l 489 982 m 657 89 q 633 178 647 118 q 603 320 619 239 q 567 492 586 401 q 526 674 547 583 q 484 845 506 765 q 442 983 463 925 q 402 1058 424 1032 q 365 1101 381 1083 q 408 1114 388 1110 q 447 1118 429 1118 q 530 1088 497 1118 q 585 1002 563 1058 q 627 866 608 946 q 667 685 646 786 q 722 422 696 550 q 781 189 747 294 q 861 17 814 83 q 803 -11 833 0 q 751 -22 772 -22 q 690 6 708 -22 q 657 89 672 35 m 232 425 l 606 425 q 579 366 601 386 q 527 339 557 346 q 468 331 497 332 l 201 321 l 232 425 m 349 1204 q 325 1224 340 1211 q 297 1260 310 1238 q 283 1318 285 1283 q 426 1423 364 1369 q 532 1528 489 1476 q 576 1506 561 1522 q 602 1463 592 1489 q 626 1401 613 1436 q 665 1326 640 1367 q 736 1242 690 1286 q 706 1231 722 1236 q 664 1226 690 1226 q 597 1247 622 1226 q 554 1324 571 1268 q 521 1482 538 1379 l 550 1436 q 502 1360 528 1396 q 440 1286 476 1324 q 349 1204 404 1249 m 449 1608 q 527 1688 499 1644 q 556 1774 556 1732 q 533 1835 556 1811 q 474 1860 510 1860 q 417 1849 446 1860 q 360 1817 388 1838 q 338 1842 346 1828 q 329 1869 329 1856 q 412 1928 367 1907 q 501 1949 457 1949 q 589 1929 551 1949 q 648 1875 626 1910 q 669 1796 669 1840 q 621 1658 669 1721 q 485 1554 572 1594 l 449 1608 z "},"Ẫ":{"ha":896,"x_min":-7,"x_max":861,"o":"m 489 982 q 422 820 461 913 q 338 621 382 728 q 249 400 293 514 q 168 173 206 286 q 106 -46 131 60 q 36 -8 61 -26 q 2 27 11 10 q -7 61 -7 44 q 17 138 -7 79 q 79 282 40 196 q 166 472 118 368 q 263 683 214 575 q 356 894 313 792 q 428 1078 399 996 l 489 982 m 657 89 q 633 178 647 118 q 603 320 619 239 q 567 492 586 401 q 526 674 547 583 q 484 845 506 765 q 442 983 463 925 q 402 1058 424 1032 q 365 1101 381 1083 q 408 1114 388 1110 q 447 1118 429 1118 q 530 1088 497 1118 q 585 1002 563 1058 q 627 866 608 946 q 667 685 646 786 q 722 422 696 550 q 781 189 747 294 q 861 17 814 83 q 803 -11 833 0 q 751 -22 772 -22 q 690 6 708 -22 q 657 89 672 35 m 232 425 l 606 425 q 579 366 601 386 q 527 339 557 346 q 468 331 497 332 l 201 321 l 232 425 m 349 1204 q 325 1224 340 1211 q 297 1260 310 1238 q 283 1318 285 1283 q 426 1423 364 1369 q 532 1528 489 1476 q 576 1506 561 1522 q 602 1463 592 1489 q 626 1401 613 1436 q 665 1326 640 1367 q 736 1242 690 1286 q 706 1231 722 1236 q 664 1226 690 1226 q 597 1247 622 1226 q 554 1324 571 1268 q 521 1482 538 1379 l 550 1436 q 502 1360 528 1396 q 440 1286 476 1324 q 349 1204 404 1249 m 331 1644 q 305 1651 317 1644 q 294 1668 293 1657 q 324 1753 304 1722 q 370 1797 344 1785 q 422 1810 396 1810 q 489 1800 457 1810 q 550 1780 521 1790 q 604 1769 579 1769 q 663 1784 639 1769 q 699 1817 686 1799 q 722 1810 713 1817 q 735 1793 732 1804 q 707 1708 728 1739 q 660 1664 686 1676 q 607 1651 633 1651 q 541 1662 574 1651 q 480 1682 508 1672 q 425 1692 451 1692 q 367 1677 390 1692 q 331 1644 343 1663 z "},"Ȁ":{"ha":896,"x_min":-7,"x_max":861,"o":"m 489 982 q 422 820 461 913 q 338 621 382 728 q 249 400 293 514 q 168 173 206 286 q 106 -46 131 60 q 36 -8 61 -26 q 2 27 11 10 q -7 61 -7 44 q 17 138 -7 79 q 79 282 40 196 q 166 472 118 368 q 263 683 214 575 q 356 894 313 792 q 428 1078 399 996 l 489 982 m 657 89 q 633 178 647 118 q 603 320 619 239 q 567 492 586 401 q 526 674 547 583 q 484 845 506 765 q 442 983 463 925 q 402 1058 424 1032 q 365 1101 381 1083 q 408 1114 388 1110 q 447 1118 429 1118 q 530 1088 497 1118 q 585 1002 563 1058 q 627 866 608 946 q 667 685 646 786 q 722 422 696 550 q 781 189 747 294 q 861 17 814 83 q 803 -11 833 0 q 751 -22 772 -22 q 690 6 708 -22 q 657 89 672 35 m 232 425 l 606 425 q 579 366 601 386 q 527 339 557 346 q 468 331 497 332 l 201 321 l 232 425 m 785 1250 q 770 1221 783 1235 q 742 1204 757 1207 q 680 1282 718 1240 q 595 1360 642 1324 q 499 1414 549 1396 q 513 1472 500 1449 q 540 1508 525 1494 q 564 1528 554 1522 q 652 1459 608 1507 q 731 1355 696 1411 q 785 1250 767 1299 m 531 1250 q 515 1222 529 1235 q 486 1204 501 1208 q 424 1283 463 1240 q 340 1361 386 1325 q 244 1414 294 1397 q 258 1473 246 1450 q 286 1509 271 1496 q 310 1528 301 1522 q 396 1460 353 1507 q 475 1358 439 1414 q 531 1250 511 1301 z "},"Ä":{"ha":896,"x_min":-7,"x_max":861,"o":"m 489 982 q 422 820 461 913 q 338 621 382 728 q 249 400 293 514 q 168 173 206 286 q 106 -46 131 60 q 36 -8 61 -26 q 2 27 11 10 q -7 61 -7 44 q 17 138 -7 79 q 79 282 40 196 q 166 472 118 368 q 263 683 214 575 q 356 894 313 792 q 428 1078 399 996 l 489 982 m 657 89 q 633 178 647 118 q 603 320 619 239 q 567 492 586 401 q 526 674 547 583 q 484 845 506 765 q 442 983 463 925 q 402 1058 424 1032 q 365 1101 381 1083 q 408 1114 388 1110 q 447 1118 429 1118 q 530 1088 497 1118 q 585 1002 563 1058 q 627 866 608 946 q 667 685 646 786 q 722 422 696 550 q 781 189 747 294 q 861 17 814 83 q 803 -11 833 0 q 751 -22 772 -22 q 690 6 708 -22 q 657 89 672 35 m 232 425 l 606 425 q 579 366 601 386 q 527 339 557 346 q 468 331 497 332 l 201 321 l 232 425 m 442 1272 q 406 1263 425 1267 q 369 1260 388 1260 q 333 1266 351 1260 q 301 1287 314 1272 q 289 1326 289 1301 q 297 1370 289 1349 q 313 1414 304 1392 q 348 1424 329 1419 q 385 1428 367 1428 q 422 1422 403 1428 q 453 1401 440 1415 q 465 1360 465 1386 q 457 1317 465 1338 q 442 1272 449 1296 m 706 1272 q 670 1263 689 1267 q 633 1260 651 1260 q 597 1266 615 1260 q 565 1287 578 1272 q 553 1326 553 1301 q 560 1370 553 1349 q 576 1414 568 1392 q 612 1424 593 1419 q 649 1428 631 1428 q 685 1422 667 1428 q 717 1401 704 1415 q 729 1360 729 1386 q 721 1317 729 1338 q 706 1272 713 1296 z "},"Ạ":{"ha":896,"x_min":-7,"x_max":861,"o":"m 489 982 q 422 820 461 913 q 338 621 382 728 q 249 400 293 514 q 168 173 206 286 q 106 -46 131 60 q 36 -8 61 -26 q 2 27 11 10 q -7 61 -7 44 q 17 138 -7 79 q 79 282 40 196 q 166 472 118 368 q 263 683 214 575 q 356 894 313 792 q 428 1078 399 996 l 489 982 m 657 89 q 633 178 647 118 q 603 320 619 239 q 567 492 586 401 q 526 674 547 583 q 484 845 506 765 q 442 983 463 925 q 402 1058 424 1032 q 365 1101 381 1083 q 408 1114 388 1110 q 447 1118 429 1118 q 530 1088 497 1118 q 585 1002 563 1058 q 627 866 608 946 q 667 685 646 786 q 722 422 696 550 q 781 189 747 294 q 861 17 814 83 q 803 -11 833 0 q 751 -22 772 -22 q 690 6 708 -22 q 657 89 672 35 m 232 425 l 606 425 q 579 366 601 386 q 527 339 557 346 q 468 331 497 332 l 201 321 l 232 425 m 479 -274 q 443 -283 463 -279 q 404 -287 424 -287 q 365 -281 385 -287 q 333 -259 346 -275 q 319 -217 319 -243 q 328 -171 319 -193 q 344 -125 336 -149 q 381 -115 361 -118 q 419 -111 401 -111 q 458 -117 439 -111 q 491 -139 478 -124 q 504 -182 504 -154 q 496 -227 504 -204 q 479 -274 488 -250 z "},"À":{"ha":896,"x_min":-7,"x_max":861,"o":"m 489 982 q 422 820 461 913 q 338 621 382 728 q 249 400 293 514 q 168 173 206 286 q 106 -46 131 60 q 36 -8 61 -26 q 2 27 11 10 q -7 61 -7 44 q 17 138 -7 79 q 79 282 40 196 q 166 472 118 368 q 263 683 214 575 q 356 894 313 792 q 428 1078 399 996 l 489 982 m 657 89 q 633 178 647 118 q 603 320 619 239 q 567 492 586 401 q 526 674 547 583 q 484 845 506 765 q 442 983 463 925 q 402 1058 424 1032 q 365 1101 381 1083 q 408 1114 388 1110 q 447 1118 429 1118 q 530 1088 497 1118 q 585 1002 563 1058 q 627 866 608 946 q 667 685 646 786 q 722 422 696 550 q 781 189 747 294 q 861 17 814 83 q 803 -11 833 0 q 751 -22 772 -22 q 690 6 708 -22 q 657 89 672 35 m 232 425 l 606 425 q 579 366 601 386 q 527 339 557 346 q 468 331 497 332 l 201 321 l 232 425 m 681 1250 q 666 1222 679 1235 q 636 1204 653 1208 q 563 1282 608 1240 q 463 1360 518 1324 q 349 1414 408 1396 q 363 1472 350 1450 q 390 1508 375 1494 q 415 1528 406 1522 q 521 1460 468 1507 q 617 1356 574 1413 q 681 1250 660 1299 z "},"Ả":{"ha":896,"x_min":-7,"x_max":861,"o":"m 489 982 q 422 820 461 913 q 338 621 382 728 q 249 400 293 514 q 168 173 206 286 q 106 -46 131 60 q 36 -8 61 -26 q 2 27 11 10 q -7 61 -7 44 q 17 138 -7 79 q 79 282 40 196 q 166 472 118 368 q 263 683 214 575 q 356 894 313 792 q 428 1078 399 996 l 489 982 m 657 89 q 633 178 647 118 q 603 320 619 239 q 567 492 586 401 q 526 674 547 583 q 484 845 506 765 q 442 983 463 925 q 402 1058 424 1032 q 365 1101 381 1083 q 408 1114 388 1110 q 447 1118 429 1118 q 530 1088 497 1118 q 585 1002 563 1058 q 627 866 608 946 q 667 685 646 786 q 722 422 696 550 q 781 189 747 294 q 861 17 814 83 q 803 -11 833 0 q 751 -22 772 -22 q 690 6 708 -22 q 657 89 672 35 m 232 425 l 606 425 q 579 366 601 386 q 527 339 557 346 q 468 331 497 332 l 201 321 l 232 425 m 449 1256 q 527 1335 499 1292 q 556 1421 556 1379 q 533 1483 556 1458 q 474 1507 510 1507 q 417 1496 446 1507 q 360 1464 388 1485 q 338 1489 346 1475 q 329 1517 329 1503 q 412 1575 367 1554 q 501 1596 457 1596 q 589 1576 551 1596 q 648 1522 626 1557 q 669 1443 669 1488 q 621 1305 669 1368 q 485 1201 572 1242 l 449 1256 z "},"Ȃ":{"ha":896,"x_min":-7,"x_max":861,"o":"m 489 982 q 422 820 461 913 q 338 621 382 728 q 249 400 293 514 q 168 173 206 286 q 106 -46 131 60 q 36 -8 61 -26 q 2 27 11 10 q -7 61 -7 44 q 17 138 -7 79 q 79 282 40 196 q 166 472 118 368 q 263 683 214 575 q 356 894 313 792 q 428 1078 399 996 l 489 982 m 657 89 q 633 178 647 118 q 603 320 619 239 q 567 492 586 401 q 526 674 547 583 q 484 845 506 765 q 442 983 463 925 q 402 1058 424 1032 q 365 1101 381 1083 q 408 1114 388 1110 q 447 1118 429 1118 q 530 1088 497 1118 q 585 1002 563 1058 q 627 866 608 946 q 667 685 646 786 q 722 422 696 550 q 781 189 747 294 q 861 17 814 83 q 803 -11 833 0 q 751 -22 772 -22 q 690 6 708 -22 q 657 89 672 35 m 232 425 l 606 425 q 579 366 601 386 q 527 339 557 346 q 468 331 497 332 l 201 321 l 232 425 m 704 1279 q 684 1265 694 1271 q 663 1260 674 1260 q 632 1278 642 1260 q 601 1349 625 1322 q 540 1375 578 1375 q 479 1358 510 1375 q 427 1312 449 1342 q 403 1239 406 1282 q 366 1253 383 1239 q 338 1288 349 1267 q 328 1331 328 1310 q 372 1415 342 1382 q 442 1463 401 1447 q 526 1479 482 1479 q 612 1460 571 1479 q 678 1398 653 1442 q 704 1279 704 1354 z "},"Ā":{"ha":896,"x_min":-7,"x_max":861,"o":"m 489 982 q 422 820 461 913 q 338 621 382 728 q 249 400 293 514 q 168 173 206 286 q 106 -46 131 60 q 36 -8 61 -26 q 2 27 11 10 q -7 61 -7 44 q 17 138 -7 79 q 79 282 40 196 q 166 472 118 368 q 263 683 214 575 q 356 894 313 792 q 428 1078 399 996 l 489 982 m 657 89 q 633 178 647 118 q 603 320 619 239 q 567 492 586 401 q 526 674 547 583 q 484 845 506 765 q 442 983 463 925 q 402 1058 424 1032 q 365 1101 381 1083 q 408 1114 388 1110 q 447 1118 429 1118 q 530 1088 497 1118 q 585 1002 563 1058 q 627 866 608 946 q 667 685 646 786 q 722 422 696 550 q 781 189 747 294 q 861 17 814 83 q 803 -11 833 0 q 751 -22 772 -22 q 690 6 708 -22 q 657 89 672 35 m 232 425 l 606 425 q 579 366 601 386 q 527 339 557 346 q 468 331 497 332 l 201 321 l 232 425 m 397 1308 q 326 1336 342 1308 q 311 1417 311 1364 q 313 1429 311 1424 q 315 1442 314 1435 q 379 1432 349 1435 q 440 1429 410 1429 q 533 1438 488 1429 q 633 1446 578 1446 q 704 1418 689 1446 q 719 1338 719 1390 q 719 1326 719 1332 q 715 1313 718 1319 q 652 1322 682 1319 q 590 1325 622 1325 q 499 1317 543 1325 q 397 1308 454 1308 z "},"Ą":{"ha":896,"x_min":-7,"x_max":961,"o":"m 489 982 q 422 820 461 913 q 338 621 382 728 q 249 400 293 514 q 168 173 206 286 q 106 -46 131 60 q 36 -8 61 -26 q 2 27 11 10 q -7 61 -7 44 q 17 138 -7 79 q 79 282 40 196 q 166 472 118 368 q 263 683 214 575 q 356 894 313 792 q 428 1078 399 996 l 489 982 m 657 89 q 633 178 647 118 q 603 320 619 239 q 567 492 586 401 q 526 674 547 583 q 484 845 506 765 q 442 983 463 925 q 402 1058 424 1032 q 365 1101 381 1083 q 408 1114 388 1110 q 447 1118 429 1118 q 530 1088 497 1118 q 585 1002 563 1058 q 627 866 608 946 q 667 685 646 786 q 722 422 696 550 q 781 189 747 294 q 861 17 814 83 q 803 -11 833 0 q 751 -22 772 -22 q 690 6 708 -22 q 657 89 672 35 m 232 425 l 606 425 q 579 366 601 386 q 527 339 557 346 q 468 331 497 332 l 201 321 l 232 425 m 921 -261 q 961 -308 961 -275 q 861 -390 918 -361 q 743 -419 804 -419 q 626 -372 669 -419 q 582 -246 582 -325 q 644 -82 582 -156 q 828 44 706 -8 l 861 17 q 734 -99 776 -40 q 692 -219 692 -158 q 717 -296 692 -268 q 786 -324 743 -324 q 856 -307 819 -324 q 921 -261 892 -290 z "},"Å":{"ha":896,"x_min":-7,"x_max":861,"o":"m 489 982 q 422 820 461 913 q 338 621 382 728 q 249 400 293 514 q 168 173 206 286 q 106 -46 131 60 q 36 -8 61 -26 q 2 27 11 10 q -7 61 -7 44 q 17 138 -7 79 q 79 282 40 196 q 166 472 118 368 q 263 683 214 575 q 356 894 313 792 q 428 1078 399 996 l 489 982 m 657 89 q 633 178 647 118 q 603 320 619 239 q 567 492 586 401 q 526 674 547 583 q 484 845 506 765 q 442 983 463 925 q 402 1058 424 1032 q 365 1101 381 1083 q 408 1114 388 1110 q 447 1118 429 1118 q 530 1088 497 1118 q 585 1002 563 1058 q 627 866 608 946 q 667 685 646 786 q 722 422 696 550 q 781 189 747 294 q 861 17 814 83 q 803 -11 833 0 q 751 -22 772 -22 q 690 6 708 -22 q 657 89 672 35 m 232 425 l 606 425 q 579 366 601 386 q 527 339 557 346 q 468 331 497 332 l 201 321 l 232 425 m 571 1307 q 583 1349 578 1328 q 588 1386 588 1371 q 567 1433 588 1422 q 521 1443 547 1443 q 458 1436 489 1443 q 447 1394 451 1415 q 442 1357 442 1372 q 462 1310 442 1321 q 508 1300 482 1300 q 571 1307 540 1300 m 640 1235 q 572 1218 610 1225 q 499 1211 535 1211 q 429 1222 464 1211 q 372 1261 394 1233 q 350 1339 350 1289 q 362 1424 350 1382 q 389 1508 374 1465 q 458 1525 421 1518 q 531 1532 494 1532 q 601 1521 567 1532 q 657 1482 635 1510 q 679 1404 679 1454 q 667 1320 679 1361 q 640 1235 656 1279 z "},"Ǻ":{"ha":896,"x_min":-7,"x_max":861,"o":"m 489 982 q 422 820 461 913 q 338 621 382 728 q 249 400 293 514 q 168 173 206 286 q 106 -46 131 60 q 36 -8 61 -26 q 2 27 11 10 q -7 61 -7 44 q 17 138 -7 79 q 79 282 40 196 q 166 472 118 368 q 263 683 214 575 q 356 894 313 792 q 428 1078 399 996 l 489 982 m 657 89 q 633 178 647 118 q 603 320 619 239 q 567 492 586 401 q 526 674 547 583 q 484 845 506 765 q 442 983 463 925 q 402 1058 424 1032 q 365 1101 381 1083 q 408 1114 388 1110 q 447 1118 429 1118 q 530 1088 497 1118 q 585 1002 563 1058 q 627 866 608 946 q 667 685 646 786 q 722 422 696 550 q 781 189 747 294 q 861 17 814 83 q 803 -11 833 0 q 751 -22 772 -22 q 690 6 708 -22 q 657 89 672 35 m 232 425 l 606 425 q 579 366 601 386 q 527 339 557 346 q 468 331 497 332 l 201 321 l 232 425 m 571 1307 q 583 1349 578 1328 q 588 1386 588 1371 q 567 1433 588 1422 q 521 1443 547 1443 q 458 1436 489 1443 q 447 1394 451 1415 q 442 1357 442 1372 q 462 1310 442 1321 q 508 1300 482 1300 q 571 1307 540 1300 m 640 1235 q 572 1218 610 1225 q 499 1211 535 1211 q 429 1222 464 1211 q 372 1261 394 1233 q 350 1339 350 1289 q 362 1424 350 1382 q 389 1508 374 1465 q 458 1525 421 1518 q 531 1532 494 1532 q 601 1521 567 1532 q 657 1482 635 1510 q 679 1404 679 1454 q 667 1320 679 1361 q 640 1235 656 1279 m 349 1606 q 413 1711 371 1654 q 509 1815 456 1768 q 614 1883 563 1863 q 639 1864 624 1878 q 667 1828 654 1850 q 681 1769 679 1806 q 567 1715 622 1751 q 467 1638 511 1679 q 393 1560 422 1596 q 364 1577 376 1564 q 349 1606 351 1590 z "},"Ã":{"ha":896,"x_min":-7,"x_max":861,"o":"m 489 982 q 422 820 461 913 q 338 621 382 728 q 249 400 293 514 q 168 173 206 286 q 106 -46 131 60 q 36 -8 61 -26 q 2 27 11 10 q -7 61 -7 44 q 17 138 -7 79 q 79 282 40 196 q 166 472 118 368 q 263 683 214 575 q 356 894 313 792 q 428 1078 399 996 l 489 982 m 657 89 q 633 178 647 118 q 603 320 619 239 q 567 492 586 401 q 526 674 547 583 q 484 845 506 765 q 442 983 463 925 q 402 1058 424 1032 q 365 1101 381 1083 q 408 1114 388 1110 q 447 1118 429 1118 q 530 1088 497 1118 q 585 1002 563 1058 q 627 866 608 946 q 667 685 646 786 q 722 422 696 550 q 781 189 747 294 q 861 17 814 83 q 803 -11 833 0 q 751 -22 772 -22 q 690 6 708 -22 q 657 89 672 35 m 232 425 l 606 425 q 579 366 601 386 q 527 339 557 346 q 468 331 497 332 l 201 321 l 232 425 m 331 1292 q 305 1298 317 1292 q 294 1315 293 1304 q 324 1401 304 1369 q 370 1444 344 1432 q 422 1457 396 1457 q 489 1447 457 1457 q 550 1427 521 1438 q 604 1417 579 1417 q 663 1431 639 1417 q 699 1464 686 1446 q 722 1458 713 1464 q 735 1440 732 1451 q 707 1355 728 1386 q 660 1311 686 1324 q 607 1299 633 1299 q 541 1309 574 1299 q 480 1329 508 1319 q 425 1339 451 1339 q 367 1324 390 1339 q 331 1292 343 1310 z "},"Æ":{"ha":1263,"x_min":-21,"x_max":1249,"o":"m 85 -46 q 16 -15 39 -33 q -14 24 -7 4 q -21 61 -21 44 q 5 133 -21 78 q 73 267 31 188 q 167 440 115 347 q 270 627 218 533 q 367 804 322 721 q 439 946 411 888 l 511 1097 q 597 1088 546 1093 q 706 1079 649 1083 q 816 1073 764 1075 q 904 1071 868 1071 q 1083 1078 994 1071 q 1249 1101 1171 1086 q 1205 1017 1239 1047 q 1122 973 1171 986 q 1020 957 1074 960 q 918 954 967 954 q 844 956 883 954 q 761 961 806 957 q 668 971 717 965 q 567 985 619 976 q 490 822 538 915 q 387 622 443 729 q 273 399 331 514 q 166 171 215 285 q 85 -46 117 57 m 528 -11 q 543 22 532 1 q 578 65 554 43 q 644 102 601 88 q 753 117 686 117 q 931 122 844 117 q 1088 138 1018 128 q 1200 158 1158 147 q 1144 33 1190 78 q 1032 -11 1099 -11 q 912 -2 989 -11 q 736 7 835 7 q 635 3 688 7 q 528 -11 582 0 m 583 57 q 581 76 582 65 q 579 96 579 86 q 588 222 579 146 q 611 392 597 299 q 639 589 625 486 q 663 794 653 692 q 672 989 672 896 l 811 996 q 815 973 814 985 q 815 949 815 961 q 807 837 815 903 q 787 689 799 771 q 764 513 775 607 q 744 319 753 419 q 736 115 736 218 q 736 106 736 111 q 736 97 736 101 l 583 57 m 372 429 q 370 449 371 439 q 369 469 369 460 q 393 542 369 518 q 456 574 417 567 q 542 582 494 582 q 591 581 556 582 q 673 581 626 581 q 766 580 719 581 q 849 578 813 579 q 897 578 885 578 q 992 585 946 578 q 1071 618 1039 593 q 1073 601 1072 610 q 1074 582 1074 592 q 1050 497 1074 521 q 986 472 1026 472 q 942 472 972 472 q 875 473 913 472 q 801 474 838 474 q 735 474 764 474 q 696 474 707 474 q 596 472 651 474 q 483 460 540 469 q 372 429 425 451 z "},"Ǽ":{"ha":1263,"x_min":-21,"x_max":1249,"o":"m 85 -46 q 16 -15 39 -33 q -14 24 -7 4 q -21 61 -21 44 q 5 133 -21 78 q 73 267 31 188 q 167 440 115 347 q 270 627 218 533 q 367 804 322 721 q 439 946 411 888 l 511 1097 q 597 1088 546 1093 q 706 1079 649 1083 q 816 1073 764 1075 q 904 1071 868 1071 q 1083 1078 994 1071 q 1249 1101 1171 1086 q 1205 1017 1239 1047 q 1122 973 1171 986 q 1020 957 1074 960 q 918 954 967 954 q 844 956 883 954 q 761 961 806 957 q 668 971 717 965 q 567 985 619 976 q 490 822 538 915 q 387 622 443 729 q 273 399 331 514 q 166 171 215 285 q 85 -46 117 57 m 528 -11 q 543 22 532 1 q 578 65 554 43 q 644 102 601 88 q 753 117 686 117 q 931 122 844 117 q 1088 138 1018 128 q 1200 158 1158 147 q 1144 33 1190 78 q 1032 -11 1099 -11 q 912 -2 989 -11 q 736 7 835 7 q 635 3 688 7 q 528 -11 582 0 m 583 57 q 581 76 582 65 q 579 96 579 86 q 588 222 579 146 q 611 392 597 299 q 639 589 625 486 q 663 794 653 692 q 672 989 672 896 l 811 996 q 815 973 814 985 q 815 949 815 961 q 807 837 815 903 q 787 689 799 771 q 764 513 775 607 q 744 319 753 419 q 736 115 736 218 q 736 106 736 111 q 736 97 736 101 l 583 57 m 372 429 q 370 449 371 439 q 369 469 369 460 q 393 542 369 518 q 456 574 417 567 q 542 582 494 582 q 591 581 556 582 q 673 581 626 581 q 766 580 719 581 q 849 578 813 579 q 897 578 885 578 q 992 585 946 578 q 1071 618 1039 593 q 1073 601 1072 610 q 1074 582 1074 592 q 1050 497 1074 521 q 986 472 1026 472 q 942 472 972 472 q 875 473 913 472 q 801 474 838 474 q 735 474 764 474 q 696 474 707 474 q 596 472 651 474 q 483 460 540 469 q 372 429 425 451 m 717 1250 q 781 1356 739 1299 q 877 1460 824 1413 q 982 1528 931 1507 q 1007 1508 992 1522 q 1035 1472 1022 1494 q 1049 1414 1047 1450 q 935 1360 990 1396 q 835 1282 879 1324 q 761 1204 790 1240 q 732 1222 744 1208 q 717 1250 719 1235 z "},"B":{"ha":943,"x_min":125,"x_max":849,"o":"m 125 60 q 152 242 139 142 q 176 448 165 342 q 197 657 188 554 q 212 848 207 760 q 217 999 217 936 q 213 1110 217 1072 q 197 1176 208 1147 q 292 1128 257 1157 q 342 1054 326 1099 q 466 1098 399 1082 q 594 1114 533 1114 q 729 1086 672 1114 q 817 1006 786 1058 q 849 883 849 954 q 818 756 849 814 q 729 653 788 697 q 586 581 671 608 q 693 540 646 567 q 774 476 740 514 q 824 393 807 439 q 842 294 842 347 q 813 163 842 224 q 731 59 783 103 q 608 -9 679 15 q 450 -33 536 -33 q 334 -22 392 -33 q 224 10 276 -11 q 125 60 171 31 m 525 1025 q 438 1015 482 1025 q 358 989 393 1006 q 353 872 358 943 q 339 715 347 801 q 322 538 331 629 q 304 360 313 447 q 290 200 296 274 q 285 76 285 126 q 358 58 322 64 q 429 51 393 51 q 627 118 556 51 q 699 299 699 185 q 664 425 699 372 q 562 508 629 478 q 397 544 494 539 l 393 594 q 564 642 494 608 q 669 731 633 676 q 706 856 706 785 q 685 948 706 910 q 624 1006 664 986 q 525 1025 583 1025 z "},"C":{"ha":954,"x_min":83,"x_max":885,"o":"m 792 271 q 830 258 811 271 q 849 233 849 246 q 681 37 786 108 q 454 -35 576 -35 q 258 27 342 -35 q 129 201 175 89 q 83 468 83 314 q 121 732 83 613 q 227 938 158 851 q 390 1072 296 1025 q 599 1119 485 1119 q 808 1051 731 1119 q 885 868 885 983 q 863 763 885 808 q 801 690 840 717 q 710 664 761 664 q 683 667 699 664 q 649 675 668 669 q 690 736 672 700 q 719 813 708 772 q 729 889 729 853 q 692 1000 729 961 q 590 1039 656 1039 q 452 994 517 1039 q 338 869 388 949 q 261 684 289 789 q 233 460 233 579 q 265 247 233 338 q 356 108 297 157 q 493 60 414 60 q 660 117 579 60 q 792 271 740 174 z "},"Ć":{"ha":954,"x_min":83,"x_max":885,"o":"m 792 271 q 830 258 811 271 q 849 233 849 246 q 681 37 786 108 q 454 -35 576 -35 q 258 27 342 -35 q 129 201 175 89 q 83 468 83 314 q 121 732 83 613 q 227 938 158 851 q 390 1072 296 1025 q 599 1119 485 1119 q 808 1051 731 1119 q 885 868 885 983 q 863 763 885 808 q 801 690 840 717 q 710 664 761 664 q 683 667 699 664 q 649 675 668 669 q 690 736 672 700 q 719 813 708 772 q 729 889 729 853 q 692 1000 729 961 q 590 1039 656 1039 q 452 994 517 1039 q 338 869 388 949 q 261 684 289 789 q 233 460 233 579 q 265 247 233 338 q 356 108 297 157 q 493 60 414 60 q 660 117 579 60 q 792 271 740 174 m 394 1250 q 459 1356 417 1299 q 555 1460 501 1413 q 660 1528 608 1507 q 685 1508 669 1522 q 713 1472 700 1494 q 726 1414 725 1450 q 613 1360 668 1396 q 513 1282 557 1324 q 439 1204 468 1240 q 410 1222 422 1208 q 394 1250 397 1235 z "},"Č":{"ha":954,"x_min":83,"x_max":885,"o":"m 792 271 q 830 258 811 271 q 849 233 849 246 q 681 37 786 108 q 454 -35 576 -35 q 258 27 342 -35 q 129 201 175 89 q 83 468 83 314 q 121 732 83 613 q 227 938 158 851 q 390 1072 296 1025 q 599 1119 485 1119 q 808 1051 731 1119 q 885 868 885 983 q 863 763 885 808 q 801 690 840 717 q 710 664 761 664 q 683 667 699 664 q 649 675 668 669 q 690 736 672 700 q 719 813 708 772 q 729 889 729 853 q 692 1000 729 961 q 590 1039 656 1039 q 452 994 517 1039 q 338 869 388 949 q 261 684 289 789 q 233 460 233 579 q 265 247 233 338 q 356 108 297 157 q 493 60 414 60 q 660 117 579 60 q 792 271 740 174 m 722 1528 q 747 1509 732 1522 q 774 1473 761 1496 q 788 1414 786 1450 q 645 1310 707 1363 q 539 1204 583 1257 q 494 1226 510 1210 q 469 1269 479 1243 q 444 1331 458 1296 q 406 1406 431 1365 q 335 1490 381 1446 q 365 1501 349 1497 q 407 1506 381 1506 q 474 1485 449 1506 q 517 1408 500 1464 q 550 1250 535 1353 l 521 1296 q 569 1372 543 1336 q 631 1446 594 1408 q 722 1528 668 1483 z "},"Ç":{"ha":954,"x_min":83,"x_max":885,"o":"m 792 271 q 830 258 811 271 q 849 233 849 246 q 681 37 786 108 q 454 -35 576 -35 q 258 27 342 -35 q 129 201 175 89 q 83 468 83 314 q 121 732 83 613 q 227 938 158 851 q 390 1072 296 1025 q 599 1119 485 1119 q 808 1051 731 1119 q 885 868 885 983 q 863 763 885 808 q 801 690 840 717 q 710 664 761 664 q 683 667 699 664 q 649 675 668 669 q 690 736 672 700 q 719 813 708 772 q 729 889 729 853 q 692 1000 729 961 q 590 1039 656 1039 q 452 994 517 1039 q 338 869 388 949 q 261 684 289 789 q 233 460 233 579 q 265 247 233 338 q 356 108 297 157 q 493 60 414 60 q 660 117 579 60 q 792 271 740 174 m 376 -56 q 502 -101 458 -61 q 546 -211 546 -142 q 497 -349 546 -287 q 368 -435 449 -411 q 328 -398 343 -424 q 314 -337 314 -372 q 408 -288 374 -325 q 443 -200 443 -251 q 368 -93 443 -128 q 369 -74 368 -82 q 376 -56 371 -65 z "},"Ĉ":{"ha":954,"x_min":83,"x_max":885,"o":"m 792 271 q 830 258 811 271 q 849 233 849 246 q 681 37 786 108 q 454 -35 576 -35 q 258 27 342 -35 q 129 201 175 89 q 83 468 83 314 q 121 732 83 613 q 227 938 158 851 q 390 1072 296 1025 q 599 1119 485 1119 q 808 1051 731 1119 q 885 868 885 983 q 863 763 885 808 q 801 690 840 717 q 710 664 761 664 q 683 667 699 664 q 649 675 668 669 q 690 736 672 700 q 719 813 708 772 q 729 889 729 853 q 692 1000 729 961 q 590 1039 656 1039 q 452 994 517 1039 q 338 869 388 949 q 261 684 289 789 q 233 460 233 579 q 265 247 233 338 q 356 108 297 157 q 493 60 414 60 q 660 117 579 60 q 792 271 740 174 m 394 1204 q 371 1224 386 1211 q 343 1260 356 1238 q 329 1318 331 1283 q 472 1423 410 1369 q 578 1528 535 1476 q 622 1506 607 1522 q 648 1463 638 1489 q 672 1401 658 1436 q 711 1326 686 1367 q 782 1242 736 1286 q 752 1231 768 1236 q 710 1226 736 1226 q 642 1247 668 1226 q 600 1324 617 1268 q 567 1482 583 1379 l 596 1436 q 548 1360 574 1396 q 486 1286 522 1324 q 394 1204 450 1249 z "},"Ċ":{"ha":954,"x_min":83,"x_max":885,"o":"m 792 271 q 830 258 811 271 q 849 233 849 246 q 681 37 786 108 q 454 -35 576 -35 q 258 27 342 -35 q 129 201 175 89 q 83 468 83 314 q 121 732 83 613 q 227 938 158 851 q 390 1072 296 1025 q 599 1119 485 1119 q 808 1051 731 1119 q 885 868 885 983 q 863 763 885 808 q 801 690 840 717 q 710 664 761 664 q 683 667 699 664 q 649 675 668 669 q 690 736 672 700 q 719 813 708 772 q 729 889 729 853 q 692 1000 729 961 q 590 1039 656 1039 q 452 994 517 1039 q 338 869 388 949 q 261 684 289 789 q 233 460 233 579 q 265 247 233 338 q 356 108 297 157 q 493 60 414 60 q 660 117 579 60 q 792 271 740 174 m 628 1269 q 592 1260 611 1264 q 553 1256 572 1256 q 514 1262 533 1256 q 481 1284 494 1268 q 468 1326 468 1300 q 476 1372 468 1350 q 493 1418 485 1394 q 530 1428 510 1425 q 568 1432 550 1432 q 607 1426 588 1432 q 640 1404 626 1419 q 653 1361 653 1389 q 644 1316 653 1339 q 628 1269 636 1293 z "},"D":{"ha":1056,"x_min":125,"x_max":985,"o":"m 342 1054 q 467 1100 411 1086 q 582 1114 522 1114 q 793 1048 703 1114 q 934 864 883 982 q 985 588 985 746 q 947 341 985 453 q 838 148 908 229 q 672 23 768 67 q 458 -21 575 -21 q 337 -8 400 -21 q 218 26 274 4 q 125 74 163 47 q 156 254 142 160 q 181 445 169 349 q 201 637 193 542 q 213 822 208 732 q 217 992 217 913 q 215 1078 217 1044 q 210 1134 214 1111 q 197 1176 206 1157 q 292 1128 257 1157 q 342 1054 326 1099 m 286 97 q 349 71 314 79 q 421 63 385 63 q 647 126 554 63 q 790 308 740 189 q 839 594 839 426 q 801 818 839 722 q 696 967 764 914 q 536 1021 628 1021 q 444 1008 492 1021 q 360 975 396 996 q 352 835 360 922 q 334 645 344 749 q 313 438 324 542 q 294 244 301 333 q 286 97 286 154 z "},"Ǆ":{"ha":1851,"x_min":125,"x_max":1824,"o":"m 342 1054 q 467 1100 411 1086 q 582 1114 522 1114 q 793 1048 703 1114 q 934 864 883 982 q 985 588 985 746 q 947 341 985 453 q 838 148 908 229 q 672 23 768 67 q 458 -21 575 -21 q 337 -8 400 -21 q 218 26 274 4 q 125 74 163 47 q 156 254 142 160 q 181 445 169 349 q 201 637 193 542 q 213 822 208 732 q 217 992 217 913 q 215 1078 217 1044 q 210 1134 214 1111 q 197 1176 206 1157 q 292 1128 257 1157 q 342 1054 326 1099 m 286 97 q 349 71 314 79 q 421 63 385 63 q 647 126 554 63 q 790 308 740 189 q 839 594 839 426 q 801 818 839 722 q 696 967 764 914 q 536 1021 628 1021 q 444 1008 492 1021 q 360 975 396 996 q 352 835 360 922 q 334 645 344 749 q 313 438 324 542 q 294 244 301 333 q 286 97 286 154 m 1061 50 q 1323 389 1203 222 q 1536 705 1443 556 q 1687 972 1629 854 q 1760 1164 1744 1090 q 1811 1065 1799 1114 q 1824 988 1824 1015 q 1786 858 1824 931 q 1685 701 1749 786 q 1545 518 1622 615 q 1388 313 1468 421 q 1236 86 1307 204 l 1061 50 m 1239 17 q 1123 13 1188 17 q 1000 -4 1058 8 q 1015 29 1004 8 q 1051 72 1026 50 q 1118 109 1075 94 q 1229 124 1161 124 q 1254 123 1244 124 q 1278 122 1264 122 q 1322 121 1293 121 q 1435 124 1374 121 q 1558 132 1496 126 q 1672 145 1619 138 q 1757 163 1724 153 q 1697 34 1743 75 q 1576 -7 1651 -7 q 1444 5 1526 -7 q 1239 17 1361 17 m 1171 1003 q 1174 1049 1171 1031 q 1182 1079 1178 1068 q 1256 1073 1201 1078 q 1388 1064 1311 1068 q 1549 1060 1465 1060 q 1651 1062 1601 1060 q 1747 1068 1701 1064 l 1693 972 q 1621 960 1668 968 q 1518 943 1574 951 q 1407 926 1463 935 q 1308 913 1351 918 q 1246 908 1265 908 q 1185 937 1199 908 q 1171 1003 1171 965 m 1710 1528 q 1734 1509 1719 1522 q 1761 1473 1749 1496 q 1775 1414 1774 1450 q 1633 1310 1694 1363 q 1526 1204 1571 1257 q 1482 1226 1497 1210 q 1456 1269 1467 1243 q 1432 1331 1446 1296 q 1393 1406 1418 1365 q 1322 1490 1368 1446 q 1352 1501 1336 1497 q 1394 1506 1368 1506 q 1462 1485 1436 1506 q 1505 1408 1488 1464 q 1538 1250 1522 1353 l 1508 1296 q 1556 1372 1531 1336 q 1619 1446 1582 1408 q 1710 1528 1656 1483 z "},"Ð":{"ha":1056,"x_min":49,"x_max":985,"o":"m 342 1054 q 467 1100 411 1086 q 582 1114 522 1114 q 793 1048 703 1114 q 934 864 883 982 q 985 588 985 746 q 947 341 985 453 q 838 148 908 229 q 672 23 768 67 q 458 -21 575 -21 q 337 -8 400 -21 q 218 26 274 4 q 125 74 163 47 q 156 254 142 160 q 181 445 169 349 q 201 637 193 542 q 213 822 208 732 q 217 992 217 913 q 215 1078 217 1044 q 210 1134 214 1111 q 197 1176 206 1157 q 292 1128 257 1157 q 342 1054 326 1099 m 286 97 q 349 71 314 79 q 421 63 385 63 q 647 126 554 63 q 790 308 740 189 q 839 594 839 426 q 801 818 839 722 q 696 967 764 914 q 536 1021 628 1021 q 444 1008 492 1021 q 360 975 396 996 q 352 835 360 922 q 334 645 344 749 q 313 438 324 542 q 294 244 301 333 q 286 97 286 154 m 500 524 q 356 531 421 524 q 229 538 292 538 q 158 537 196 538 q 91 534 121 536 q 50 528 61 532 q 49 539 50 533 q 49 550 49 544 q 57 603 49 579 q 90 640 65 626 q 165 653 115 653 q 308 646 243 653 q 436 639 374 639 q 508 640 471 639 q 574 643 544 640 q 615 649 604 646 q 616 638 615 643 q 617 626 617 632 q 608 574 617 597 q 576 538 600 551 q 500 524 551 524 z "},"Ď":{"ha":1056,"x_min":125,"x_max":985,"o":"m 342 1054 q 467 1100 411 1086 q 582 1114 522 1114 q 793 1048 703 1114 q 934 864 883 982 q 985 588 985 746 q 947 341 985 453 q 838 148 908 229 q 672 23 768 67 q 458 -21 575 -21 q 337 -8 400 -21 q 218 26 274 4 q 125 74 163 47 q 156 254 142 160 q 181 445 169 349 q 201 637 193 542 q 213 822 208 732 q 217 992 217 913 q 215 1078 217 1044 q 210 1134 214 1111 q 197 1176 206 1157 q 292 1128 257 1157 q 342 1054 326 1099 m 286 97 q 349 71 314 79 q 421 63 385 63 q 647 126 554 63 q 790 308 740 189 q 839 594 839 426 q 801 818 839 722 q 696 967 764 914 q 536 1021 628 1021 q 444 1008 492 1021 q 360 975 396 996 q 352 835 360 922 q 334 645 344 749 q 313 438 324 542 q 294 244 301 333 q 286 97 286 154 m 742 1528 q 766 1509 751 1522 q 793 1473 781 1496 q 807 1414 806 1450 q 665 1310 726 1363 q 558 1204 603 1257 q 514 1226 529 1210 q 488 1269 499 1243 q 464 1331 478 1296 q 425 1406 450 1365 q 354 1490 400 1446 q 384 1501 368 1497 q 426 1506 400 1506 q 494 1485 468 1506 q 537 1408 519 1464 q 569 1250 554 1353 l 540 1296 q 588 1372 563 1336 q 651 1446 614 1408 q 742 1528 688 1483 z "},"Đ":{"ha":1056,"x_min":49,"x_max":985,"o":"m 342 1054 q 467 1100 411 1086 q 582 1114 522 1114 q 793 1048 703 1114 q 934 864 883 982 q 985 588 985 746 q 947 341 985 453 q 838 148 908 229 q 672 23 768 67 q 458 -21 575 -21 q 337 -8 400 -21 q 218 26 274 4 q 125 74 163 47 q 156 254 142 160 q 181 445 169 349 q 201 637 193 542 q 213 822 208 732 q 217 992 217 913 q 215 1078 217 1044 q 210 1134 214 1111 q 197 1176 206 1157 q 292 1128 257 1157 q 342 1054 326 1099 m 286 97 q 349 71 314 79 q 421 63 385 63 q 647 126 554 63 q 790 308 740 189 q 839 594 839 426 q 801 818 839 722 q 696 967 764 914 q 536 1021 628 1021 q 444 1008 492 1021 q 360 975 396 996 q 352 835 360 922 q 334 645 344 749 q 313 438 324 542 q 294 244 301 333 q 286 97 286 154 m 500 524 q 356 531 421 524 q 229 538 292 538 q 158 537 196 538 q 91 534 121 536 q 50 528 61 532 q 49 539 50 533 q 49 550 49 544 q 57 603 49 579 q 90 640 65 626 q 165 653 115 653 q 308 646 243 653 q 436 639 374 639 q 508 640 471 639 q 574 643 544 640 q 615 649 604 646 q 616 638 615 643 q 617 626 617 632 q 608 574 617 597 q 576 538 600 551 q 500 524 551 524 z "},"ǅ":{"ha":1743,"x_min":125,"x_max":1708,"o":"m 342 1054 q 467 1100 411 1086 q 582 1114 522 1114 q 793 1048 703 1114 q 934 864 883 982 q 985 588 985 746 q 947 341 985 453 q 838 148 908 229 q 672 23 768 67 q 458 -21 575 -21 q 337 -8 400 -21 q 218 26 274 4 q 125 74 163 47 q 156 254 142 160 q 181 445 169 349 q 201 637 193 542 q 213 822 208 732 q 217 992 217 913 q 215 1078 217 1044 q 210 1134 214 1111 q 197 1176 206 1157 q 292 1128 257 1157 q 342 1054 326 1099 m 286 97 q 349 71 314 79 q 421 63 385 63 q 647 126 554 63 q 790 308 740 189 q 839 594 839 426 q 801 818 839 722 q 696 967 764 914 q 536 1021 628 1021 q 444 1008 492 1021 q 360 975 396 996 q 352 835 360 922 q 334 645 344 749 q 313 438 324 542 q 294 244 301 333 q 286 97 286 154 m 1221 132 q 1338 127 1279 132 q 1461 122 1397 122 q 1560 126 1510 122 q 1660 139 1610 129 q 1665 105 1663 124 q 1667 71 1667 86 q 1644 11 1667 32 q 1561 -10 1622 -10 q 1474 -3 1529 -10 q 1353 10 1418 4 q 1225 17 1288 17 q 1127 10 1174 17 q 1035 -11 1081 4 q 1068 75 1046 44 q 1128 119 1090 106 q 1221 132 1165 132 m 1178 786 q 1309 772 1243 776 q 1443 767 1375 767 q 1558 770 1500 767 q 1676 779 1615 774 q 1686 753 1683 769 q 1689 726 1689 738 l 1600 676 q 1489 667 1550 676 q 1367 649 1428 658 q 1257 639 1307 639 q 1187 663 1207 639 q 1167 729 1167 686 q 1178 786 1167 756 m 1082 72 q 1365 376 1244 233 q 1558 638 1486 519 q 1646 839 1631 756 q 1691 800 1674 828 q 1708 736 1708 772 q 1678 640 1708 693 q 1597 524 1649 586 q 1481 390 1546 461 q 1346 241 1417 319 q 1207 76 1275 163 l 1082 72 m 1611 1183 q 1635 1165 1621 1178 q 1663 1128 1650 1151 q 1676 1069 1675 1106 q 1534 965 1596 1018 q 1428 860 1472 913 q 1383 882 1399 865 q 1358 925 1368 899 q 1333 986 1347 951 q 1294 1061 1319 1021 q 1224 1146 1269 1101 q 1253 1157 1238 1153 q 1296 1161 1269 1161 q 1363 1140 1338 1161 q 1406 1064 1389 1119 q 1439 906 1424 1008 l 1410 951 q 1458 1028 1432 992 q 1520 1101 1483 1064 q 1611 1183 1557 1139 z "},"E":{"ha":832,"x_min":97,"x_max":818,"o":"m 167 29 q 157 76 161 50 q 153 128 153 101 q 162 247 153 174 q 184 411 171 321 q 210 601 197 501 q 233 801 224 701 q 242 989 242 900 l 381 996 q 384 973 383 985 q 385 946 385 961 q 376 837 385 903 q 357 688 368 771 q 334 511 346 604 q 314 322 322 418 q 306 132 306 225 q 308 91 306 101 q 319 69 310 81 l 167 29 m 97 -11 q 127 44 108 21 q 174 83 146 67 q 239 107 201 99 q 322 117 276 115 q 478 122 413 119 q 592 129 543 125 q 683 141 640 133 q 769 158 725 149 q 715 33 760 78 q 599 -11 669 -11 q 481 -2 560 -11 q 304 7 403 7 q 194 3 246 7 q 97 -11 142 -1 m 125 429 q 122 449 124 436 q 119 469 119 461 q 137 534 119 510 q 192 570 154 558 q 290 582 231 582 q 348 581 315 582 q 413 579 381 581 q 469 578 446 578 q 571 588 531 578 q 638 618 611 597 q 642 595 640 608 q 644 567 644 582 q 621 495 644 518 q 539 472 597 472 q 494 473 526 472 q 417 474 461 474 q 300 469 353 474 q 204 454 247 464 q 125 429 161 444 m 300 946 q 220 951 247 946 q 184 972 193 957 q 175 1018 175 988 q 178 1057 175 1038 q 186 1090 181 1076 q 331 1076 257 1081 q 474 1071 404 1071 q 653 1079 565 1071 q 818 1101 742 1088 q 772 1012 808 1044 q 663 967 735 979 q 566 956 626 961 q 435 949 506 951 q 300 946 365 946 z "},"É":{"ha":832,"x_min":97,"x_max":818,"o":"m 167 29 q 157 76 161 50 q 153 128 153 101 q 162 247 153 174 q 184 411 171 321 q 210 601 197 501 q 233 801 224 701 q 242 989 242 900 l 381 996 q 384 973 383 985 q 385 946 385 961 q 376 837 385 903 q 357 688 368 771 q 334 511 346 604 q 314 322 322 418 q 306 132 306 225 q 308 91 306 101 q 319 69 310 81 l 167 29 m 97 -11 q 127 44 108 21 q 174 83 146 67 q 239 107 201 99 q 322 117 276 115 q 478 122 413 119 q 592 129 543 125 q 683 141 640 133 q 769 158 725 149 q 715 33 760 78 q 599 -11 669 -11 q 481 -2 560 -11 q 304 7 403 7 q 194 3 246 7 q 97 -11 142 -1 m 125 429 q 122 449 124 436 q 119 469 119 461 q 137 534 119 510 q 192 570 154 558 q 290 582 231 582 q 348 581 315 582 q 413 579 381 581 q 469 578 446 578 q 571 588 531 578 q 638 618 611 597 q 642 595 640 608 q 644 567 644 582 q 621 495 644 518 q 539 472 597 472 q 494 473 526 472 q 417 474 461 474 q 300 469 353 474 q 204 454 247 464 q 125 429 161 444 m 300 946 q 220 951 247 946 q 184 972 193 957 q 175 1018 175 988 q 178 1057 175 1038 q 186 1090 181 1076 q 331 1076 257 1081 q 474 1071 404 1071 q 653 1079 565 1071 q 818 1101 742 1088 q 772 1012 808 1044 q 663 967 735 979 q 566 956 626 961 q 435 949 506 951 q 300 946 365 946 m 347 1250 q 412 1356 369 1299 q 508 1460 454 1413 q 613 1528 561 1507 q 638 1508 622 1522 q 665 1472 653 1494 q 679 1414 678 1450 q 565 1360 621 1396 q 465 1282 510 1324 q 392 1204 421 1240 q 363 1222 375 1208 q 347 1250 350 1235 z "},"Ĕ":{"ha":832,"x_min":97,"x_max":818,"o":"m 167 29 q 157 76 161 50 q 153 128 153 101 q 162 247 153 174 q 184 411 171 321 q 210 601 197 501 q 233 801 224 701 q 242 989 242 900 l 381 996 q 384 973 383 985 q 385 946 385 961 q 376 837 385 903 q 357 688 368 771 q 334 511 346 604 q 314 322 322 418 q 306 132 306 225 q 308 91 306 101 q 319 69 310 81 l 167 29 m 97 -11 q 127 44 108 21 q 174 83 146 67 q 239 107 201 99 q 322 117 276 115 q 478 122 413 119 q 592 129 543 125 q 683 141 640 133 q 769 158 725 149 q 715 33 760 78 q 599 -11 669 -11 q 481 -2 560 -11 q 304 7 403 7 q 194 3 246 7 q 97 -11 142 -1 m 125 429 q 122 449 124 436 q 119 469 119 461 q 137 534 119 510 q 192 570 154 558 q 290 582 231 582 q 348 581 315 582 q 413 579 381 581 q 469 578 446 578 q 571 588 531 578 q 638 618 611 597 q 642 595 640 608 q 644 567 644 582 q 621 495 644 518 q 539 472 597 472 q 494 473 526 472 q 417 474 461 474 q 300 469 353 474 q 204 454 247 464 q 125 429 161 444 m 300 946 q 220 951 247 946 q 184 972 193 957 q 175 1018 175 988 q 178 1057 175 1038 q 186 1090 181 1076 q 331 1076 257 1081 q 474 1071 404 1071 q 653 1079 565 1071 q 818 1101 742 1088 q 772 1012 808 1044 q 663 967 735 979 q 566 956 626 961 q 435 949 506 951 q 300 946 365 946 m 325 1439 q 345 1453 335 1447 q 367 1458 356 1458 q 397 1440 388 1458 q 428 1369 404 1396 q 489 1343 451 1343 q 550 1360 519 1343 q 602 1407 581 1376 q 626 1479 624 1438 q 663 1465 646 1479 q 691 1431 681 1451 q 701 1388 701 1410 q 658 1303 688 1336 q 588 1255 628 1271 q 503 1239 549 1239 q 417 1258 458 1239 q 351 1320 376 1276 q 325 1439 325 1364 z "},"Ě":{"ha":832,"x_min":97,"x_max":818,"o":"m 167 29 q 157 76 161 50 q 153 128 153 101 q 162 247 153 174 q 184 411 171 321 q 210 601 197 501 q 233 801 224 701 q 242 989 242 900 l 381 996 q 384 973 383 985 q 385 946 385 961 q 376 837 385 903 q 357 688 368 771 q 334 511 346 604 q 314 322 322 418 q 306 132 306 225 q 308 91 306 101 q 319 69 310 81 l 167 29 m 97 -11 q 127 44 108 21 q 174 83 146 67 q 239 107 201 99 q 322 117 276 115 q 478 122 413 119 q 592 129 543 125 q 683 141 640 133 q 769 158 725 149 q 715 33 760 78 q 599 -11 669 -11 q 481 -2 560 -11 q 304 7 403 7 q 194 3 246 7 q 97 -11 142 -1 m 125 429 q 122 449 124 436 q 119 469 119 461 q 137 534 119 510 q 192 570 154 558 q 290 582 231 582 q 348 581 315 582 q 413 579 381 581 q 469 578 446 578 q 571 588 531 578 q 638 618 611 597 q 642 595 640 608 q 644 567 644 582 q 621 495 644 518 q 539 472 597 472 q 494 473 526 472 q 417 474 461 474 q 300 469 353 474 q 204 454 247 464 q 125 429 161 444 m 300 946 q 220 951 247 946 q 184 972 193 957 q 175 1018 175 988 q 178 1057 175 1038 q 186 1090 181 1076 q 331 1076 257 1081 q 474 1071 404 1071 q 653 1079 565 1071 q 818 1101 742 1088 q 772 1012 808 1044 q 663 967 735 979 q 566 956 626 961 q 435 949 506 951 q 300 946 365 946 m 675 1528 q 699 1509 685 1522 q 726 1473 714 1496 q 740 1414 739 1450 q 598 1310 660 1363 q 492 1204 536 1257 q 447 1226 463 1210 q 422 1269 432 1243 q 397 1331 411 1296 q 358 1406 383 1365 q 288 1490 333 1446 q 317 1501 301 1497 q 360 1506 333 1506 q 427 1485 401 1506 q 470 1408 453 1464 q 503 1250 488 1353 l 474 1296 q 522 1372 496 1336 q 584 1446 547 1408 q 675 1528 621 1483 z "},"Ê":{"ha":832,"x_min":97,"x_max":818,"o":"m 167 29 q 157 76 161 50 q 153 128 153 101 q 162 247 153 174 q 184 411 171 321 q 210 601 197 501 q 233 801 224 701 q 242 989 242 900 l 381 996 q 384 973 383 985 q 385 946 385 961 q 376 837 385 903 q 357 688 368 771 q 334 511 346 604 q 314 322 322 418 q 306 132 306 225 q 308 91 306 101 q 319 69 310 81 l 167 29 m 97 -11 q 127 44 108 21 q 174 83 146 67 q 239 107 201 99 q 322 117 276 115 q 478 122 413 119 q 592 129 543 125 q 683 141 640 133 q 769 158 725 149 q 715 33 760 78 q 599 -11 669 -11 q 481 -2 560 -11 q 304 7 403 7 q 194 3 246 7 q 97 -11 142 -1 m 125 429 q 122 449 124 436 q 119 469 119 461 q 137 534 119 510 q 192 570 154 558 q 290 582 231 582 q 348 581 315 582 q 413 579 381 581 q 469 578 446 578 q 571 588 531 578 q 638 618 611 597 q 642 595 640 608 q 644 567 644 582 q 621 495 644 518 q 539 472 597 472 q 494 473 526 472 q 417 474 461 474 q 300 469 353 474 q 204 454 247 464 q 125 429 161 444 m 300 946 q 220 951 247 946 q 184 972 193 957 q 175 1018 175 988 q 178 1057 175 1038 q 186 1090 181 1076 q 331 1076 257 1081 q 474 1071 404 1071 q 653 1079 565 1071 q 818 1101 742 1088 q 772 1012 808 1044 q 663 967 735 979 q 566 956 626 961 q 435 949 506 951 q 300 946 365 946 m 347 1204 q 324 1224 339 1211 q 296 1260 308 1238 q 282 1318 283 1283 q 425 1423 363 1369 q 531 1528 488 1476 q 575 1506 560 1522 q 601 1463 590 1489 q 625 1401 611 1436 q 664 1326 639 1367 q 735 1242 689 1286 q 705 1231 721 1236 q 663 1226 689 1226 q 595 1247 621 1226 q 553 1324 569 1268 q 519 1482 536 1379 l 549 1436 q 501 1360 526 1396 q 439 1286 475 1324 q 347 1204 403 1249 z "},"Ế":{"ha":832,"x_min":97,"x_max":818,"o":"m 167 29 q 157 76 161 50 q 153 128 153 101 q 162 247 153 174 q 184 411 171 321 q 210 601 197 501 q 233 801 224 701 q 242 989 242 900 l 381 996 q 384 973 383 985 q 385 946 385 961 q 376 837 385 903 q 357 688 368 771 q 334 511 346 604 q 314 322 322 418 q 306 132 306 225 q 308 91 306 101 q 319 69 310 81 l 167 29 m 97 -11 q 127 44 108 21 q 174 83 146 67 q 239 107 201 99 q 322 117 276 115 q 478 122 413 119 q 592 129 543 125 q 683 141 640 133 q 769 158 725 149 q 715 33 760 78 q 599 -11 669 -11 q 481 -2 560 -11 q 304 7 403 7 q 194 3 246 7 q 97 -11 142 -1 m 125 429 q 122 449 124 436 q 119 469 119 461 q 137 534 119 510 q 192 570 154 558 q 290 582 231 582 q 348 581 315 582 q 413 579 381 581 q 469 578 446 578 q 571 588 531 578 q 638 618 611 597 q 642 595 640 608 q 644 567 644 582 q 621 495 644 518 q 539 472 597 472 q 494 473 526 472 q 417 474 461 474 q 300 469 353 474 q 204 454 247 464 q 125 429 161 444 m 300 946 q 220 951 247 946 q 184 972 193 957 q 175 1018 175 988 q 178 1057 175 1038 q 186 1090 181 1076 q 331 1076 257 1081 q 474 1071 404 1071 q 653 1079 565 1071 q 818 1101 742 1088 q 772 1012 808 1044 q 663 967 735 979 q 566 956 626 961 q 435 949 506 951 q 300 946 365 946 m 347 1204 q 324 1224 339 1211 q 296 1260 308 1238 q 282 1318 283 1283 q 425 1423 363 1369 q 531 1528 488 1476 q 575 1506 560 1522 q 601 1463 590 1489 q 625 1401 611 1436 q 664 1326 639 1367 q 735 1242 689 1286 q 705 1231 721 1236 q 663 1226 689 1226 q 595 1247 621 1226 q 553 1324 569 1268 q 519 1482 536 1379 l 549 1436 q 501 1360 526 1396 q 439 1286 475 1324 q 347 1204 403 1249 m 347 1603 q 412 1708 369 1651 q 508 1813 454 1765 q 613 1881 561 1860 q 638 1861 622 1875 q 665 1825 653 1847 q 679 1767 678 1803 q 565 1713 621 1749 q 465 1635 510 1676 q 392 1557 421 1593 q 363 1574 375 1561 q 347 1603 350 1588 z "},"Ệ":{"ha":832,"x_min":97,"x_max":818,"o":"m 167 29 q 157 76 161 50 q 153 128 153 101 q 162 247 153 174 q 184 411 171 321 q 210 601 197 501 q 233 801 224 701 q 242 989 242 900 l 381 996 q 384 973 383 985 q 385 946 385 961 q 376 837 385 903 q 357 688 368 771 q 334 511 346 604 q 314 322 322 418 q 306 132 306 225 q 308 91 306 101 q 319 69 310 81 l 167 29 m 97 -11 q 127 44 108 21 q 174 83 146 67 q 239 107 201 99 q 322 117 276 115 q 478 122 413 119 q 592 129 543 125 q 683 141 640 133 q 769 158 725 149 q 715 33 760 78 q 599 -11 669 -11 q 481 -2 560 -11 q 304 7 403 7 q 194 3 246 7 q 97 -11 142 -1 m 125 429 q 122 449 124 436 q 119 469 119 461 q 137 534 119 510 q 192 570 154 558 q 290 582 231 582 q 348 581 315 582 q 413 579 381 581 q 469 578 446 578 q 571 588 531 578 q 638 618 611 597 q 642 595 640 608 q 644 567 644 582 q 621 495 644 518 q 539 472 597 472 q 494 473 526 472 q 417 474 461 474 q 300 469 353 474 q 204 454 247 464 q 125 429 161 444 m 300 946 q 220 951 247 946 q 184 972 193 957 q 175 1018 175 988 q 178 1057 175 1038 q 186 1090 181 1076 q 331 1076 257 1081 q 474 1071 404 1071 q 653 1079 565 1071 q 818 1101 742 1088 q 772 1012 808 1044 q 663 967 735 979 q 566 956 626 961 q 435 949 506 951 q 300 946 365 946 m 347 1204 q 324 1224 339 1211 q 296 1260 308 1238 q 282 1318 283 1283 q 425 1423 363 1369 q 531 1528 488 1476 q 575 1506 560 1522 q 601 1463 590 1489 q 625 1401 611 1436 q 664 1326 639 1367 q 735 1242 689 1286 q 705 1231 721 1236 q 663 1226 689 1226 q 595 1247 621 1226 q 553 1324 569 1268 q 519 1482 536 1379 l 549 1436 q 501 1360 526 1396 q 439 1286 475 1324 q 347 1204 403 1249 m 478 -274 q 442 -283 461 -279 q 403 -287 422 -287 q 364 -281 383 -287 q 331 -259 344 -275 q 318 -217 318 -243 q 326 -171 318 -193 q 343 -125 335 -149 q 380 -115 360 -118 q 418 -111 400 -111 q 457 -117 438 -111 q 490 -139 476 -124 q 503 -182 503 -154 q 494 -227 503 -204 q 478 -274 486 -250 z "},"Ề":{"ha":832,"x_min":97,"x_max":818,"o":"m 167 29 q 157 76 161 50 q 153 128 153 101 q 162 247 153 174 q 184 411 171 321 q 210 601 197 501 q 233 801 224 701 q 242 989 242 900 l 381 996 q 384 973 383 985 q 385 946 385 961 q 376 837 385 903 q 357 688 368 771 q 334 511 346 604 q 314 322 322 418 q 306 132 306 225 q 308 91 306 101 q 319 69 310 81 l 167 29 m 97 -11 q 127 44 108 21 q 174 83 146 67 q 239 107 201 99 q 322 117 276 115 q 478 122 413 119 q 592 129 543 125 q 683 141 640 133 q 769 158 725 149 q 715 33 760 78 q 599 -11 669 -11 q 481 -2 560 -11 q 304 7 403 7 q 194 3 246 7 q 97 -11 142 -1 m 125 429 q 122 449 124 436 q 119 469 119 461 q 137 534 119 510 q 192 570 154 558 q 290 582 231 582 q 348 581 315 582 q 413 579 381 581 q 469 578 446 578 q 571 588 531 578 q 638 618 611 597 q 642 595 640 608 q 644 567 644 582 q 621 495 644 518 q 539 472 597 472 q 494 473 526 472 q 417 474 461 474 q 300 469 353 474 q 204 454 247 464 q 125 429 161 444 m 300 946 q 220 951 247 946 q 184 972 193 957 q 175 1018 175 988 q 178 1057 175 1038 q 186 1090 181 1076 q 331 1076 257 1081 q 474 1071 404 1071 q 653 1079 565 1071 q 818 1101 742 1088 q 772 1012 808 1044 q 663 967 735 979 q 566 956 626 961 q 435 949 506 951 q 300 946 365 946 m 347 1204 q 324 1224 339 1211 q 296 1260 308 1238 q 282 1318 283 1283 q 425 1423 363 1369 q 531 1528 488 1476 q 575 1506 560 1522 q 601 1463 590 1489 q 625 1401 611 1436 q 664 1326 639 1367 q 735 1242 689 1286 q 705 1231 721 1236 q 663 1226 689 1226 q 595 1247 621 1226 q 553 1324 569 1268 q 519 1482 536 1379 l 549 1436 q 501 1360 526 1396 q 439 1286 475 1324 q 347 1204 403 1249 m 679 1603 q 665 1574 678 1588 q 635 1557 651 1561 q 562 1635 607 1593 q 462 1713 517 1676 q 347 1767 407 1749 q 361 1825 349 1803 q 389 1861 374 1847 q 414 1881 404 1875 q 519 1813 467 1860 q 615 1708 572 1765 q 679 1603 658 1651 z "},"Ể":{"ha":832,"x_min":97,"x_max":818,"o":"m 167 29 q 157 76 161 50 q 153 128 153 101 q 162 247 153 174 q 184 411 171 321 q 210 601 197 501 q 233 801 224 701 q 242 989 242 900 l 381 996 q 384 973 383 985 q 385 946 385 961 q 376 837 385 903 q 357 688 368 771 q 334 511 346 604 q 314 322 322 418 q 306 132 306 225 q 308 91 306 101 q 319 69 310 81 l 167 29 m 97 -11 q 127 44 108 21 q 174 83 146 67 q 239 107 201 99 q 322 117 276 115 q 478 122 413 119 q 592 129 543 125 q 683 141 640 133 q 769 158 725 149 q 715 33 760 78 q 599 -11 669 -11 q 481 -2 560 -11 q 304 7 403 7 q 194 3 246 7 q 97 -11 142 -1 m 125 429 q 122 449 124 436 q 119 469 119 461 q 137 534 119 510 q 192 570 154 558 q 290 582 231 582 q 348 581 315 582 q 413 579 381 581 q 469 578 446 578 q 571 588 531 578 q 638 618 611 597 q 642 595 640 608 q 644 567 644 582 q 621 495 644 518 q 539 472 597 472 q 494 473 526 472 q 417 474 461 474 q 300 469 353 474 q 204 454 247 464 q 125 429 161 444 m 300 946 q 220 951 247 946 q 184 972 193 957 q 175 1018 175 988 q 178 1057 175 1038 q 186 1090 181 1076 q 331 1076 257 1081 q 474 1071 404 1071 q 653 1079 565 1071 q 818 1101 742 1088 q 772 1012 808 1044 q 663 967 735 979 q 566 956 626 961 q 435 949 506 951 q 300 946 365 946 m 347 1204 q 324 1224 339 1211 q 296 1260 308 1238 q 282 1318 283 1283 q 425 1423 363 1369 q 531 1528 488 1476 q 575 1506 560 1522 q 601 1463 590 1489 q 625 1401 611 1436 q 664 1326 639 1367 q 735 1242 689 1286 q 705 1231 721 1236 q 663 1226 689 1226 q 595 1247 621 1226 q 553 1324 569 1268 q 519 1482 536 1379 l 549 1436 q 501 1360 526 1396 q 439 1286 475 1324 q 347 1204 403 1249 m 447 1608 q 526 1688 497 1644 q 554 1774 554 1732 q 531 1835 554 1811 q 472 1860 508 1860 q 415 1849 444 1860 q 358 1817 386 1838 q 336 1842 344 1828 q 328 1869 328 1856 q 410 1928 365 1907 q 500 1949 456 1949 q 588 1929 550 1949 q 647 1875 625 1910 q 668 1796 668 1840 q 619 1658 668 1721 q 483 1554 571 1594 l 447 1608 z "},"Ễ":{"ha":832,"x_min":97,"x_max":818,"o":"m 167 29 q 157 76 161 50 q 153 128 153 101 q 162 247 153 174 q 184 411 171 321 q 210 601 197 501 q 233 801 224 701 q 242 989 242 900 l 381 996 q 384 973 383 985 q 385 946 385 961 q 376 837 385 903 q 357 688 368 771 q 334 511 346 604 q 314 322 322 418 q 306 132 306 225 q 308 91 306 101 q 319 69 310 81 l 167 29 m 97 -11 q 127 44 108 21 q 174 83 146 67 q 239 107 201 99 q 322 117 276 115 q 478 122 413 119 q 592 129 543 125 q 683 141 640 133 q 769 158 725 149 q 715 33 760 78 q 599 -11 669 -11 q 481 -2 560 -11 q 304 7 403 7 q 194 3 246 7 q 97 -11 142 -1 m 125 429 q 122 449 124 436 q 119 469 119 461 q 137 534 119 510 q 192 570 154 558 q 290 582 231 582 q 348 581 315 582 q 413 579 381 581 q 469 578 446 578 q 571 588 531 578 q 638 618 611 597 q 642 595 640 608 q 644 567 644 582 q 621 495 644 518 q 539 472 597 472 q 494 473 526 472 q 417 474 461 474 q 300 469 353 474 q 204 454 247 464 q 125 429 161 444 m 300 946 q 220 951 247 946 q 184 972 193 957 q 175 1018 175 988 q 178 1057 175 1038 q 186 1090 181 1076 q 331 1076 257 1081 q 474 1071 404 1071 q 653 1079 565 1071 q 818 1101 742 1088 q 772 1012 808 1044 q 663 967 735 979 q 566 956 626 961 q 435 949 506 951 q 300 946 365 946 m 347 1204 q 324 1224 339 1211 q 296 1260 308 1238 q 282 1318 283 1283 q 425 1423 363 1369 q 531 1528 488 1476 q 575 1506 560 1522 q 601 1463 590 1489 q 625 1401 611 1436 q 664 1326 639 1367 q 735 1242 689 1286 q 705 1231 721 1236 q 663 1226 689 1226 q 595 1247 621 1226 q 553 1324 569 1268 q 519 1482 536 1379 l 549 1436 q 501 1360 526 1396 q 439 1286 475 1324 q 347 1204 403 1249 m 329 1644 q 303 1651 315 1644 q 293 1668 292 1657 q 323 1753 303 1722 q 369 1797 343 1785 q 421 1810 394 1810 q 488 1800 456 1810 q 549 1780 519 1790 q 603 1769 578 1769 q 661 1784 638 1769 q 697 1817 685 1799 q 721 1810 711 1817 q 733 1793 731 1804 q 706 1708 726 1739 q 658 1664 685 1676 q 606 1651 632 1651 q 540 1662 572 1651 q 478 1682 507 1672 q 424 1692 450 1692 q 365 1677 389 1692 q 329 1644 342 1663 z "},"Ȅ":{"ha":832,"x_min":97,"x_max":818,"o":"m 167 29 q 157 76 161 50 q 153 128 153 101 q 162 247 153 174 q 184 411 171 321 q 210 601 197 501 q 233 801 224 701 q 242 989 242 900 l 381 996 q 384 973 383 985 q 385 946 385 961 q 376 837 385 903 q 357 688 368 771 q 334 511 346 604 q 314 322 322 418 q 306 132 306 225 q 308 91 306 101 q 319 69 310 81 l 167 29 m 97 -11 q 127 44 108 21 q 174 83 146 67 q 239 107 201 99 q 322 117 276 115 q 478 122 413 119 q 592 129 543 125 q 683 141 640 133 q 769 158 725 149 q 715 33 760 78 q 599 -11 669 -11 q 481 -2 560 -11 q 304 7 403 7 q 194 3 246 7 q 97 -11 142 -1 m 125 429 q 122 449 124 436 q 119 469 119 461 q 137 534 119 510 q 192 570 154 558 q 290 582 231 582 q 348 581 315 582 q 413 579 381 581 q 469 578 446 578 q 571 588 531 578 q 638 618 611 597 q 642 595 640 608 q 644 567 644 582 q 621 495 644 518 q 539 472 597 472 q 494 473 526 472 q 417 474 461 474 q 300 469 353 474 q 204 454 247 464 q 125 429 161 444 m 300 946 q 220 951 247 946 q 184 972 193 957 q 175 1018 175 988 q 178 1057 175 1038 q 186 1090 181 1076 q 331 1076 257 1081 q 474 1071 404 1071 q 653 1079 565 1071 q 818 1101 742 1088 q 772 1012 808 1044 q 663 967 735 979 q 566 956 626 961 q 435 949 506 951 q 300 946 365 946 m 783 1250 q 769 1221 782 1235 q 740 1204 756 1207 q 678 1282 717 1240 q 594 1360 640 1324 q 497 1414 547 1396 q 511 1472 499 1449 q 538 1508 524 1494 q 563 1528 553 1522 q 651 1459 607 1507 q 730 1355 694 1411 q 783 1250 765 1299 m 529 1250 q 514 1222 528 1235 q 485 1204 500 1208 q 423 1283 461 1240 q 339 1361 385 1325 q 243 1414 293 1397 q 257 1473 244 1450 q 285 1509 269 1496 q 308 1528 300 1522 q 394 1460 351 1507 q 474 1358 438 1414 q 529 1250 510 1301 z "},"Ë":{"ha":832,"x_min":97,"x_max":818,"o":"m 167 29 q 157 76 161 50 q 153 128 153 101 q 162 247 153 174 q 184 411 171 321 q 210 601 197 501 q 233 801 224 701 q 242 989 242 900 l 381 996 q 384 973 383 985 q 385 946 385 961 q 376 837 385 903 q 357 688 368 771 q 334 511 346 604 q 314 322 322 418 q 306 132 306 225 q 308 91 306 101 q 319 69 310 81 l 167 29 m 97 -11 q 127 44 108 21 q 174 83 146 67 q 239 107 201 99 q 322 117 276 115 q 478 122 413 119 q 592 129 543 125 q 683 141 640 133 q 769 158 725 149 q 715 33 760 78 q 599 -11 669 -11 q 481 -2 560 -11 q 304 7 403 7 q 194 3 246 7 q 97 -11 142 -1 m 125 429 q 122 449 124 436 q 119 469 119 461 q 137 534 119 510 q 192 570 154 558 q 290 582 231 582 q 348 581 315 582 q 413 579 381 581 q 469 578 446 578 q 571 588 531 578 q 638 618 611 597 q 642 595 640 608 q 644 567 644 582 q 621 495 644 518 q 539 472 597 472 q 494 473 526 472 q 417 474 461 474 q 300 469 353 474 q 204 454 247 464 q 125 429 161 444 m 300 946 q 220 951 247 946 q 184 972 193 957 q 175 1018 175 988 q 178 1057 175 1038 q 186 1090 181 1076 q 331 1076 257 1081 q 474 1071 404 1071 q 653 1079 565 1071 q 818 1101 742 1088 q 772 1012 808 1044 q 663 967 735 979 q 566 956 626 961 q 435 949 506 951 q 300 946 365 946 m 440 1272 q 405 1263 424 1267 q 368 1260 386 1260 q 331 1266 350 1260 q 300 1287 313 1272 q 288 1326 288 1301 q 295 1370 288 1349 q 311 1414 303 1392 q 347 1424 328 1419 q 383 1428 365 1428 q 420 1422 401 1428 q 451 1401 439 1415 q 464 1360 464 1386 q 456 1317 464 1338 q 440 1272 447 1296 m 704 1272 q 669 1263 688 1267 q 632 1260 650 1260 q 595 1266 614 1260 q 564 1287 576 1272 q 551 1326 551 1301 q 559 1370 551 1349 q 575 1414 567 1392 q 610 1424 592 1419 q 647 1428 629 1428 q 684 1422 665 1428 q 715 1401 703 1415 q 728 1360 728 1386 q 719 1317 728 1338 q 704 1272 711 1296 z "},"Ė":{"ha":832,"x_min":97,"x_max":818,"o":"m 167 29 q 157 76 161 50 q 153 128 153 101 q 162 247 153 174 q 184 411 171 321 q 210 601 197 501 q 233 801 224 701 q 242 989 242 900 l 381 996 q 384 973 383 985 q 385 946 385 961 q 376 837 385 903 q 357 688 368 771 q 334 511 346 604 q 314 322 322 418 q 306 132 306 225 q 308 91 306 101 q 319 69 310 81 l 167 29 m 97 -11 q 127 44 108 21 q 174 83 146 67 q 239 107 201 99 q 322 117 276 115 q 478 122 413 119 q 592 129 543 125 q 683 141 640 133 q 769 158 725 149 q 715 33 760 78 q 599 -11 669 -11 q 481 -2 560 -11 q 304 7 403 7 q 194 3 246 7 q 97 -11 142 -1 m 125 429 q 122 449 124 436 q 119 469 119 461 q 137 534 119 510 q 192 570 154 558 q 290 582 231 582 q 348 581 315 582 q 413 579 381 581 q 469 578 446 578 q 571 588 531 578 q 638 618 611 597 q 642 595 640 608 q 644 567 644 582 q 621 495 644 518 q 539 472 597 472 q 494 473 526 472 q 417 474 461 474 q 300 469 353 474 q 204 454 247 464 q 125 429 161 444 m 300 946 q 220 951 247 946 q 184 972 193 957 q 175 1018 175 988 q 178 1057 175 1038 q 186 1090 181 1076 q 331 1076 257 1081 q 474 1071 404 1071 q 653 1079 565 1071 q 818 1101 742 1088 q 772 1012 808 1044 q 663 967 735 979 q 566 956 626 961 q 435 949 506 951 q 300 946 365 946 m 581 1269 q 544 1260 564 1264 q 506 1256 525 1256 q 467 1262 486 1256 q 434 1284 447 1268 q 421 1326 421 1300 q 429 1372 421 1350 q 446 1418 438 1394 q 483 1428 463 1425 q 521 1432 503 1432 q 560 1426 540 1432 q 592 1404 579 1419 q 606 1361 606 1389 q 597 1316 606 1339 q 581 1269 589 1293 z "},"Ẹ":{"ha":832,"x_min":97,"x_max":818,"o":"m 167 29 q 157 76 161 50 q 153 128 153 101 q 162 247 153 174 q 184 411 171 321 q 210 601 197 501 q 233 801 224 701 q 242 989 242 900 l 381 996 q 384 973 383 985 q 385 946 385 961 q 376 837 385 903 q 357 688 368 771 q 334 511 346 604 q 314 322 322 418 q 306 132 306 225 q 308 91 306 101 q 319 69 310 81 l 167 29 m 97 -11 q 127 44 108 21 q 174 83 146 67 q 239 107 201 99 q 322 117 276 115 q 478 122 413 119 q 592 129 543 125 q 683 141 640 133 q 769 158 725 149 q 715 33 760 78 q 599 -11 669 -11 q 481 -2 560 -11 q 304 7 403 7 q 194 3 246 7 q 97 -11 142 -1 m 125 429 q 122 449 124 436 q 119 469 119 461 q 137 534 119 510 q 192 570 154 558 q 290 582 231 582 q 348 581 315 582 q 413 579 381 581 q 469 578 446 578 q 571 588 531 578 q 638 618 611 597 q 642 595 640 608 q 644 567 644 582 q 621 495 644 518 q 539 472 597 472 q 494 473 526 472 q 417 474 461 474 q 300 469 353 474 q 204 454 247 464 q 125 429 161 444 m 300 946 q 220 951 247 946 q 184 972 193 957 q 175 1018 175 988 q 178 1057 175 1038 q 186 1090 181 1076 q 331 1076 257 1081 q 474 1071 404 1071 q 653 1079 565 1071 q 818 1101 742 1088 q 772 1012 808 1044 q 663 967 735 979 q 566 956 626 961 q 435 949 506 951 q 300 946 365 946 m 478 -274 q 442 -283 461 -279 q 403 -287 422 -287 q 364 -281 383 -287 q 331 -259 344 -275 q 318 -217 318 -243 q 326 -171 318 -193 q 343 -125 335 -149 q 380 -115 360 -118 q 418 -111 400 -111 q 457 -117 438 -111 q 490 -139 476 -124 q 503 -182 503 -154 q 494 -227 503 -204 q 478 -274 486 -250 z "},"È":{"ha":832,"x_min":97,"x_max":818,"o":"m 167 29 q 157 76 161 50 q 153 128 153 101 q 162 247 153 174 q 184 411 171 321 q 210 601 197 501 q 233 801 224 701 q 242 989 242 900 l 381 996 q 384 973 383 985 q 385 946 385 961 q 376 837 385 903 q 357 688 368 771 q 334 511 346 604 q 314 322 322 418 q 306 132 306 225 q 308 91 306 101 q 319 69 310 81 l 167 29 m 97 -11 q 127 44 108 21 q 174 83 146 67 q 239 107 201 99 q 322 117 276 115 q 478 122 413 119 q 592 129 543 125 q 683 141 640 133 q 769 158 725 149 q 715 33 760 78 q 599 -11 669 -11 q 481 -2 560 -11 q 304 7 403 7 q 194 3 246 7 q 97 -11 142 -1 m 125 429 q 122 449 124 436 q 119 469 119 461 q 137 534 119 510 q 192 570 154 558 q 290 582 231 582 q 348 581 315 582 q 413 579 381 581 q 469 578 446 578 q 571 588 531 578 q 638 618 611 597 q 642 595 640 608 q 644 567 644 582 q 621 495 644 518 q 539 472 597 472 q 494 473 526 472 q 417 474 461 474 q 300 469 353 474 q 204 454 247 464 q 125 429 161 444 m 300 946 q 220 951 247 946 q 184 972 193 957 q 175 1018 175 988 q 178 1057 175 1038 q 186 1090 181 1076 q 331 1076 257 1081 q 474 1071 404 1071 q 653 1079 565 1071 q 818 1101 742 1088 q 772 1012 808 1044 q 663 967 735 979 q 566 956 626 961 q 435 949 506 951 q 300 946 365 946 m 679 1250 q 665 1222 678 1235 q 635 1204 651 1208 q 562 1282 607 1240 q 462 1360 517 1324 q 347 1414 407 1396 q 361 1472 349 1450 q 389 1508 374 1494 q 414 1528 404 1522 q 519 1460 467 1507 q 615 1356 572 1413 q 679 1250 658 1299 z "},"Ẻ":{"ha":832,"x_min":97,"x_max":818,"o":"m 167 29 q 157 76 161 50 q 153 128 153 101 q 162 247 153 174 q 184 411 171 321 q 210 601 197 501 q 233 801 224 701 q 242 989 242 900 l 381 996 q 384 973 383 985 q 385 946 385 961 q 376 837 385 903 q 357 688 368 771 q 334 511 346 604 q 314 322 322 418 q 306 132 306 225 q 308 91 306 101 q 319 69 310 81 l 167 29 m 97 -11 q 127 44 108 21 q 174 83 146 67 q 239 107 201 99 q 322 117 276 115 q 478 122 413 119 q 592 129 543 125 q 683 141 640 133 q 769 158 725 149 q 715 33 760 78 q 599 -11 669 -11 q 481 -2 560 -11 q 304 7 403 7 q 194 3 246 7 q 97 -11 142 -1 m 125 429 q 122 449 124 436 q 119 469 119 461 q 137 534 119 510 q 192 570 154 558 q 290 582 231 582 q 348 581 315 582 q 413 579 381 581 q 469 578 446 578 q 571 588 531 578 q 638 618 611 597 q 642 595 640 608 q 644 567 644 582 q 621 495 644 518 q 539 472 597 472 q 494 473 526 472 q 417 474 461 474 q 300 469 353 474 q 204 454 247 464 q 125 429 161 444 m 300 946 q 220 951 247 946 q 184 972 193 957 q 175 1018 175 988 q 178 1057 175 1038 q 186 1090 181 1076 q 331 1076 257 1081 q 474 1071 404 1071 q 653 1079 565 1071 q 818 1101 742 1088 q 772 1012 808 1044 q 663 967 735 979 q 566 956 626 961 q 435 949 506 951 q 300 946 365 946 m 447 1256 q 526 1335 497 1292 q 554 1421 554 1379 q 531 1483 554 1458 q 472 1507 508 1507 q 415 1496 444 1507 q 358 1464 386 1485 q 336 1489 344 1475 q 328 1517 328 1503 q 410 1575 365 1554 q 500 1596 456 1596 q 588 1576 550 1596 q 647 1522 625 1557 q 668 1443 668 1488 q 619 1305 668 1368 q 483 1201 571 1242 l 447 1256 z "},"Ȇ":{"ha":832,"x_min":97,"x_max":818,"o":"m 167 29 q 157 76 161 50 q 153 128 153 101 q 162 247 153 174 q 184 411 171 321 q 210 601 197 501 q 233 801 224 701 q 242 989 242 900 l 381 996 q 384 973 383 985 q 385 946 385 961 q 376 837 385 903 q 357 688 368 771 q 334 511 346 604 q 314 322 322 418 q 306 132 306 225 q 308 91 306 101 q 319 69 310 81 l 167 29 m 97 -11 q 127 44 108 21 q 174 83 146 67 q 239 107 201 99 q 322 117 276 115 q 478 122 413 119 q 592 129 543 125 q 683 141 640 133 q 769 158 725 149 q 715 33 760 78 q 599 -11 669 -11 q 481 -2 560 -11 q 304 7 403 7 q 194 3 246 7 q 97 -11 142 -1 m 125 429 q 122 449 124 436 q 119 469 119 461 q 137 534 119 510 q 192 570 154 558 q 290 582 231 582 q 348 581 315 582 q 413 579 381 581 q 469 578 446 578 q 571 588 531 578 q 638 618 611 597 q 642 595 640 608 q 644 567 644 582 q 621 495 644 518 q 539 472 597 472 q 494 473 526 472 q 417 474 461 474 q 300 469 353 474 q 204 454 247 464 q 125 429 161 444 m 300 946 q 220 951 247 946 q 184 972 193 957 q 175 1018 175 988 q 178 1057 175 1038 q 186 1090 181 1076 q 331 1076 257 1081 q 474 1071 404 1071 q 653 1079 565 1071 q 818 1101 742 1088 q 772 1012 808 1044 q 663 967 735 979 q 566 956 626 961 q 435 949 506 951 q 300 946 365 946 m 703 1279 q 683 1265 693 1271 q 661 1260 672 1260 q 631 1278 640 1260 q 600 1349 624 1322 q 539 1375 576 1375 q 478 1358 508 1375 q 426 1312 447 1342 q 401 1239 404 1282 q 365 1253 382 1239 q 337 1288 347 1267 q 326 1331 326 1310 q 370 1415 340 1382 q 440 1463 400 1447 q 525 1479 481 1479 q 610 1460 569 1479 q 677 1398 651 1442 q 703 1279 703 1354 z "},"Ē":{"ha":832,"x_min":97,"x_max":818,"o":"m 167 29 q 157 76 161 50 q 153 128 153 101 q 162 247 153 174 q 184 411 171 321 q 210 601 197 501 q 233 801 224 701 q 242 989 242 900 l 381 996 q 384 973 383 985 q 385 946 385 961 q 376 837 385 903 q 357 688 368 771 q 334 511 346 604 q 314 322 322 418 q 306 132 306 225 q 308 91 306 101 q 319 69 310 81 l 167 29 m 97 -11 q 127 44 108 21 q 174 83 146 67 q 239 107 201 99 q 322 117 276 115 q 478 122 413 119 q 592 129 543 125 q 683 141 640 133 q 769 158 725 149 q 715 33 760 78 q 599 -11 669 -11 q 481 -2 560 -11 q 304 7 403 7 q 194 3 246 7 q 97 -11 142 -1 m 125 429 q 122 449 124 436 q 119 469 119 461 q 137 534 119 510 q 192 570 154 558 q 290 582 231 582 q 348 581 315 582 q 413 579 381 581 q 469 578 446 578 q 571 588 531 578 q 638 618 611 597 q 642 595 640 608 q 644 567 644 582 q 621 495 644 518 q 539 472 597 472 q 494 473 526 472 q 417 474 461 474 q 300 469 353 474 q 204 454 247 464 q 125 429 161 444 m 300 946 q 220 951 247 946 q 184 972 193 957 q 175 1018 175 988 q 178 1057 175 1038 q 186 1090 181 1076 q 331 1076 257 1081 q 474 1071 404 1071 q 653 1079 565 1071 q 818 1101 742 1088 q 772 1012 808 1044 q 663 967 735 979 q 566 956 626 961 q 435 949 506 951 q 300 946 365 946 m 396 1308 q 325 1336 340 1308 q 310 1417 310 1364 q 311 1429 310 1424 q 314 1442 313 1435 q 378 1432 347 1435 q 439 1429 408 1429 q 531 1438 486 1429 q 632 1446 576 1446 q 703 1418 688 1446 q 718 1338 718 1390 q 717 1326 718 1332 q 714 1313 717 1319 q 651 1322 681 1319 q 589 1325 621 1325 q 497 1317 542 1325 q 396 1308 453 1308 z "},"Ę":{"ha":832,"x_min":97,"x_max":818,"o":"m 167 29 q 157 76 161 50 q 153 128 153 101 q 162 247 153 174 q 184 411 171 321 q 210 601 197 501 q 233 801 224 701 q 242 989 242 900 l 381 996 q 384 973 383 985 q 385 946 385 961 q 376 837 385 903 q 357 688 368 771 q 334 511 346 604 q 314 322 322 418 q 306 132 306 225 q 308 91 306 101 q 319 69 310 81 l 167 29 m 97 -11 q 127 44 108 21 q 174 83 146 67 q 239 107 201 99 q 322 117 276 115 q 478 122 413 119 q 592 129 543 125 q 683 141 640 133 q 769 158 725 149 q 715 33 760 78 q 599 -11 669 -11 q 481 -2 560 -11 q 304 7 403 7 q 194 3 246 7 q 97 -11 142 -1 m 125 429 q 122 449 124 436 q 119 469 119 461 q 137 534 119 510 q 192 570 154 558 q 290 582 231 582 q 348 581 315 582 q 413 579 381 581 q 469 578 446 578 q 571 588 531 578 q 638 618 611 597 q 642 595 640 608 q 644 567 644 582 q 621 495 644 518 q 539 472 597 472 q 494 473 526 472 q 417 474 461 474 q 300 469 353 474 q 204 454 247 464 q 125 429 161 444 m 300 946 q 220 951 247 946 q 184 972 193 957 q 175 1018 175 988 q 178 1057 175 1038 q 186 1090 181 1076 q 331 1076 257 1081 q 474 1071 404 1071 q 653 1079 565 1071 q 818 1101 742 1088 q 772 1012 808 1044 q 663 967 735 979 q 566 956 626 961 q 435 949 506 951 q 300 946 365 946 m 722 -278 q 763 -325 763 -292 q 663 -407 719 -378 q 544 -436 606 -436 q 427 -389 471 -436 q 383 -262 383 -342 q 445 -99 383 -172 q 629 28 507 -25 l 663 0 q 535 -116 578 -57 q 493 -236 493 -175 q 519 -312 493 -285 q 588 -340 544 -340 q 657 -324 621 -340 q 722 -278 693 -307 z "},"Ẽ":{"ha":832,"x_min":97,"x_max":818,"o":"m 167 29 q 157 76 161 50 q 153 128 153 101 q 162 247 153 174 q 184 411 171 321 q 210 601 197 501 q 233 801 224 701 q 242 989 242 900 l 381 996 q 384 973 383 985 q 385 946 385 961 q 376 837 385 903 q 357 688 368 771 q 334 511 346 604 q 314 322 322 418 q 306 132 306 225 q 308 91 306 101 q 319 69 310 81 l 167 29 m 97 -11 q 127 44 108 21 q 174 83 146 67 q 239 107 201 99 q 322 117 276 115 q 478 122 413 119 q 592 129 543 125 q 683 141 640 133 q 769 158 725 149 q 715 33 760 78 q 599 -11 669 -11 q 481 -2 560 -11 q 304 7 403 7 q 194 3 246 7 q 97 -11 142 -1 m 125 429 q 122 449 124 436 q 119 469 119 461 q 137 534 119 510 q 192 570 154 558 q 290 582 231 582 q 348 581 315 582 q 413 579 381 581 q 469 578 446 578 q 571 588 531 578 q 638 618 611 597 q 642 595 640 608 q 644 567 644 582 q 621 495 644 518 q 539 472 597 472 q 494 473 526 472 q 417 474 461 474 q 300 469 353 474 q 204 454 247 464 q 125 429 161 444 m 300 946 q 220 951 247 946 q 184 972 193 957 q 175 1018 175 988 q 178 1057 175 1038 q 186 1090 181 1076 q 331 1076 257 1081 q 474 1071 404 1071 q 653 1079 565 1071 q 818 1101 742 1088 q 772 1012 808 1044 q 663 967 735 979 q 566 956 626 961 q 435 949 506 951 q 300 946 365 946 m 329 1292 q 303 1298 315 1292 q 293 1315 292 1304 q 323 1401 303 1369 q 369 1444 343 1432 q 421 1457 394 1457 q 488 1447 456 1457 q 549 1427 519 1438 q 603 1417 578 1417 q 661 1431 638 1417 q 697 1464 685 1446 q 721 1458 711 1464 q 733 1440 731 1451 q 706 1355 726 1386 q 658 1311 685 1324 q 606 1299 632 1299 q 540 1309 572 1299 q 478 1329 507 1319 q 424 1339 450 1339 q 365 1324 389 1339 q 329 1292 342 1310 z "},"Ə":{"ha":953,"x_min":68,"x_max":863,"o":"m 538 1117 q 703 1055 631 1117 q 819 885 776 993 q 863 642 863 778 q 823 374 863 497 q 712 160 783 251 q 545 17 640 68 q 339 -35 450 -35 q 134 35 200 -35 q 68 247 68 106 q 101 390 68 324 q 191 505 133 456 q 326 582 249 554 q 494 610 404 610 q 619 603 558 610 q 731 585 679 596 l 725 521 l 642 521 q 426 482 519 521 q 280 373 332 443 q 228 208 228 303 q 263 95 228 135 q 364 56 299 56 q 484 92 429 56 q 583 191 539 129 q 657 331 626 253 q 703 492 688 408 q 719 651 719 575 q 666 913 719 822 q 507 1003 613 1003 q 326 955 410 1003 q 185 813 243 907 q 129 826 146 817 q 113 854 113 835 q 231 1006 169 949 q 368 1090 293 1064 q 538 1117 443 1117 z "},"F":{"ha":722,"x_min":118,"x_max":789,"o":"m 274 -24 q 179 4 211 -24 q 147 96 147 32 q 156 222 147 146 q 179 392 165 299 q 207 589 193 486 q 231 794 221 692 q 240 989 240 896 l 379 996 q 383 973 382 985 q 383 949 383 961 q 372 803 383 892 q 344 603 360 714 q 316 369 328 493 q 304 115 304 244 q 306 49 304 83 q 313 -21 307 15 q 290 -23 299 -22 q 274 -24 282 -24 m 121 429 q 119 449 119 439 q 118 469 118 460 q 142 542 118 518 q 204 574 165 567 q 290 582 243 582 q 345 581 313 582 q 411 579 378 581 q 465 578 444 578 q 560 585 514 578 q 639 618 607 593 q 641 601 640 610 q 642 582 642 592 q 618 497 642 521 q 554 472 594 472 q 489 473 519 472 q 431 474 458 474 q 334 472 386 474 q 228 460 282 469 q 121 429 174 451 m 249 946 q 188 951 210 946 q 156 972 165 957 q 146 1017 146 988 q 149 1060 146 1040 q 157 1090 153 1079 q 299 1076 226 1081 q 444 1071 372 1071 q 623 1078 535 1071 q 789 1101 711 1086 q 735 1006 779 1035 q 632 967 692 976 q 515 954 583 958 q 376 948 447 950 q 249 946 306 946 z "},"G":{"ha":954,"x_min":76,"x_max":864,"o":"m 728 365 q 656 194 706 267 q 538 81 606 121 q 389 40 469 40 q 225 94 296 40 q 115 243 154 147 q 76 465 76 339 q 115 724 76 606 q 224 932 154 843 q 386 1070 293 1021 q 589 1119 479 1119 q 790 1055 715 1119 q 864 879 864 990 q 839 770 864 818 q 769 695 814 722 q 667 668 725 668 q 569 690 615 668 q 496 749 524 711 q 531 741 514 743 q 567 739 549 739 q 688 783 640 739 q 736 896 736 828 q 693 999 736 958 q 582 1039 650 1039 q 447 992 511 1039 q 333 863 383 944 q 254 678 283 782 q 225 458 225 574 q 251 290 225 363 q 326 178 278 218 q 438 138 374 138 q 555 177 503 138 q 637 284 607 217 q 667 436 667 351 q 663 506 667 471 l 728 365 m 389 -376 q 557 -283 493 -376 q 649 -23 621 -189 q 678 361 678 143 q 674 434 678 397 q 663 506 669 471 q 688 508 672 507 q 714 508 704 508 q 803 481 779 508 q 828 389 828 453 q 814 152 828 272 q 768 -77 800 32 q 684 -272 736 -186 q 555 -407 632 -357 q 374 -457 478 -457 q 214 -419 275 -457 q 125 -324 153 -382 q 97 -206 97 -265 q 116 -111 97 -153 q 167 -46 135 -69 q 240 -22 200 -22 q 276 -28 257 -22 q 313 -46 294 -33 q 272 -120 290 -76 q 253 -221 253 -164 q 283 -330 253 -283 q 389 -376 314 -376 z "},"Ğ":{"ha":954,"x_min":76,"x_max":864,"o":"m 728 365 q 656 194 706 267 q 538 81 606 121 q 389 40 469 40 q 225 94 296 40 q 115 243 154 147 q 76 465 76 339 q 115 724 76 606 q 224 932 154 843 q 386 1070 293 1021 q 589 1119 479 1119 q 790 1055 715 1119 q 864 879 864 990 q 839 770 864 818 q 769 695 814 722 q 667 668 725 668 q 569 690 615 668 q 496 749 524 711 q 531 741 514 743 q 567 739 549 739 q 688 783 640 739 q 736 896 736 828 q 693 999 736 958 q 582 1039 650 1039 q 447 992 511 1039 q 333 863 383 944 q 254 678 283 782 q 225 458 225 574 q 251 290 225 363 q 326 178 278 218 q 438 138 374 138 q 555 177 503 138 q 637 284 607 217 q 667 436 667 351 q 663 506 667 471 l 728 365 m 389 -376 q 557 -283 493 -376 q 649 -23 621 -189 q 678 361 678 143 q 674 434 678 397 q 663 506 669 471 q 688 508 672 507 q 714 508 704 508 q 803 481 779 508 q 828 389 828 453 q 814 152 828 272 q 768 -77 800 32 q 684 -272 736 -186 q 555 -407 632 -357 q 374 -457 478 -457 q 214 -419 275 -457 q 125 -324 153 -382 q 97 -206 97 -265 q 116 -111 97 -153 q 167 -46 135 -69 q 240 -22 200 -22 q 276 -28 257 -22 q 313 -46 294 -33 q 272 -120 290 -76 q 253 -221 253 -164 q 283 -330 253 -283 q 389 -376 314 -376 m 363 1439 q 383 1453 372 1447 q 404 1458 393 1458 q 435 1440 425 1458 q 465 1369 442 1396 q 526 1343 489 1343 q 588 1360 557 1343 q 640 1407 618 1376 q 664 1479 661 1438 q 701 1465 683 1479 q 728 1431 718 1451 q 739 1388 739 1410 q 695 1303 725 1336 q 626 1255 665 1271 q 540 1239 586 1239 q 455 1258 496 1239 q 388 1320 414 1276 q 363 1439 363 1364 z "},"Ǧ":{"ha":954,"x_min":76,"x_max":864,"o":"m 728 365 q 656 194 706 267 q 538 81 606 121 q 389 40 469 40 q 225 94 296 40 q 115 243 154 147 q 76 465 76 339 q 115 724 76 606 q 224 932 154 843 q 386 1070 293 1021 q 589 1119 479 1119 q 790 1055 715 1119 q 864 879 864 990 q 839 770 864 818 q 769 695 814 722 q 667 668 725 668 q 569 690 615 668 q 496 749 524 711 q 531 741 514 743 q 567 739 549 739 q 688 783 640 739 q 736 896 736 828 q 693 999 736 958 q 582 1039 650 1039 q 447 992 511 1039 q 333 863 383 944 q 254 678 283 782 q 225 458 225 574 q 251 290 225 363 q 326 178 278 218 q 438 138 374 138 q 555 177 503 138 q 637 284 607 217 q 667 436 667 351 q 663 506 667 471 l 728 365 m 389 -376 q 557 -283 493 -376 q 649 -23 621 -189 q 678 361 678 143 q 674 434 678 397 q 663 506 669 471 q 688 508 672 507 q 714 508 704 508 q 803 481 779 508 q 828 389 828 453 q 814 152 828 272 q 768 -77 800 32 q 684 -272 736 -186 q 555 -407 632 -357 q 374 -457 478 -457 q 214 -419 275 -457 q 125 -324 153 -382 q 97 -206 97 -265 q 116 -111 97 -153 q 167 -46 135 -69 q 240 -22 200 -22 q 276 -28 257 -22 q 313 -46 294 -33 q 272 -120 290 -76 q 253 -221 253 -164 q 283 -330 253 -283 q 389 -376 314 -376 m 713 1528 q 737 1509 722 1522 q 764 1473 751 1496 q 778 1414 776 1450 q 635 1310 697 1363 q 529 1204 574 1257 q 485 1226 500 1210 q 459 1269 469 1243 q 435 1331 449 1296 q 396 1406 421 1365 q 325 1490 371 1446 q 355 1501 339 1497 q 397 1506 371 1506 q 465 1485 439 1506 q 508 1408 490 1464 q 540 1250 525 1353 l 511 1296 q 559 1372 533 1336 q 622 1446 585 1408 q 713 1528 658 1483 z "},"Ĝ":{"ha":954,"x_min":76,"x_max":864,"o":"m 728 365 q 656 194 706 267 q 538 81 606 121 q 389 40 469 40 q 225 94 296 40 q 115 243 154 147 q 76 465 76 339 q 115 724 76 606 q 224 932 154 843 q 386 1070 293 1021 q 589 1119 479 1119 q 790 1055 715 1119 q 864 879 864 990 q 839 770 864 818 q 769 695 814 722 q 667 668 725 668 q 569 690 615 668 q 496 749 524 711 q 531 741 514 743 q 567 739 549 739 q 688 783 640 739 q 736 896 736 828 q 693 999 736 958 q 582 1039 650 1039 q 447 992 511 1039 q 333 863 383 944 q 254 678 283 782 q 225 458 225 574 q 251 290 225 363 q 326 178 278 218 q 438 138 374 138 q 555 177 503 138 q 637 284 607 217 q 667 436 667 351 q 663 506 667 471 l 728 365 m 389 -376 q 557 -283 493 -376 q 649 -23 621 -189 q 678 361 678 143 q 674 434 678 397 q 663 506 669 471 q 688 508 672 507 q 714 508 704 508 q 803 481 779 508 q 828 389 828 453 q 814 152 828 272 q 768 -77 800 32 q 684 -272 736 -186 q 555 -407 632 -357 q 374 -457 478 -457 q 214 -419 275 -457 q 125 -324 153 -382 q 97 -206 97 -265 q 116 -111 97 -153 q 167 -46 135 -69 q 240 -22 200 -22 q 276 -28 257 -22 q 313 -46 294 -33 q 272 -120 290 -76 q 253 -221 253 -164 q 283 -330 253 -283 q 389 -376 314 -376 m 385 1204 q 361 1224 376 1211 q 333 1260 346 1238 q 319 1318 321 1283 q 463 1423 400 1369 q 568 1528 525 1476 q 613 1506 597 1522 q 638 1463 628 1489 q 663 1401 649 1436 q 701 1326 676 1367 q 772 1242 726 1286 q 742 1231 758 1236 q 700 1226 726 1226 q 633 1247 658 1226 q 590 1324 607 1268 q 557 1482 574 1379 l 586 1436 q 538 1360 564 1396 q 476 1286 513 1324 q 385 1204 440 1249 z "},"Ģ":{"ha":954,"x_min":76,"x_max":864,"o":"m 728 365 q 656 194 706 267 q 538 81 606 121 q 389 40 469 40 q 225 94 296 40 q 115 243 154 147 q 76 465 76 339 q 115 724 76 606 q 224 932 154 843 q 386 1070 293 1021 q 589 1119 479 1119 q 790 1055 715 1119 q 864 879 864 990 q 839 770 864 818 q 769 695 814 722 q 667 668 725 668 q 569 690 615 668 q 496 749 524 711 q 531 741 514 743 q 567 739 549 739 q 688 783 640 739 q 736 896 736 828 q 693 999 736 958 q 582 1039 650 1039 q 447 992 511 1039 q 333 863 383 944 q 254 678 283 782 q 225 458 225 574 q 251 290 225 363 q 326 178 278 218 q 438 138 374 138 q 555 177 503 138 q 637 284 607 217 q 667 436 667 351 q 663 506 667 471 l 728 365 m 389 -376 q 557 -283 493 -376 q 649 -23 621 -189 q 678 361 678 143 q 674 434 678 397 q 663 506 669 471 q 688 508 672 507 q 714 508 704 508 q 803 481 779 508 q 828 389 828 453 q 814 152 828 272 q 768 -77 800 32 q 684 -272 736 -186 q 555 -407 632 -357 q 374 -457 478 -457 q 214 -419 275 -457 q 125 -324 153 -382 q 97 -206 97 -265 q 116 -111 97 -153 q 167 -46 135 -69 q 240 -22 200 -22 q 276 -28 257 -22 q 313 -46 294 -33 q 272 -120 290 -76 q 253 -221 253 -164 q 283 -330 253 -283 q 389 -376 314 -376 m 631 1301 q 592 1292 614 1296 q 551 1288 571 1288 q 515 1294 532 1288 q 486 1317 497 1300 q 475 1363 475 1333 q 524 1503 475 1435 q 672 1624 574 1571 l 701 1588 q 635 1495 658 1546 q 613 1392 613 1444 q 617 1347 613 1369 q 631 1301 622 1324 z "},"Ġ":{"ha":954,"x_min":76,"x_max":864,"o":"m 728 365 q 656 194 706 267 q 538 81 606 121 q 389 40 469 40 q 225 94 296 40 q 115 243 154 147 q 76 465 76 339 q 115 724 76 606 q 224 932 154 843 q 386 1070 293 1021 q 589 1119 479 1119 q 790 1055 715 1119 q 864 879 864 990 q 839 770 864 818 q 769 695 814 722 q 667 668 725 668 q 569 690 615 668 q 496 749 524 711 q 531 741 514 743 q 567 739 549 739 q 688 783 640 739 q 736 896 736 828 q 693 999 736 958 q 582 1039 650 1039 q 447 992 511 1039 q 333 863 383 944 q 254 678 283 782 q 225 458 225 574 q 251 290 225 363 q 326 178 278 218 q 438 138 374 138 q 555 177 503 138 q 637 284 607 217 q 667 436 667 351 q 663 506 667 471 l 728 365 m 389 -376 q 557 -283 493 -376 q 649 -23 621 -189 q 678 361 678 143 q 674 434 678 397 q 663 506 669 471 q 688 508 672 507 q 714 508 704 508 q 803 481 779 508 q 828 389 828 453 q 814 152 828 272 q 768 -77 800 32 q 684 -272 736 -186 q 555 -407 632 -357 q 374 -457 478 -457 q 214 -419 275 -457 q 125 -324 153 -382 q 97 -206 97 -265 q 116 -111 97 -153 q 167 -46 135 -69 q 240 -22 200 -22 q 276 -28 257 -22 q 313 -46 294 -33 q 272 -120 290 -76 q 253 -221 253 -164 q 283 -330 253 -283 q 389 -376 314 -376 m 618 1269 q 582 1260 601 1264 q 543 1256 563 1256 q 504 1262 524 1256 q 472 1284 485 1268 q 458 1326 458 1300 q 467 1372 458 1350 q 483 1418 475 1394 q 520 1428 500 1425 q 558 1432 540 1432 q 597 1426 578 1432 q 630 1404 617 1419 q 643 1361 643 1389 q 635 1316 643 1339 q 618 1269 626 1293 z "},"H":{"ha":1099,"x_min":125,"x_max":978,"o":"m 800 604 q 783 548 796 569 q 750 514 769 526 q 709 497 731 501 q 667 492 688 492 q 568 493 619 492 q 465 494 517 494 q 295 486 381 494 q 128 450 210 478 q 126 476 126 460 q 125 503 125 493 q 150 570 125 550 q 217 595 175 590 q 311 600 260 600 q 407 600 335 600 q 583 601 479 600 q 800 604 686 603 m 978 950 q 969 828 978 906 q 946 654 960 750 q 918 458 932 558 q 895 267 904 358 q 886 108 886 176 q 906 -43 886 3 q 813 8 847 -22 q 763 80 778 38 q 749 179 749 122 q 757 294 749 222 q 777 454 765 365 q 801 639 789 543 q 821 828 813 735 q 829 1000 829 921 q 828 1058 829 1029 q 824 1114 826 1088 q 909 1099 878 1111 q 955 1065 940 1086 q 974 1015 969 1043 q 978 950 978 986 m 396 950 q 387 828 396 906 q 364 654 378 750 q 336 458 350 558 q 313 267 322 358 q 304 108 304 176 q 309 18 304 57 q 324 -43 314 -21 q 231 8 265 -22 q 182 80 197 38 q 167 179 167 122 q 175 294 167 222 q 195 454 183 365 q 219 639 207 543 q 239 828 231 735 q 247 1000 247 921 q 246 1058 247 1029 q 242 1114 244 1088 q 327 1099 296 1111 q 373 1065 358 1086 q 392 1015 388 1043 q 396 950 396 986 z "},"Ħ":{"ha":1099,"x_min":125,"x_max":1043,"o":"m 800 604 q 783 548 796 569 q 750 514 769 526 q 709 497 731 501 q 667 492 688 492 q 568 493 619 492 q 465 494 517 494 q 295 486 381 494 q 128 450 210 478 q 126 476 126 460 q 125 503 125 493 q 150 570 125 550 q 217 595 175 590 q 311 600 260 600 q 407 600 335 600 q 583 601 479 600 q 800 604 686 603 m 978 950 q 969 828 978 906 q 946 654 960 750 q 918 458 932 558 q 895 267 904 358 q 886 108 886 176 q 906 -43 886 3 q 813 8 847 -22 q 763 80 778 38 q 749 179 749 122 q 757 294 749 222 q 777 454 765 365 q 801 639 789 543 q 821 828 813 735 q 829 1000 829 921 q 828 1058 829 1029 q 824 1114 826 1088 q 909 1099 878 1111 q 955 1065 940 1086 q 974 1015 969 1043 q 978 950 978 986 m 396 950 q 387 828 396 906 q 364 654 378 750 q 336 458 350 558 q 313 267 322 358 q 304 108 304 176 q 309 18 304 57 q 324 -43 314 -21 q 231 8 265 -22 q 182 80 197 38 q 167 179 167 122 q 175 294 167 222 q 195 454 183 365 q 219 639 207 543 q 239 828 231 735 q 247 1000 247 921 q 246 1058 247 1029 q 242 1114 244 1088 q 327 1099 296 1111 q 373 1065 358 1086 q 392 1015 388 1043 q 396 950 396 986 m 913 782 q 658 788 772 782 q 436 793 544 793 q 327 792 383 793 q 224 788 271 790 q 151 786 178 786 q 161 842 151 821 q 199 872 171 863 q 282 881 226 881 q 536 875 422 881 q 757 869 650 869 q 867 872 811 869 q 969 875 922 874 q 1043 876 1017 876 q 1033 821 1043 842 q 996 791 1024 800 q 913 782 968 782 z "},"Ĥ":{"ha":1099,"x_min":125,"x_max":978,"o":"m 800 604 q 783 548 796 569 q 750 514 769 526 q 709 497 731 501 q 667 492 688 492 q 568 493 619 492 q 465 494 517 494 q 295 486 381 494 q 128 450 210 478 q 126 476 126 460 q 125 503 125 493 q 150 570 125 550 q 217 595 175 590 q 311 600 260 600 q 407 600 335 600 q 583 601 479 600 q 800 604 686 603 m 978 950 q 969 828 978 906 q 946 654 960 750 q 918 458 932 558 q 895 267 904 358 q 886 108 886 176 q 906 -43 886 3 q 813 8 847 -22 q 763 80 778 38 q 749 179 749 122 q 757 294 749 222 q 777 454 765 365 q 801 639 789 543 q 821 828 813 735 q 829 1000 829 921 q 828 1058 829 1029 q 824 1114 826 1088 q 909 1099 878 1111 q 955 1065 940 1086 q 974 1015 969 1043 q 978 950 978 986 m 396 950 q 387 828 396 906 q 364 654 378 750 q 336 458 350 558 q 313 267 322 358 q 304 108 304 176 q 309 18 304 57 q 324 -43 314 -21 q 231 8 265 -22 q 182 80 197 38 q 167 179 167 122 q 175 294 167 222 q 195 454 183 365 q 219 639 207 543 q 239 828 231 735 q 247 1000 247 921 q 246 1058 247 1029 q 242 1114 244 1088 q 327 1099 296 1111 q 373 1065 358 1086 q 392 1015 388 1043 q 396 950 396 986 m 439 1204 q 415 1224 431 1211 q 388 1260 400 1238 q 374 1318 375 1283 q 517 1423 454 1369 q 622 1528 579 1476 q 667 1506 651 1522 q 692 1463 682 1489 q 717 1401 703 1436 q 756 1326 731 1367 q 826 1242 781 1286 q 797 1231 813 1236 q 754 1226 781 1226 q 687 1247 713 1226 q 644 1324 661 1268 q 611 1482 628 1379 l 640 1436 q 592 1360 618 1396 q 531 1286 567 1324 q 439 1204 494 1249 z "},"I":{"ha":478,"x_min":128,"x_max":357,"o":"m 357 950 q 348 828 357 906 q 325 654 339 750 q 297 458 311 558 q 274 267 283 358 q 265 108 265 176 q 285 -43 265 3 q 192 8 226 -22 q 143 80 158 38 q 128 179 128 122 q 136 294 128 222 q 156 454 144 365 q 180 639 168 543 q 200 828 192 735 q 208 1000 208 921 q 207 1058 208 1029 q 203 1114 206 1088 q 288 1099 257 1111 q 334 1065 319 1086 q 353 1015 349 1043 q 357 950 357 986 z "},"Ĳ":{"ha":1197,"x_min":128,"x_max":1219,"o":"m 357 950 q 348 828 357 906 q 325 654 339 750 q 297 458 311 558 q 274 267 283 358 q 265 108 265 176 q 285 -43 265 3 q 192 8 226 -22 q 143 80 158 38 q 128 179 128 122 q 136 294 128 222 q 156 454 144 365 q 180 639 168 543 q 200 828 192 735 q 208 1000 208 921 q 207 1058 208 1029 q 203 1114 206 1088 q 288 1099 257 1111 q 334 1065 319 1086 q 353 1015 349 1043 q 357 950 357 986 m 650 -50 q 531 -21 583 -50 q 448 60 478 8 q 418 179 418 113 q 437 267 418 229 q 489 327 456 306 q 565 349 522 349 q 636 326 604 349 q 581 248 601 296 q 560 147 560 200 q 584 58 560 88 q 658 29 608 29 q 740 57 704 29 q 801 151 775 85 q 843 330 826 217 q 867 613 860 443 q 875 1018 875 782 l 1036 1025 l 985 449 q 877 78 963 206 q 650 -50 792 -50 m 797 931 q 734 956 750 931 q 718 1011 718 981 q 721 1048 718 1031 q 726 1078 724 1065 q 830 1060 781 1065 q 926 1056 879 1056 q 1074 1067 1000 1056 q 1219 1100 1147 1078 q 1188 1019 1214 1051 q 1131 972 1163 988 q 1076 953 1100 957 q 991 942 1043 947 q 886 934 939 938 q 797 931 833 931 z "},"Í":{"ha":478,"x_min":128,"x_max":460,"o":"m 357 950 q 348 828 357 906 q 325 654 339 750 q 297 458 311 558 q 274 267 283 358 q 265 108 265 176 q 285 -43 265 3 q 192 8 226 -22 q 143 80 158 38 q 128 179 128 122 q 136 294 128 222 q 156 454 144 365 q 180 639 168 543 q 200 828 192 735 q 208 1000 208 921 q 207 1058 208 1029 q 203 1114 206 1088 q 288 1099 257 1111 q 334 1065 319 1086 q 353 1015 349 1043 q 357 950 357 986 m 128 1250 q 192 1356 150 1299 q 288 1460 235 1413 q 393 1528 342 1507 q 418 1508 403 1522 q 446 1472 433 1494 q 460 1414 458 1450 q 346 1360 401 1396 q 246 1282 290 1324 q 172 1204 201 1240 q 143 1222 156 1208 q 128 1250 131 1235 z "},"Ĭ":{"ha":478,"x_min":106,"x_max":482,"o":"m 357 950 q 348 828 357 906 q 325 654 339 750 q 297 458 311 558 q 274 267 283 358 q 265 108 265 176 q 285 -43 265 3 q 192 8 226 -22 q 143 80 158 38 q 128 179 128 122 q 136 294 128 222 q 156 454 144 365 q 180 639 168 543 q 200 828 192 735 q 208 1000 208 921 q 207 1058 208 1029 q 203 1114 206 1088 q 288 1099 257 1111 q 334 1065 319 1086 q 353 1015 349 1043 q 357 950 357 986 m 106 1439 q 126 1453 115 1447 q 147 1458 136 1458 q 178 1440 168 1458 q 208 1369 185 1396 q 269 1343 232 1343 q 331 1360 300 1343 q 383 1407 361 1376 q 407 1479 404 1438 q 444 1465 426 1479 q 472 1431 461 1451 q 482 1388 482 1410 q 438 1303 468 1336 q 369 1255 408 1271 q 283 1239 329 1239 q 198 1258 239 1239 q 131 1320 157 1276 q 106 1439 106 1364 z "},"Î":{"ha":478,"x_min":63,"x_max":515,"o":"m 357 950 q 348 828 357 906 q 325 654 339 750 q 297 458 311 558 q 274 267 283 358 q 265 108 265 176 q 285 -43 265 3 q 192 8 226 -22 q 143 80 158 38 q 128 179 128 122 q 136 294 128 222 q 156 454 144 365 q 180 639 168 543 q 200 828 192 735 q 208 1000 208 921 q 207 1058 208 1029 q 203 1114 206 1088 q 288 1099 257 1111 q 334 1065 319 1086 q 353 1015 349 1043 q 357 950 357 986 m 128 1204 q 104 1224 119 1211 q 76 1260 89 1238 q 63 1318 64 1283 q 206 1423 143 1369 q 311 1528 268 1476 q 356 1506 340 1522 q 381 1463 371 1489 q 406 1401 392 1436 q 444 1326 419 1367 q 515 1242 469 1286 q 485 1231 501 1236 q 443 1226 469 1226 q 376 1247 401 1226 q 333 1324 350 1268 q 300 1482 317 1379 l 329 1436 q 281 1360 307 1396 q 219 1286 256 1324 q 128 1204 183 1249 z "},"Ȉ":{"ha":478,"x_min":24,"x_max":564,"o":"m 357 950 q 348 828 357 906 q 325 654 339 750 q 297 458 311 558 q 274 267 283 358 q 265 108 265 176 q 285 -43 265 3 q 192 8 226 -22 q 143 80 158 38 q 128 179 128 122 q 136 294 128 222 q 156 454 144 365 q 180 639 168 543 q 200 828 192 735 q 208 1000 208 921 q 207 1058 208 1029 q 203 1114 206 1088 q 288 1099 257 1111 q 334 1065 319 1086 q 353 1015 349 1043 q 357 950 357 986 m 564 1250 q 549 1221 563 1235 q 521 1204 536 1207 q 459 1282 497 1240 q 374 1360 421 1324 q 278 1414 328 1396 q 292 1472 279 1449 q 319 1508 304 1494 q 343 1528 333 1522 q 431 1459 388 1507 q 510 1355 475 1411 q 564 1250 546 1299 m 310 1250 q 294 1222 308 1235 q 265 1204 281 1208 q 203 1283 242 1240 q 119 1361 165 1325 q 24 1414 74 1397 q 38 1473 25 1450 q 65 1509 50 1496 q 89 1528 81 1522 q 175 1460 132 1507 q 254 1358 218 1414 q 310 1250 290 1301 z "},"Ï":{"ha":478,"x_min":68,"x_max":508,"o":"m 357 950 q 348 828 357 906 q 325 654 339 750 q 297 458 311 558 q 274 267 283 358 q 265 108 265 176 q 285 -43 265 3 q 192 8 226 -22 q 143 80 158 38 q 128 179 128 122 q 136 294 128 222 q 156 454 144 365 q 180 639 168 543 q 200 828 192 735 q 208 1000 208 921 q 207 1058 208 1029 q 203 1114 206 1088 q 288 1099 257 1111 q 334 1065 319 1086 q 353 1015 349 1043 q 357 950 357 986 m 221 1272 q 185 1263 204 1267 q 149 1260 167 1260 q 112 1266 131 1260 q 81 1287 93 1272 q 68 1326 68 1301 q 76 1370 68 1349 q 92 1414 83 1392 q 127 1424 108 1419 q 164 1428 146 1428 q 201 1422 182 1428 q 232 1401 219 1415 q 244 1360 244 1386 q 236 1317 244 1338 q 221 1272 228 1296 m 485 1272 q 449 1263 468 1267 q 413 1260 431 1260 q 376 1266 394 1260 q 344 1287 357 1272 q 332 1326 332 1301 q 340 1370 332 1349 q 356 1414 347 1392 q 391 1424 372 1419 q 428 1428 410 1428 q 465 1422 446 1428 q 496 1401 483 1415 q 508 1360 508 1386 q 500 1317 508 1338 q 485 1272 492 1296 z "},"İ":{"ha":478,"x_min":128,"x_max":386,"o":"m 357 950 q 348 828 357 906 q 325 654 339 750 q 297 458 311 558 q 274 267 283 358 q 265 108 265 176 q 285 -43 265 3 q 192 8 226 -22 q 143 80 158 38 q 128 179 128 122 q 136 294 128 222 q 156 454 144 365 q 180 639 168 543 q 200 828 192 735 q 208 1000 208 921 q 207 1058 208 1029 q 203 1114 206 1088 q 288 1099 257 1111 q 334 1065 319 1086 q 353 1015 349 1043 q 357 950 357 986 m 361 1269 q 325 1260 344 1264 q 286 1256 306 1256 q 247 1262 267 1256 q 215 1284 228 1268 q 201 1326 201 1300 q 210 1372 201 1350 q 226 1418 218 1394 q 263 1428 243 1425 q 301 1432 283 1432 q 340 1426 321 1432 q 373 1404 360 1419 q 386 1361 386 1389 q 378 1316 386 1339 q 361 1269 369 1293 z "},"Ị":{"ha":478,"x_min":99,"x_max":357,"o":"m 357 950 q 348 828 357 906 q 325 654 339 750 q 297 458 311 558 q 274 267 283 358 q 265 108 265 176 q 285 -43 265 3 q 192 8 226 -22 q 143 80 158 38 q 128 179 128 122 q 136 294 128 222 q 156 454 144 365 q 180 639 168 543 q 200 828 192 735 q 208 1000 208 921 q 207 1058 208 1029 q 203 1114 206 1088 q 288 1099 257 1111 q 334 1065 319 1086 q 353 1015 349 1043 q 357 950 357 986 m 258 -274 q 222 -283 242 -279 q 183 -287 203 -287 q 144 -281 164 -287 q 112 -259 125 -275 q 99 -217 99 -243 q 107 -171 99 -193 q 124 -125 115 -149 q 160 -115 140 -118 q 199 -111 181 -111 q 238 -117 218 -111 q 270 -139 257 -124 q 283 -182 283 -154 q 275 -227 283 -204 q 258 -274 267 -250 z "},"Ì":{"ha":478,"x_min":128,"x_max":460,"o":"m 357 950 q 348 828 357 906 q 325 654 339 750 q 297 458 311 558 q 274 267 283 358 q 265 108 265 176 q 285 -43 265 3 q 192 8 226 -22 q 143 80 158 38 q 128 179 128 122 q 136 294 128 222 q 156 454 144 365 q 180 639 168 543 q 200 828 192 735 q 208 1000 208 921 q 207 1058 208 1029 q 203 1114 206 1088 q 288 1099 257 1111 q 334 1065 319 1086 q 353 1015 349 1043 q 357 950 357 986 m 460 1250 q 445 1222 458 1235 q 415 1204 432 1208 q 342 1282 388 1240 q 242 1360 297 1324 q 128 1414 188 1396 q 142 1472 129 1450 q 169 1508 154 1494 q 194 1528 185 1522 q 300 1460 247 1507 q 396 1356 353 1413 q 460 1250 439 1299 z "},"Ỉ":{"ha":478,"x_min":108,"x_max":449,"o":"m 357 950 q 348 828 357 906 q 325 654 339 750 q 297 458 311 558 q 274 267 283 358 q 265 108 265 176 q 285 -43 265 3 q 192 8 226 -22 q 143 80 158 38 q 128 179 128 122 q 136 294 128 222 q 156 454 144 365 q 180 639 168 543 q 200 828 192 735 q 208 1000 208 921 q 207 1058 208 1029 q 203 1114 206 1088 q 288 1099 257 1111 q 334 1065 319 1086 q 353 1015 349 1043 q 357 950 357 986 m 228 1256 q 306 1335 278 1292 q 335 1421 335 1379 q 312 1483 335 1458 q 253 1507 289 1507 q 196 1496 225 1507 q 139 1464 167 1485 q 117 1489 125 1475 q 108 1517 108 1503 q 191 1575 146 1554 q 281 1596 236 1596 q 368 1576 331 1596 q 427 1522 406 1557 q 449 1443 449 1488 q 400 1305 449 1368 q 264 1201 351 1242 l 228 1256 z "},"Ȋ":{"ha":478,"x_min":107,"x_max":483,"o":"m 357 950 q 348 828 357 906 q 325 654 339 750 q 297 458 311 558 q 274 267 283 358 q 265 108 265 176 q 285 -43 265 3 q 192 8 226 -22 q 143 80 158 38 q 128 179 128 122 q 136 294 128 222 q 156 454 144 365 q 180 639 168 543 q 200 828 192 735 q 208 1000 208 921 q 207 1058 208 1029 q 203 1114 206 1088 q 288 1099 257 1111 q 334 1065 319 1086 q 353 1015 349 1043 q 357 950 357 986 m 483 1279 q 463 1265 474 1271 q 442 1260 453 1260 q 411 1278 421 1260 q 381 1349 404 1322 q 319 1375 357 1375 q 258 1358 289 1375 q 206 1312 228 1342 q 182 1239 185 1282 q 145 1253 163 1239 q 117 1288 128 1267 q 107 1331 107 1310 q 151 1415 121 1382 q 221 1463 181 1447 q 306 1479 261 1479 q 391 1460 350 1479 q 458 1398 432 1442 q 483 1279 483 1354 z "},"Ī":{"ha":478,"x_min":90,"x_max":499,"o":"m 357 950 q 348 828 357 906 q 325 654 339 750 q 297 458 311 558 q 274 267 283 358 q 265 108 265 176 q 285 -43 265 3 q 192 8 226 -22 q 143 80 158 38 q 128 179 128 122 q 136 294 128 222 q 156 454 144 365 q 180 639 168 543 q 200 828 192 735 q 208 1000 208 921 q 207 1058 208 1029 q 203 1114 206 1088 q 288 1099 257 1111 q 334 1065 319 1086 q 353 1015 349 1043 q 357 950 357 986 m 176 1308 q 106 1336 121 1308 q 90 1417 90 1364 q 92 1429 90 1424 q 94 1442 93 1435 q 158 1432 128 1435 q 219 1429 189 1429 q 312 1438 267 1429 q 413 1446 357 1446 q 483 1418 468 1446 q 499 1338 499 1390 q 498 1326 499 1332 q 494 1313 497 1319 q 431 1322 461 1319 q 369 1325 401 1325 q 278 1317 322 1325 q 176 1308 233 1308 z "},"Į":{"ha":478,"x_min":6,"x_max":385,"o":"m 357 950 q 348 828 357 906 q 325 654 339 750 q 297 458 311 558 q 274 267 283 358 q 265 108 265 176 q 285 -43 265 3 q 192 8 226 -22 q 143 80 158 38 q 128 179 128 122 q 136 294 128 222 q 156 454 144 365 q 180 639 168 543 q 200 828 192 735 q 208 1000 208 921 q 207 1058 208 1029 q 203 1114 206 1088 q 288 1099 257 1111 q 334 1065 319 1086 q 353 1015 349 1043 q 357 950 357 986 m 344 -321 q 385 -368 385 -335 q 285 -450 342 -421 q 167 -479 228 -479 q 49 -432 93 -479 q 6 -306 6 -385 q 67 -142 6 -215 q 251 -15 129 -68 l 285 -43 q 158 -159 200 -100 q 115 -279 115 -218 q 141 -356 115 -328 q 210 -383 167 -383 q 279 -367 243 -383 q 344 -321 315 -350 z "},"Ĩ":{"ha":478,"x_min":72,"x_max":514,"o":"m 357 950 q 348 828 357 906 q 325 654 339 750 q 297 458 311 558 q 274 267 283 358 q 265 108 265 176 q 285 -43 265 3 q 192 8 226 -22 q 143 80 158 38 q 128 179 128 122 q 136 294 128 222 q 156 454 144 365 q 180 639 168 543 q 200 828 192 735 q 208 1000 208 921 q 207 1058 208 1029 q 203 1114 206 1088 q 288 1099 257 1111 q 334 1065 319 1086 q 353 1015 349 1043 q 357 950 357 986 m 110 1292 q 84 1298 96 1292 q 74 1315 72 1304 q 103 1401 83 1369 q 149 1444 124 1432 q 201 1457 175 1457 q 268 1447 236 1457 q 329 1427 300 1438 q 383 1417 358 1417 q 442 1431 418 1417 q 478 1464 465 1446 q 501 1458 492 1464 q 514 1440 511 1451 q 486 1355 507 1386 q 439 1311 465 1324 q 386 1299 413 1299 q 320 1309 353 1299 q 259 1329 288 1319 q 204 1339 231 1339 q 146 1324 169 1339 q 110 1292 122 1310 z "},"J":{"ha":719,"x_min":-60,"x_max":742,"o":"m 172 -50 q 53 -21 106 -50 q -30 60 0 8 q -60 179 -60 113 q -41 267 -60 229 q 11 327 -22 306 q 88 349 44 349 q 158 326 126 349 q 103 248 124 296 q 82 147 82 200 q 106 58 82 88 q 181 29 131 29 q 262 57 226 29 q 323 151 297 85 q 365 330 349 217 q 390 613 382 443 q 397 1018 397 782 l 558 1025 l 507 449 q 399 78 485 206 q 172 -50 314 -50 m 319 931 q 256 956 272 931 q 240 1011 240 981 q 243 1048 240 1031 q 249 1078 246 1065 q 352 1060 303 1065 q 449 1056 401 1056 q 596 1067 522 1056 q 742 1100 669 1078 q 710 1019 736 1051 q 653 972 685 988 q 599 953 622 957 q 513 942 565 947 q 408 934 461 938 q 319 931 356 931 z "},"Ĵ":{"ha":719,"x_min":-60,"x_max":742,"o":"m 172 -50 q 53 -21 106 -50 q -30 60 0 8 q -60 179 -60 113 q -41 267 -60 229 q 11 327 -22 306 q 88 349 44 349 q 158 326 126 349 q 103 248 124 296 q 82 147 82 200 q 106 58 82 88 q 181 29 131 29 q 262 57 226 29 q 323 151 297 85 q 365 330 349 217 q 390 613 382 443 q 397 1018 397 782 l 558 1025 l 507 449 q 399 78 485 206 q 172 -50 314 -50 m 319 931 q 256 956 272 931 q 240 1011 240 981 q 243 1048 240 1031 q 249 1078 246 1065 q 352 1060 303 1065 q 449 1056 401 1056 q 596 1067 522 1056 q 742 1100 669 1078 q 710 1019 736 1051 q 653 972 685 988 q 599 953 622 957 q 513 942 565 947 q 408 934 461 938 q 319 931 356 931 m 338 1204 q 314 1224 329 1211 q 286 1260 299 1238 q 272 1318 274 1283 q 415 1423 353 1369 q 521 1528 478 1476 q 565 1506 550 1522 q 591 1463 581 1489 q 615 1401 601 1436 q 654 1326 629 1367 q 725 1242 679 1286 q 695 1231 711 1236 q 653 1226 679 1226 q 585 1247 611 1226 q 543 1324 560 1268 q 510 1482 526 1379 l 539 1436 q 491 1360 517 1396 q 429 1286 465 1324 q 338 1204 393 1249 z "},"K":{"ha":932,"x_min":128,"x_max":890,"o":"m 244 392 l 231 461 q 513 703 392 588 q 715 922 635 819 q 832 1110 796 1025 q 856 1043 847 1081 q 864 965 864 1006 q 848 892 864 929 q 792 811 832 856 q 683 709 753 767 q 505 574 613 651 q 244 392 397 496 m 285 -43 q 192 8 226 -22 q 143 80 158 38 q 128 179 128 122 q 136 294 128 222 q 156 454 144 365 q 180 639 168 543 q 200 828 192 735 q 208 1000 208 921 q 207 1058 208 1029 q 203 1114 206 1088 q 288 1099 257 1111 q 334 1065 319 1086 q 353 1015 349 1043 q 357 950 357 986 q 348 828 357 906 q 325 654 339 750 q 297 458 311 558 q 274 267 283 358 q 265 108 265 176 q 285 -43 265 3 m 829 -46 q 713 -11 767 -46 q 614 83 660 24 q 530 219 568 143 q 458 380 492 296 q 396 546 425 464 l 524 640 q 610 401 568 501 q 695 225 651 300 q 787 89 739 150 q 890 -32 835 28 q 863 -42 881 -37 q 829 -46 846 -46 z "},"Ķ":{"ha":932,"x_min":128,"x_max":890,"o":"m 244 392 l 231 461 q 513 703 392 588 q 715 922 635 819 q 832 1110 796 1025 q 856 1043 847 1081 q 864 965 864 1006 q 848 892 864 929 q 792 811 832 856 q 683 709 753 767 q 505 574 613 651 q 244 392 397 496 m 285 -43 q 192 8 226 -22 q 143 80 158 38 q 128 179 128 122 q 136 294 128 222 q 156 454 144 365 q 180 639 168 543 q 200 828 192 735 q 208 1000 208 921 q 207 1058 208 1029 q 203 1114 206 1088 q 288 1099 257 1111 q 334 1065 319 1086 q 353 1015 349 1043 q 357 950 357 986 q 348 828 357 906 q 325 654 339 750 q 297 458 311 558 q 274 267 283 358 q 265 108 265 176 q 285 -43 265 3 m 829 -46 q 713 -11 767 -46 q 614 83 660 24 q 530 219 568 143 q 458 380 492 296 q 396 546 425 464 l 524 640 q 610 401 568 501 q 695 225 651 300 q 787 89 739 150 q 890 -32 835 28 q 863 -42 881 -37 q 829 -46 846 -46 m 382 -125 q 420 -115 399 -119 q 461 -111 442 -111 q 498 -117 481 -111 q 526 -140 515 -124 q 538 -186 538 -157 q 488 -326 538 -258 q 340 -447 439 -394 l 311 -411 q 377 -319 354 -369 q 400 -215 400 -268 q 395 -170 400 -193 q 382 -125 390 -147 z "},"L":{"ha":760,"x_min":78,"x_max":750,"o":"m 281 42 l 174 43 q 148 103 156 71 q 140 179 140 136 q 149 294 140 222 q 169 454 157 365 q 192 639 181 543 q 213 828 204 735 q 221 1000 221 921 q 219 1058 221 1029 q 215 1114 218 1088 q 301 1099 269 1111 q 347 1065 332 1086 q 365 1015 361 1043 q 369 950 369 986 q 360 828 369 906 q 338 654 351 750 q 310 458 324 558 q 287 267 296 358 q 278 108 278 176 q 278 74 278 90 q 281 42 279 57 m 78 -11 q 93 22 82 1 q 128 65 104 43 q 194 102 151 88 q 303 117 236 117 q 481 122 394 117 q 638 138 568 128 q 750 158 708 147 q 694 33 740 78 q 582 -11 649 -11 q 510 -7 554 -11 q 408 2 465 -3 q 286 7 351 7 q 185 3 238 7 q 78 -11 132 0 z "},"Ǉ":{"ha":1479,"x_min":78,"x_max":1501,"o":"m 281 42 l 174 43 q 148 103 156 71 q 140 179 140 136 q 149 294 140 222 q 169 454 157 365 q 192 639 181 543 q 213 828 204 735 q 221 1000 221 921 q 219 1058 221 1029 q 215 1114 218 1088 q 301 1099 269 1111 q 347 1065 332 1086 q 365 1015 361 1043 q 369 950 369 986 q 360 828 369 906 q 338 654 351 750 q 310 458 324 558 q 287 267 296 358 q 278 108 278 176 q 278 74 278 90 q 281 42 279 57 m 78 -11 q 93 22 82 1 q 128 65 104 43 q 194 102 151 88 q 303 117 236 117 q 481 122 394 117 q 638 138 568 128 q 750 158 708 147 q 694 33 740 78 q 582 -11 649 -11 q 510 -7 554 -11 q 408 2 465 -3 q 286 7 351 7 q 185 3 238 7 q 78 -11 132 0 m 932 -50 q 813 -21 865 -50 q 730 60 760 8 q 700 179 700 113 q 719 267 700 229 q 771 327 738 306 q 847 349 804 349 q 918 326 886 349 q 863 248 883 296 q 842 147 842 200 q 866 58 842 88 q 940 29 890 29 q 1022 57 986 29 q 1083 151 1057 85 q 1125 330 1108 217 q 1149 613 1142 443 q 1157 1018 1157 782 l 1318 1025 l 1267 449 q 1159 78 1244 206 q 932 -50 1074 -50 m 1079 931 q 1016 956 1032 931 q 1000 1011 1000 981 q 1003 1048 1000 1031 q 1008 1078 1006 1065 q 1112 1060 1063 1065 q 1208 1056 1161 1056 q 1356 1067 1282 1056 q 1501 1100 1429 1078 q 1470 1019 1496 1051 q 1413 972 1444 988 q 1358 953 1382 957 q 1273 942 1325 947 q 1168 934 1221 938 q 1079 931 1115 931 z "},"Ĺ":{"ha":760,"x_min":78,"x_max":750,"o":"m 281 42 l 174 43 q 148 103 156 71 q 140 179 140 136 q 149 294 140 222 q 169 454 157 365 q 192 639 181 543 q 213 828 204 735 q 221 1000 221 921 q 219 1058 221 1029 q 215 1114 218 1088 q 301 1099 269 1111 q 347 1065 332 1086 q 365 1015 361 1043 q 369 950 369 986 q 360 828 369 906 q 338 654 351 750 q 310 458 324 558 q 287 267 296 358 q 278 108 278 176 q 278 74 278 90 q 281 42 279 57 m 78 -11 q 93 22 82 1 q 128 65 104 43 q 194 102 151 88 q 303 117 236 117 q 481 122 394 117 q 638 138 568 128 q 750 158 708 147 q 694 33 740 78 q 582 -11 649 -11 q 510 -7 554 -11 q 408 2 465 -3 q 286 7 351 7 q 185 3 238 7 q 78 -11 132 0 m 172 1250 q 237 1356 194 1299 q 333 1460 279 1413 q 438 1528 386 1507 q 463 1508 447 1522 q 490 1472 478 1494 q 504 1414 503 1450 q 390 1360 446 1396 q 290 1282 335 1324 q 217 1204 246 1240 q 188 1222 200 1208 q 172 1250 175 1235 z "},"Ľ":{"ha":760,"x_min":78,"x_max":750,"o":"m 281 42 l 174 43 q 148 103 156 71 q 140 179 140 136 q 149 294 140 222 q 169 454 157 365 q 192 639 181 543 q 213 828 204 735 q 221 1000 221 921 q 219 1058 221 1029 q 215 1114 218 1088 q 301 1099 269 1111 q 347 1065 332 1086 q 365 1015 361 1043 q 369 950 369 986 q 360 828 369 906 q 338 654 351 750 q 310 458 324 558 q 287 267 296 358 q 278 108 278 176 q 278 74 278 90 q 281 42 279 57 m 78 -11 q 93 22 82 1 q 128 65 104 43 q 194 102 151 88 q 303 117 236 117 q 481 122 394 117 q 638 138 568 128 q 750 158 708 147 q 694 33 740 78 q 582 -11 649 -11 q 510 -7 554 -11 q 408 2 465 -3 q 286 7 351 7 q 185 3 238 7 q 78 -11 132 0 m 533 1165 q 581 1185 553 1176 q 631 1194 610 1194 q 680 1174 658 1194 q 701 1096 701 1154 q 663 967 701 1033 q 549 840 625 901 l 513 872 q 556 953 542 911 q 571 1039 571 996 q 560 1107 571 1075 q 533 1165 549 1139 z "},"Ļ":{"ha":760,"x_min":78,"x_max":750,"o":"m 281 42 l 174 43 q 148 103 156 71 q 140 179 140 136 q 149 294 140 222 q 169 454 157 365 q 192 639 181 543 q 213 828 204 735 q 221 1000 221 921 q 219 1058 221 1029 q 215 1114 218 1088 q 301 1099 269 1111 q 347 1065 332 1086 q 365 1015 361 1043 q 369 950 369 986 q 360 828 369 906 q 338 654 351 750 q 310 458 324 558 q 287 267 296 358 q 278 108 278 176 q 278 74 278 90 q 281 42 279 57 m 78 -11 q 93 22 82 1 q 128 65 104 43 q 194 102 151 88 q 303 117 236 117 q 481 122 394 117 q 638 138 568 128 q 750 158 708 147 q 694 33 740 78 q 582 -11 649 -11 q 510 -7 554 -11 q 408 2 465 -3 q 286 7 351 7 q 185 3 238 7 q 78 -11 132 0 m 329 -125 q 367 -115 346 -119 q 408 -111 389 -111 q 445 -117 428 -111 q 474 -140 463 -124 q 485 -186 485 -157 q 435 -326 485 -258 q 288 -447 386 -394 l 258 -411 q 324 -319 301 -369 q 347 -215 347 -268 q 342 -170 347 -193 q 329 -125 338 -147 z "},"Ŀ":{"ha":760,"x_min":78,"x_max":750,"o":"m 281 42 l 174 43 q 148 103 156 71 q 140 179 140 136 q 149 294 140 222 q 169 454 157 365 q 192 639 181 543 q 213 828 204 735 q 221 1000 221 921 q 219 1058 221 1029 q 215 1114 218 1088 q 301 1099 269 1111 q 347 1065 332 1086 q 365 1015 361 1043 q 369 950 369 986 q 360 828 369 906 q 338 654 351 750 q 310 458 324 558 q 287 267 296 358 q 278 108 278 176 q 278 74 278 90 q 281 42 279 57 m 78 -11 q 93 22 82 1 q 128 65 104 43 q 194 102 151 88 q 303 117 236 117 q 481 122 394 117 q 638 138 568 128 q 750 158 708 147 q 694 33 740 78 q 582 -11 649 -11 q 510 -7 554 -11 q 408 2 465 -3 q 286 7 351 7 q 185 3 238 7 q 78 -11 132 0 m 725 508 q 685 499 707 503 q 642 494 663 494 q 600 501 621 494 q 565 524 579 507 q 551 569 551 540 q 560 621 551 596 q 576 671 568 646 q 617 681 596 678 q 660 685 639 685 q 702 678 682 685 q 736 656 722 672 q 750 610 750 639 q 742 558 750 583 q 725 508 733 533 z "},"ǈ":{"ha":1219,"x_min":78,"x_max":1096,"o":"m 281 42 l 174 43 q 148 103 156 71 q 140 179 140 136 q 149 294 140 222 q 169 454 157 365 q 192 639 181 543 q 213 828 204 735 q 221 1000 221 921 q 219 1058 221 1029 q 215 1114 218 1088 q 301 1099 269 1111 q 347 1065 332 1086 q 365 1015 361 1043 q 369 950 369 986 q 360 828 369 906 q 338 654 351 750 q 310 458 324 558 q 287 267 296 358 q 278 108 278 176 q 278 74 278 90 q 281 42 279 57 m 78 -11 q 93 22 82 1 q 128 65 104 43 q 194 102 151 88 q 303 117 236 117 q 481 122 394 117 q 638 138 568 128 q 750 158 708 147 q 694 33 740 78 q 582 -11 649 -11 q 510 -7 554 -11 q 408 2 465 -3 q 286 7 351 7 q 185 3 238 7 q 78 -11 132 0 m 643 -464 q 519 -417 569 -464 q 468 -303 468 -371 q 484 -229 468 -264 q 531 -172 500 -194 q 604 -150 561 -150 q 626 -152 614 -150 q 650 -160 639 -154 q 624 -193 636 -174 q 606 -236 613 -212 q 599 -287 599 -260 q 617 -352 599 -329 q 664 -375 635 -375 q 758 -333 717 -375 q 828 -219 799 -292 q 879 -51 858 -146 q 913 149 900 43 q 931 364 925 256 q 936 572 936 472 q 933 697 936 638 q 928 807 931 756 q 951 809 938 808 q 975 810 965 810 q 1057 784 1032 810 q 1082 700 1082 758 q 1078 524 1082 624 q 1063 313 1074 424 q 1033 92 1053 203 q 980 -119 1013 -19 q 901 -296 947 -218 q 790 -419 854 -374 q 643 -464 726 -464 m 1071 925 q 1035 915 1054 919 q 996 911 1015 911 q 957 917 976 911 q 924 940 938 924 q 911 982 911 956 q 919 1028 911 1006 q 936 1074 928 1050 q 973 1084 953 1081 q 1011 1088 993 1088 q 1050 1081 1031 1088 q 1083 1060 1069 1075 q 1096 1017 1096 1044 q 1088 972 1096 994 q 1071 925 1079 949 z "},"Ł":{"ha":760,"x_min":33,"x_max":750,"o":"m 281 42 l 174 43 q 148 103 156 71 q 140 179 140 136 q 149 294 140 222 q 169 454 157 365 q 192 639 181 543 q 213 828 204 735 q 221 1000 221 921 q 219 1058 221 1029 q 215 1114 218 1088 q 301 1099 269 1111 q 347 1065 332 1086 q 365 1015 361 1043 q 369 950 369 986 q 360 828 369 906 q 338 654 351 750 q 310 458 324 558 q 287 267 296 358 q 278 108 278 176 q 278 74 278 90 q 281 42 279 57 m 78 -11 q 93 22 82 1 q 128 65 104 43 q 194 102 151 88 q 303 117 236 117 q 481 122 394 117 q 638 138 568 128 q 750 158 708 147 q 694 33 740 78 q 582 -11 649 -11 q 510 -7 554 -11 q 408 2 465 -3 q 286 7 351 7 q 185 3 238 7 q 78 -11 132 0 m 33 529 q 150 568 89 538 q 272 635 211 599 q 386 698 332 671 q 482 725 440 725 q 532 703 515 725 q 561 650 549 682 q 444 612 506 643 q 324 544 383 581 q 210 480 264 507 q 113 453 156 453 q 63 475 79 453 q 33 529 46 497 z "},"M":{"ha":1288,"x_min":104,"x_max":1169,"o":"m 579 242 q 540 249 557 242 q 521 265 524 257 q 432 495 479 374 q 335 732 385 617 q 233 939 285 847 q 126 1079 181 1031 q 152 1099 138 1090 q 182 1111 167 1107 q 208 1115 197 1115 q 277 1102 247 1115 q 336 1048 307 1089 q 402 925 365 1007 q 492 707 439 843 q 622 367 544 571 q 708 492 660 422 q 806 640 756 561 q 901 799 856 718 q 979 961 946 881 q 1025 1114 1013 1042 q 1063 1052 1051 1082 q 1072 992 1074 1022 q 1059 926 1071 961 q 1026 847 1047 890 q 917 649 979 747 q 790 456 856 551 q 664 261 725 360 q 620 247 646 251 q 579 242 594 242 m 249 -7 q 181 0 208 -7 q 136 19 153 7 q 112 47 119 32 q 104 81 104 63 q 112 153 104 99 q 132 287 119 207 q 158 458 144 367 q 183 644 171 550 q 203 822 196 738 q 211 965 211 906 q 206 1051 211 1018 q 192 1106 201 1085 q 272 1059 246 1088 q 308 994 299 1031 q 317 913 317 957 q 299 674 317 800 q 262 406 281 547 q 243 108 243 265 q 245 50 243 79 q 249 -7 247 21 m 1097 -43 q 999 8 1035 -22 q 949 80 964 38 q 935 179 935 122 q 941 276 935 218 q 958 408 947 335 q 980 567 968 482 q 1002 744 992 653 q 1019 928 1013 835 q 1025 1114 1025 1022 q 1093 1097 1065 1110 q 1138 1064 1121 1085 q 1162 1015 1154 1043 q 1169 950 1169 986 q 1160 828 1169 906 q 1138 654 1151 750 q 1110 458 1124 558 q 1087 267 1096 358 q 1078 108 1078 176 q 1097 -43 1078 3 z "},"N":{"ha":1140,"x_min":104,"x_max":1036,"o":"m 118 81 q 126 153 118 99 q 146 287 133 207 q 172 458 158 367 q 197 644 185 550 q 217 822 210 738 q 225 965 225 906 q 220 1051 225 1018 q 206 1106 215 1085 q 286 1059 260 1088 q 322 994 313 1031 q 331 913 331 957 q 313 674 331 800 q 276 406 294 547 q 257 108 257 265 q 259 50 257 79 q 263 -7 261 21 q 194 0 222 -7 q 150 19 167 7 q 126 47 133 32 q 118 81 118 63 m 833 63 q 826 97 828 81 q 824 135 824 114 q 835 320 824 219 q 861 533 846 421 q 888 763 876 644 q 899 1000 899 881 q 897 1057 899 1028 q 893 1113 896 1086 q 960 1106 933 1113 q 1004 1087 988 1099 q 1028 1060 1021 1075 q 1036 1028 1036 1044 q 1028 953 1036 1010 q 1009 816 1021 897 q 983 640 997 735 q 958 451 969 546 q 938 271 946 356 q 931 125 931 186 q 932 70 931 97 q 938 19 933 43 l 833 63 m 728 53 q 678 142 710 79 q 605 292 647 206 q 514 476 563 379 q 415 669 465 574 q 316 844 365 764 q 224 976 267 925 q 156 1039 189 1018 q 104 1074 124 1060 q 164 1105 136 1096 q 215 1114 192 1114 q 299 1096 261 1114 q 368 1031 338 1078 q 446 896 392 994 q 578 640 500 797 q 670 451 624 547 q 765 270 717 356 q 865 121 814 185 q 969 26 915 57 q 900 -17 931 -4 q 838 -29 869 -29 q 794 -19 814 -29 q 759 10 775 -8 q 728 53 743 28 z "},"Ǌ":{"ha":1860,"x_min":104,"x_max":1882,"o":"m 118 81 q 126 153 118 99 q 146 287 133 207 q 172 458 158 367 q 197 644 185 550 q 217 822 210 738 q 225 965 225 906 q 220 1051 225 1018 q 206 1106 215 1085 q 286 1059 260 1088 q 322 994 313 1031 q 331 913 331 957 q 313 674 331 800 q 276 406 294 547 q 257 108 257 265 q 259 50 257 79 q 263 -7 261 21 q 194 0 222 -7 q 150 19 167 7 q 126 47 133 32 q 118 81 118 63 m 833 63 q 826 97 828 81 q 824 135 824 114 q 835 320 824 219 q 861 533 846 421 q 888 763 876 644 q 899 1000 899 881 q 897 1057 899 1028 q 893 1113 896 1086 q 960 1106 933 1113 q 1004 1087 988 1099 q 1028 1060 1021 1075 q 1036 1028 1036 1044 q 1028 953 1036 1010 q 1009 816 1021 897 q 983 640 997 735 q 958 451 969 546 q 938 271 946 356 q 931 125 931 186 q 932 70 931 97 q 938 19 933 43 l 833 63 m 728 53 q 678 142 710 79 q 605 292 647 206 q 514 476 563 379 q 415 669 465 574 q 316 844 365 764 q 224 976 267 925 q 156 1039 189 1018 q 104 1074 124 1060 q 164 1105 136 1096 q 215 1114 192 1114 q 299 1096 261 1114 q 368 1031 338 1078 q 446 896 392 994 q 578 640 500 797 q 670 451 624 547 q 765 270 717 356 q 865 121 814 185 q 969 26 915 57 q 900 -17 931 -4 q 838 -29 869 -29 q 794 -19 814 -29 q 759 10 775 -8 q 728 53 743 28 m 1313 -50 q 1193 -21 1246 -50 q 1110 60 1140 8 q 1081 179 1081 113 q 1099 267 1081 229 q 1151 327 1118 306 q 1228 349 1185 349 q 1299 326 1267 349 q 1243 248 1264 296 q 1222 147 1222 200 q 1247 58 1222 88 q 1321 29 1271 29 q 1402 57 1367 29 q 1463 151 1438 85 q 1506 330 1489 217 q 1530 613 1522 443 q 1538 1018 1538 782 l 1699 1025 l 1647 449 q 1540 78 1625 206 q 1313 -50 1454 -50 m 1460 931 q 1397 956 1413 931 q 1381 1011 1381 981 q 1383 1048 1381 1031 q 1389 1078 1386 1065 q 1492 1060 1443 1065 q 1589 1056 1542 1056 q 1736 1067 1663 1056 q 1882 1100 1810 1078 q 1851 1019 1876 1051 q 1794 972 1825 988 q 1739 953 1763 957 q 1653 942 1706 947 q 1549 934 1601 938 q 1460 931 1496 931 z "},"Ń":{"ha":1140,"x_min":104,"x_max":1036,"o":"m 118 81 q 126 153 118 99 q 146 287 133 207 q 172 458 158 367 q 197 644 185 550 q 217 822 210 738 q 225 965 225 906 q 220 1051 225 1018 q 206 1106 215 1085 q 286 1059 260 1088 q 322 994 313 1031 q 331 913 331 957 q 313 674 331 800 q 276 406 294 547 q 257 108 257 265 q 259 50 257 79 q 263 -7 261 21 q 194 0 222 -7 q 150 19 167 7 q 126 47 133 32 q 118 81 118 63 m 833 63 q 826 97 828 81 q 824 135 824 114 q 835 320 824 219 q 861 533 846 421 q 888 763 876 644 q 899 1000 899 881 q 897 1057 899 1028 q 893 1113 896 1086 q 960 1106 933 1113 q 1004 1087 988 1099 q 1028 1060 1021 1075 q 1036 1028 1036 1044 q 1028 953 1036 1010 q 1009 816 1021 897 q 983 640 997 735 q 958 451 969 546 q 938 271 946 356 q 931 125 931 186 q 932 70 931 97 q 938 19 933 43 l 833 63 m 728 53 q 678 142 710 79 q 605 292 647 206 q 514 476 563 379 q 415 669 465 574 q 316 844 365 764 q 224 976 267 925 q 156 1039 189 1018 q 104 1074 124 1060 q 164 1105 136 1096 q 215 1114 192 1114 q 299 1096 261 1114 q 368 1031 338 1078 q 446 896 392 994 q 578 640 500 797 q 670 451 624 547 q 765 270 717 356 q 865 121 814 185 q 969 26 915 57 q 900 -17 931 -4 q 838 -29 869 -29 q 794 -19 814 -29 q 759 10 775 -8 q 728 53 743 28 m 460 1250 q 524 1356 482 1299 q 620 1460 567 1413 q 725 1528 674 1507 q 750 1508 735 1522 q 778 1472 765 1494 q 792 1414 790 1450 q 678 1360 733 1396 q 578 1282 622 1324 q 504 1204 533 1240 q 475 1222 488 1208 q 460 1250 463 1235 z "},"Ň":{"ha":1140,"x_min":104,"x_max":1036,"o":"m 118 81 q 126 153 118 99 q 146 287 133 207 q 172 458 158 367 q 197 644 185 550 q 217 822 210 738 q 225 965 225 906 q 220 1051 225 1018 q 206 1106 215 1085 q 286 1059 260 1088 q 322 994 313 1031 q 331 913 331 957 q 313 674 331 800 q 276 406 294 547 q 257 108 257 265 q 259 50 257 79 q 263 -7 261 21 q 194 0 222 -7 q 150 19 167 7 q 126 47 133 32 q 118 81 118 63 m 833 63 q 826 97 828 81 q 824 135 824 114 q 835 320 824 219 q 861 533 846 421 q 888 763 876 644 q 899 1000 899 881 q 897 1057 899 1028 q 893 1113 896 1086 q 960 1106 933 1113 q 1004 1087 988 1099 q 1028 1060 1021 1075 q 1036 1028 1036 1044 q 1028 953 1036 1010 q 1009 816 1021 897 q 983 640 997 735 q 958 451 969 546 q 938 271 946 356 q 931 125 931 186 q 932 70 931 97 q 938 19 933 43 l 833 63 m 728 53 q 678 142 710 79 q 605 292 647 206 q 514 476 563 379 q 415 669 465 574 q 316 844 365 764 q 224 976 267 925 q 156 1039 189 1018 q 104 1074 124 1060 q 164 1105 136 1096 q 215 1114 192 1114 q 299 1096 261 1114 q 368 1031 338 1078 q 446 896 392 994 q 578 640 500 797 q 670 451 624 547 q 765 270 717 356 q 865 121 814 185 q 969 26 915 57 q 900 -17 931 -4 q 838 -29 869 -29 q 794 -19 814 -29 q 759 10 775 -8 q 728 53 743 28 m 788 1528 q 812 1509 797 1522 q 839 1473 826 1496 q 853 1414 851 1450 q 710 1310 772 1363 q 604 1204 649 1257 q 560 1226 575 1210 q 534 1269 544 1243 q 510 1331 524 1296 q 471 1406 496 1365 q 400 1490 446 1446 q 430 1501 414 1497 q 472 1506 446 1506 q 540 1485 514 1506 q 583 1408 565 1464 q 615 1250 600 1353 l 586 1296 q 634 1372 608 1336 q 697 1446 660 1408 q 788 1528 733 1483 z "},"Ņ":{"ha":1140,"x_min":104,"x_max":1036,"o":"m 118 81 q 126 153 118 99 q 146 287 133 207 q 172 458 158 367 q 197 644 185 550 q 217 822 210 738 q 225 965 225 906 q 220 1051 225 1018 q 206 1106 215 1085 q 286 1059 260 1088 q 322 994 313 1031 q 331 913 331 957 q 313 674 331 800 q 276 406 294 547 q 257 108 257 265 q 259 50 257 79 q 263 -7 261 21 q 194 0 222 -7 q 150 19 167 7 q 126 47 133 32 q 118 81 118 63 m 833 63 q 826 97 828 81 q 824 135 824 114 q 835 320 824 219 q 861 533 846 421 q 888 763 876 644 q 899 1000 899 881 q 897 1057 899 1028 q 893 1113 896 1086 q 960 1106 933 1113 q 1004 1087 988 1099 q 1028 1060 1021 1075 q 1036 1028 1036 1044 q 1028 953 1036 1010 q 1009 816 1021 897 q 983 640 997 735 q 958 451 969 546 q 938 271 946 356 q 931 125 931 186 q 932 70 931 97 q 938 19 933 43 l 833 63 m 728 53 q 678 142 710 79 q 605 292 647 206 q 514 476 563 379 q 415 669 465 574 q 316 844 365 764 q 224 976 267 925 q 156 1039 189 1018 q 104 1074 124 1060 q 164 1105 136 1096 q 215 1114 192 1114 q 299 1096 261 1114 q 368 1031 338 1078 q 446 896 392 994 q 578 640 500 797 q 670 451 624 547 q 765 270 717 356 q 865 121 814 185 q 969 26 915 57 q 900 -17 931 -4 q 838 -29 869 -29 q 794 -19 814 -29 q 759 10 775 -8 q 728 53 743 28 m 458 -125 q 497 -115 475 -119 q 538 -111 518 -111 q 574 -117 557 -111 q 603 -140 592 -124 q 614 -186 614 -157 q 565 -326 614 -258 q 417 -447 515 -394 l 388 -411 q 453 -319 431 -369 q 476 -215 476 -268 q 472 -170 476 -193 q 458 -125 467 -147 z "},"ǋ":{"ha":1600,"x_min":104,"x_max":1476,"o":"m 118 81 q 126 153 118 99 q 146 287 133 207 q 172 458 158 367 q 197 644 185 550 q 217 822 210 738 q 225 965 225 906 q 220 1051 225 1018 q 206 1106 215 1085 q 286 1059 260 1088 q 322 994 313 1031 q 331 913 331 957 q 313 674 331 800 q 276 406 294 547 q 257 108 257 265 q 259 50 257 79 q 263 -7 261 21 q 194 0 222 -7 q 150 19 167 7 q 126 47 133 32 q 118 81 118 63 m 833 63 q 826 97 828 81 q 824 135 824 114 q 835 320 824 219 q 861 533 846 421 q 888 763 876 644 q 899 1000 899 881 q 897 1057 899 1028 q 893 1113 896 1086 q 960 1106 933 1113 q 1004 1087 988 1099 q 1028 1060 1021 1075 q 1036 1028 1036 1044 q 1028 953 1036 1010 q 1009 816 1021 897 q 983 640 997 735 q 958 451 969 546 q 938 271 946 356 q 931 125 931 186 q 932 70 931 97 q 938 19 933 43 l 833 63 m 728 53 q 678 142 710 79 q 605 292 647 206 q 514 476 563 379 q 415 669 465 574 q 316 844 365 764 q 224 976 267 925 q 156 1039 189 1018 q 104 1074 124 1060 q 164 1105 136 1096 q 215 1114 192 1114 q 299 1096 261 1114 q 368 1031 338 1078 q 446 896 392 994 q 578 640 500 797 q 670 451 624 547 q 765 270 717 356 q 865 121 814 185 q 969 26 915 57 q 900 -17 931 -4 q 838 -29 869 -29 q 794 -19 814 -29 q 759 10 775 -8 q 728 53 743 28 m 1024 -464 q 899 -417 950 -464 q 849 -303 849 -371 q 865 -229 849 -264 q 911 -172 881 -194 q 985 -150 942 -150 q 1007 -152 994 -150 q 1031 -160 1019 -154 q 1005 -193 1017 -174 q 986 -236 993 -212 q 979 -287 979 -260 q 997 -352 979 -329 q 1044 -375 1015 -375 q 1138 -333 1097 -375 q 1209 -219 1179 -292 q 1260 -51 1239 -146 q 1293 149 1281 43 q 1311 364 1306 256 q 1317 572 1317 472 q 1314 697 1317 638 q 1308 807 1311 756 q 1332 809 1318 808 q 1356 810 1346 810 q 1438 784 1413 810 q 1463 700 1463 758 q 1458 524 1463 624 q 1444 313 1454 424 q 1413 92 1433 203 q 1360 -119 1393 -19 q 1281 -296 1328 -218 q 1171 -419 1235 -374 q 1024 -464 1107 -464 m 1451 925 q 1415 915 1435 919 q 1376 911 1396 911 q 1338 917 1357 911 q 1305 940 1318 924 q 1292 982 1292 956 q 1300 1028 1292 1006 q 1317 1074 1308 1050 q 1353 1084 1333 1081 q 1392 1088 1374 1088 q 1431 1081 1411 1088 q 1463 1060 1450 1075 q 1476 1017 1476 1044 q 1468 972 1476 994 q 1451 925 1460 949 z "},"Ñ":{"ha":1140,"x_min":104,"x_max":1036,"o":"m 118 81 q 126 153 118 99 q 146 287 133 207 q 172 458 158 367 q 197 644 185 550 q 217 822 210 738 q 225 965 225 906 q 220 1051 225 1018 q 206 1106 215 1085 q 286 1059 260 1088 q 322 994 313 1031 q 331 913 331 957 q 313 674 331 800 q 276 406 294 547 q 257 108 257 265 q 259 50 257 79 q 263 -7 261 21 q 194 0 222 -7 q 150 19 167 7 q 126 47 133 32 q 118 81 118 63 m 833 63 q 826 97 828 81 q 824 135 824 114 q 835 320 824 219 q 861 533 846 421 q 888 763 876 644 q 899 1000 899 881 q 897 1057 899 1028 q 893 1113 896 1086 q 960 1106 933 1113 q 1004 1087 988 1099 q 1028 1060 1021 1075 q 1036 1028 1036 1044 q 1028 953 1036 1010 q 1009 816 1021 897 q 983 640 997 735 q 958 451 969 546 q 938 271 946 356 q 931 125 931 186 q 932 70 931 97 q 938 19 933 43 l 833 63 m 728 53 q 678 142 710 79 q 605 292 647 206 q 514 476 563 379 q 415 669 465 574 q 316 844 365 764 q 224 976 267 925 q 156 1039 189 1018 q 104 1074 124 1060 q 164 1105 136 1096 q 215 1114 192 1114 q 299 1096 261 1114 q 368 1031 338 1078 q 446 896 392 994 q 578 640 500 797 q 670 451 624 547 q 765 270 717 356 q 865 121 814 185 q 969 26 915 57 q 900 -17 931 -4 q 838 -29 869 -29 q 794 -19 814 -29 q 759 10 775 -8 q 728 53 743 28 m 442 1292 q 416 1298 428 1292 q 406 1315 404 1304 q 435 1401 415 1369 q 481 1444 456 1432 q 533 1457 507 1457 q 600 1447 568 1457 q 661 1427 632 1438 q 715 1417 690 1417 q 774 1431 750 1417 q 810 1464 797 1446 q 833 1458 824 1464 q 846 1440 843 1451 q 818 1355 839 1386 q 771 1311 797 1324 q 718 1299 744 1299 q 652 1309 685 1299 q 591 1329 619 1319 q 536 1339 563 1339 q 478 1324 501 1339 q 442 1292 454 1310 z "},"Ŋ":{"ha":1139,"x_min":104,"x_max":1035,"o":"m 549 -464 q 424 -417 475 -464 q 374 -303 374 -371 q 390 -229 374 -264 q 436 -172 406 -194 q 510 -150 467 -150 q 532 -152 519 -150 q 556 -160 544 -154 q 530 -193 542 -174 q 511 -236 518 -212 q 504 -287 504 -260 q 522 -352 504 -329 q 569 -375 540 -375 q 655 -327 615 -375 q 728 -197 694 -279 q 789 -8 761 -114 q 838 217 817 99 q 873 456 858 336 q 894 683 888 575 q 901 878 901 792 q 899 1002 901 943 q 893 1113 896 1061 q 917 1115 903 1114 q 940 1115 931 1115 q 999 1104 979 1115 q 1027 1069 1019 1093 q 1035 1006 1035 1044 q 1030 840 1035 939 q 1014 625 1025 742 q 984 383 1003 508 q 938 136 965 258 q 874 -94 911 14 q 790 -285 838 -201 q 682 -416 742 -368 q 549 -464 622 -464 m 263 -7 q 194 0 222 -7 q 150 19 167 7 q 126 47 133 32 q 118 81 118 63 q 126 153 118 99 q 146 287 133 207 q 172 458 158 367 q 197 644 185 550 q 217 822 210 738 q 225 965 225 906 q 220 1051 225 1018 q 206 1106 215 1085 q 286 1059 260 1088 q 322 994 313 1031 q 331 913 331 957 q 313 674 331 800 q 276 406 294 547 q 257 108 257 265 q 259 50 257 79 q 263 -7 261 21 m 850 -1 q 793 15 822 0 q 738 58 764 31 q 693 118 713 85 q 649 205 678 146 q 583 343 621 264 q 500 510 544 422 q 408 686 456 599 q 314 849 361 774 q 224 976 267 925 q 156 1039 189 1018 q 104 1074 124 1060 q 164 1105 136 1096 q 215 1114 192 1114 q 299 1096 261 1114 q 368 1031 338 1078 q 446 896 392 994 q 578 640 500 797 q 667 457 622 551 q 757 277 711 363 q 850 128 803 192 l 850 -1 z "},"O":{"ha":1114,"x_min":90,"x_max":1024,"o":"m 499 -35 q 313 15 390 -35 q 187 148 236 65 q 114 330 138 231 q 90 526 90 429 q 119 743 90 642 q 199 926 147 844 q 320 1065 250 1008 q 475 1149 390 1122 q 492 1140 485 1147 q 501 1126 500 1133 q 408 1057 453 1096 q 327 963 363 1018 q 269 828 292 908 l 281 825 q 394 985 326 921 q 540 1083 463 1050 q 692 1117 618 1117 q 856 1068 781 1117 q 977 919 931 1019 q 1024 665 1024 819 q 1005 468 1024 568 q 947 278 986 368 q 847 117 908 188 q 699 6 785 47 q 499 -35 613 -35 m 517 49 q 665 99 600 49 q 776 233 731 149 q 844 419 821 317 q 867 625 867 521 q 836 855 867 769 q 753 978 806 940 q 636 1015 701 1015 q 481 966 551 1015 q 360 835 411 917 q 281 656 308 754 q 253 458 253 557 q 268 301 253 375 q 315 170 283 226 q 397 81 347 114 q 517 49 447 49 z "},"Ó":{"ha":1114,"x_min":90,"x_max":1024,"o":"m 499 -35 q 313 15 390 -35 q 187 148 236 65 q 114 330 138 231 q 90 526 90 429 q 119 743 90 642 q 199 926 147 844 q 320 1065 250 1008 q 475 1149 390 1122 q 492 1140 485 1147 q 501 1126 500 1133 q 408 1057 453 1096 q 327 963 363 1018 q 269 828 292 908 l 281 825 q 394 985 326 921 q 540 1083 463 1050 q 692 1117 618 1117 q 856 1068 781 1117 q 977 919 931 1019 q 1024 665 1024 819 q 1005 468 1024 568 q 947 278 986 368 q 847 117 908 188 q 699 6 785 47 q 499 -35 613 -35 m 517 49 q 665 99 600 49 q 776 233 731 149 q 844 419 821 317 q 867 625 867 521 q 836 855 867 769 q 753 978 806 940 q 636 1015 701 1015 q 481 966 551 1015 q 360 835 411 917 q 281 656 308 754 q 253 458 253 557 q 268 301 253 375 q 315 170 283 226 q 397 81 347 114 q 517 49 447 49 m 472 1250 q 537 1356 494 1299 q 633 1460 579 1413 q 738 1528 686 1507 q 763 1508 747 1522 q 790 1472 778 1494 q 804 1414 803 1450 q 690 1360 746 1396 q 590 1282 635 1324 q 517 1204 546 1240 q 488 1222 500 1208 q 472 1250 475 1235 z "},"Ŏ":{"ha":1114,"x_min":90,"x_max":1024,"o":"m 499 -35 q 313 15 390 -35 q 187 148 236 65 q 114 330 138 231 q 90 526 90 429 q 119 743 90 642 q 199 926 147 844 q 320 1065 250 1008 q 475 1149 390 1122 q 492 1140 485 1147 q 501 1126 500 1133 q 408 1057 453 1096 q 327 963 363 1018 q 269 828 292 908 l 281 825 q 394 985 326 921 q 540 1083 463 1050 q 692 1117 618 1117 q 856 1068 781 1117 q 977 919 931 1019 q 1024 665 1024 819 q 1005 468 1024 568 q 947 278 986 368 q 847 117 908 188 q 699 6 785 47 q 499 -35 613 -35 m 517 49 q 665 99 600 49 q 776 233 731 149 q 844 419 821 317 q 867 625 867 521 q 836 855 867 769 q 753 978 806 940 q 636 1015 701 1015 q 481 966 551 1015 q 360 835 411 917 q 281 656 308 754 q 253 458 253 557 q 268 301 253 375 q 315 170 283 226 q 397 81 347 114 q 517 49 447 49 m 450 1439 q 470 1453 460 1447 q 492 1458 481 1458 q 522 1440 513 1458 q 553 1369 529 1396 q 614 1343 576 1343 q 675 1360 644 1343 q 727 1407 706 1376 q 751 1479 749 1438 q 788 1465 771 1479 q 816 1431 806 1451 q 826 1388 826 1410 q 783 1303 813 1336 q 713 1255 753 1271 q 628 1239 674 1239 q 542 1258 583 1239 q 476 1320 501 1276 q 450 1439 450 1364 z "},"Ô":{"ha":1114,"x_min":90,"x_max":1024,"o":"m 499 -35 q 313 15 390 -35 q 187 148 236 65 q 114 330 138 231 q 90 526 90 429 q 119 743 90 642 q 199 926 147 844 q 320 1065 250 1008 q 475 1149 390 1122 q 492 1140 485 1147 q 501 1126 500 1133 q 408 1057 453 1096 q 327 963 363 1018 q 269 828 292 908 l 281 825 q 394 985 326 921 q 540 1083 463 1050 q 692 1117 618 1117 q 856 1068 781 1117 q 977 919 931 1019 q 1024 665 1024 819 q 1005 468 1024 568 q 947 278 986 368 q 847 117 908 188 q 699 6 785 47 q 499 -35 613 -35 m 517 49 q 665 99 600 49 q 776 233 731 149 q 844 419 821 317 q 867 625 867 521 q 836 855 867 769 q 753 978 806 940 q 636 1015 701 1015 q 481 966 551 1015 q 360 835 411 917 q 281 656 308 754 q 253 458 253 557 q 268 301 253 375 q 315 170 283 226 q 397 81 347 114 q 517 49 447 49 m 472 1204 q 449 1224 464 1211 q 421 1260 433 1238 q 407 1318 408 1283 q 550 1423 488 1369 q 656 1528 613 1476 q 700 1506 685 1522 q 726 1463 715 1489 q 750 1401 736 1436 q 789 1326 764 1367 q 860 1242 814 1286 q 830 1231 846 1236 q 788 1226 814 1226 q 720 1247 746 1226 q 678 1324 694 1268 q 644 1482 661 1379 l 674 1436 q 626 1360 651 1396 q 564 1286 600 1324 q 472 1204 528 1249 z "},"Ố":{"ha":1114,"x_min":90,"x_max":1024,"o":"m 499 -35 q 313 15 390 -35 q 187 148 236 65 q 114 330 138 231 q 90 526 90 429 q 119 743 90 642 q 199 926 147 844 q 320 1065 250 1008 q 475 1149 390 1122 q 492 1140 485 1147 q 501 1126 500 1133 q 408 1057 453 1096 q 327 963 363 1018 q 269 828 292 908 l 281 825 q 394 985 326 921 q 540 1083 463 1050 q 692 1117 618 1117 q 856 1068 781 1117 q 977 919 931 1019 q 1024 665 1024 819 q 1005 468 1024 568 q 947 278 986 368 q 847 117 908 188 q 699 6 785 47 q 499 -35 613 -35 m 517 49 q 665 99 600 49 q 776 233 731 149 q 844 419 821 317 q 867 625 867 521 q 836 855 867 769 q 753 978 806 940 q 636 1015 701 1015 q 481 966 551 1015 q 360 835 411 917 q 281 656 308 754 q 253 458 253 557 q 268 301 253 375 q 315 170 283 226 q 397 81 347 114 q 517 49 447 49 m 472 1204 q 449 1224 464 1211 q 421 1260 433 1238 q 407 1318 408 1283 q 550 1423 488 1369 q 656 1528 613 1476 q 700 1506 685 1522 q 726 1463 715 1489 q 750 1401 736 1436 q 789 1326 764 1367 q 860 1242 814 1286 q 830 1231 846 1236 q 788 1226 814 1226 q 720 1247 746 1226 q 678 1324 694 1268 q 644 1482 661 1379 l 674 1436 q 626 1360 651 1396 q 564 1286 600 1324 q 472 1204 528 1249 m 472 1603 q 537 1708 494 1651 q 633 1813 579 1765 q 738 1881 686 1860 q 763 1861 747 1875 q 790 1825 778 1847 q 804 1767 803 1803 q 690 1713 746 1749 q 590 1635 635 1676 q 517 1557 546 1593 q 488 1574 500 1561 q 472 1603 475 1588 z "},"Ộ":{"ha":1114,"x_min":90,"x_max":1024,"o":"m 499 -35 q 313 15 390 -35 q 187 148 236 65 q 114 330 138 231 q 90 526 90 429 q 119 743 90 642 q 199 926 147 844 q 320 1065 250 1008 q 475 1149 390 1122 q 492 1140 485 1147 q 501 1126 500 1133 q 408 1057 453 1096 q 327 963 363 1018 q 269 828 292 908 l 281 825 q 394 985 326 921 q 540 1083 463 1050 q 692 1117 618 1117 q 856 1068 781 1117 q 977 919 931 1019 q 1024 665 1024 819 q 1005 468 1024 568 q 947 278 986 368 q 847 117 908 188 q 699 6 785 47 q 499 -35 613 -35 m 517 49 q 665 99 600 49 q 776 233 731 149 q 844 419 821 317 q 867 625 867 521 q 836 855 867 769 q 753 978 806 940 q 636 1015 701 1015 q 481 966 551 1015 q 360 835 411 917 q 281 656 308 754 q 253 458 253 557 q 268 301 253 375 q 315 170 283 226 q 397 81 347 114 q 517 49 447 49 m 472 1204 q 449 1224 464 1211 q 421 1260 433 1238 q 407 1318 408 1283 q 550 1423 488 1369 q 656 1528 613 1476 q 700 1506 685 1522 q 726 1463 715 1489 q 750 1401 736 1436 q 789 1326 764 1367 q 860 1242 814 1286 q 830 1231 846 1236 q 788 1226 814 1226 q 720 1247 746 1226 q 678 1324 694 1268 q 644 1482 661 1379 l 674 1436 q 626 1360 651 1396 q 564 1286 600 1324 q 472 1204 528 1249 m 575 -274 q 539 -283 558 -279 q 500 -287 519 -287 q 461 -281 481 -287 q 428 -259 442 -275 q 415 -217 415 -243 q 424 -171 415 -193 q 440 -125 432 -149 q 477 -115 457 -118 q 515 -111 497 -111 q 554 -117 535 -111 q 587 -139 574 -124 q 600 -182 600 -154 q 592 -227 600 -204 q 575 -274 583 -250 z "},"Ồ":{"ha":1114,"x_min":90,"x_max":1024,"o":"m 499 -35 q 313 15 390 -35 q 187 148 236 65 q 114 330 138 231 q 90 526 90 429 q 119 743 90 642 q 199 926 147 844 q 320 1065 250 1008 q 475 1149 390 1122 q 492 1140 485 1147 q 501 1126 500 1133 q 408 1057 453 1096 q 327 963 363 1018 q 269 828 292 908 l 281 825 q 394 985 326 921 q 540 1083 463 1050 q 692 1117 618 1117 q 856 1068 781 1117 q 977 919 931 1019 q 1024 665 1024 819 q 1005 468 1024 568 q 947 278 986 368 q 847 117 908 188 q 699 6 785 47 q 499 -35 613 -35 m 517 49 q 665 99 600 49 q 776 233 731 149 q 844 419 821 317 q 867 625 867 521 q 836 855 867 769 q 753 978 806 940 q 636 1015 701 1015 q 481 966 551 1015 q 360 835 411 917 q 281 656 308 754 q 253 458 253 557 q 268 301 253 375 q 315 170 283 226 q 397 81 347 114 q 517 49 447 49 m 472 1204 q 449 1224 464 1211 q 421 1260 433 1238 q 407 1318 408 1283 q 550 1423 488 1369 q 656 1528 613 1476 q 700 1506 685 1522 q 726 1463 715 1489 q 750 1401 736 1436 q 789 1326 764 1367 q 860 1242 814 1286 q 830 1231 846 1236 q 788 1226 814 1226 q 720 1247 746 1226 q 678 1324 694 1268 q 644 1482 661 1379 l 674 1436 q 626 1360 651 1396 q 564 1286 600 1324 q 472 1204 528 1249 m 804 1603 q 790 1574 803 1588 q 760 1557 776 1561 q 687 1635 732 1593 q 587 1713 642 1676 q 472 1767 532 1749 q 486 1825 474 1803 q 514 1861 499 1847 q 539 1881 529 1875 q 644 1813 592 1860 q 740 1708 697 1765 q 804 1603 783 1651 z "},"Ổ":{"ha":1114,"x_min":90,"x_max":1024,"o":"m 499 -35 q 313 15 390 -35 q 187 148 236 65 q 114 330 138 231 q 90 526 90 429 q 119 743 90 642 q 199 926 147 844 q 320 1065 250 1008 q 475 1149 390 1122 q 492 1140 485 1147 q 501 1126 500 1133 q 408 1057 453 1096 q 327 963 363 1018 q 269 828 292 908 l 281 825 q 394 985 326 921 q 540 1083 463 1050 q 692 1117 618 1117 q 856 1068 781 1117 q 977 919 931 1019 q 1024 665 1024 819 q 1005 468 1024 568 q 947 278 986 368 q 847 117 908 188 q 699 6 785 47 q 499 -35 613 -35 m 517 49 q 665 99 600 49 q 776 233 731 149 q 844 419 821 317 q 867 625 867 521 q 836 855 867 769 q 753 978 806 940 q 636 1015 701 1015 q 481 966 551 1015 q 360 835 411 917 q 281 656 308 754 q 253 458 253 557 q 268 301 253 375 q 315 170 283 226 q 397 81 347 114 q 517 49 447 49 m 472 1204 q 449 1224 464 1211 q 421 1260 433 1238 q 407 1318 408 1283 q 550 1423 488 1369 q 656 1528 613 1476 q 700 1506 685 1522 q 726 1463 715 1489 q 750 1401 736 1436 q 789 1326 764 1367 q 860 1242 814 1286 q 830 1231 846 1236 q 788 1226 814 1226 q 720 1247 746 1226 q 678 1324 694 1268 q 644 1482 661 1379 l 674 1436 q 626 1360 651 1396 q 564 1286 600 1324 q 472 1204 528 1249 m 572 1608 q 651 1688 622 1644 q 679 1774 679 1732 q 656 1835 679 1811 q 597 1860 633 1860 q 540 1849 569 1860 q 483 1817 511 1838 q 461 1842 469 1828 q 453 1869 453 1856 q 535 1928 490 1907 q 625 1949 581 1949 q 713 1929 675 1949 q 772 1875 750 1910 q 793 1796 793 1840 q 744 1658 793 1721 q 608 1554 696 1594 l 572 1608 z "},"Ỗ":{"ha":1114,"x_min":90,"x_max":1024,"o":"m 499 -35 q 313 15 390 -35 q 187 148 236 65 q 114 330 138 231 q 90 526 90 429 q 119 743 90 642 q 199 926 147 844 q 320 1065 250 1008 q 475 1149 390 1122 q 492 1140 485 1147 q 501 1126 500 1133 q 408 1057 453 1096 q 327 963 363 1018 q 269 828 292 908 l 281 825 q 394 985 326 921 q 540 1083 463 1050 q 692 1117 618 1117 q 856 1068 781 1117 q 977 919 931 1019 q 1024 665 1024 819 q 1005 468 1024 568 q 947 278 986 368 q 847 117 908 188 q 699 6 785 47 q 499 -35 613 -35 m 517 49 q 665 99 600 49 q 776 233 731 149 q 844 419 821 317 q 867 625 867 521 q 836 855 867 769 q 753 978 806 940 q 636 1015 701 1015 q 481 966 551 1015 q 360 835 411 917 q 281 656 308 754 q 253 458 253 557 q 268 301 253 375 q 315 170 283 226 q 397 81 347 114 q 517 49 447 49 m 472 1204 q 449 1224 464 1211 q 421 1260 433 1238 q 407 1318 408 1283 q 550 1423 488 1369 q 656 1528 613 1476 q 700 1506 685 1522 q 726 1463 715 1489 q 750 1401 736 1436 q 789 1326 764 1367 q 860 1242 814 1286 q 830 1231 846 1236 q 788 1226 814 1226 q 720 1247 746 1226 q 678 1324 694 1268 q 644 1482 661 1379 l 674 1436 q 626 1360 651 1396 q 564 1286 600 1324 q 472 1204 528 1249 m 454 1644 q 428 1651 440 1644 q 418 1668 417 1657 q 448 1753 428 1722 q 494 1797 468 1785 q 546 1810 519 1810 q 613 1800 581 1810 q 674 1780 644 1790 q 728 1769 703 1769 q 786 1784 763 1769 q 822 1817 810 1799 q 846 1810 836 1817 q 858 1793 856 1804 q 831 1708 851 1739 q 783 1664 810 1676 q 731 1651 757 1651 q 665 1662 697 1651 q 603 1682 632 1672 q 549 1692 575 1692 q 490 1677 514 1692 q 454 1644 467 1663 z "},"Ȍ":{"ha":1114,"x_min":90,"x_max":1024,"o":"m 499 -35 q 313 15 390 -35 q 187 148 236 65 q 114 330 138 231 q 90 526 90 429 q 119 743 90 642 q 199 926 147 844 q 320 1065 250 1008 q 475 1149 390 1122 q 492 1140 485 1147 q 501 1126 500 1133 q 408 1057 453 1096 q 327 963 363 1018 q 269 828 292 908 l 281 825 q 394 985 326 921 q 540 1083 463 1050 q 692 1117 618 1117 q 856 1068 781 1117 q 977 919 931 1019 q 1024 665 1024 819 q 1005 468 1024 568 q 947 278 986 368 q 847 117 908 188 q 699 6 785 47 q 499 -35 613 -35 m 517 49 q 665 99 600 49 q 776 233 731 149 q 844 419 821 317 q 867 625 867 521 q 836 855 867 769 q 753 978 806 940 q 636 1015 701 1015 q 481 966 551 1015 q 360 835 411 917 q 281 656 308 754 q 253 458 253 557 q 268 301 253 375 q 315 170 283 226 q 397 81 347 114 q 517 49 447 49 m 908 1250 q 894 1221 907 1235 q 865 1204 881 1207 q 803 1282 842 1240 q 719 1360 765 1324 q 622 1414 672 1396 q 636 1472 624 1449 q 663 1508 649 1494 q 688 1528 678 1522 q 776 1459 732 1507 q 855 1355 819 1411 q 908 1250 890 1299 m 654 1250 q 639 1222 653 1235 q 610 1204 625 1208 q 548 1283 586 1240 q 464 1361 510 1325 q 368 1414 418 1397 q 382 1473 369 1450 q 410 1509 394 1496 q 433 1528 425 1522 q 519 1460 476 1507 q 599 1358 563 1414 q 654 1250 635 1301 z "},"Ö":{"ha":1114,"x_min":90,"x_max":1024,"o":"m 499 -35 q 313 15 390 -35 q 187 148 236 65 q 114 330 138 231 q 90 526 90 429 q 119 743 90 642 q 199 926 147 844 q 320 1065 250 1008 q 475 1149 390 1122 q 492 1140 485 1147 q 501 1126 500 1133 q 408 1057 453 1096 q 327 963 363 1018 q 269 828 292 908 l 281 825 q 394 985 326 921 q 540 1083 463 1050 q 692 1117 618 1117 q 856 1068 781 1117 q 977 919 931 1019 q 1024 665 1024 819 q 1005 468 1024 568 q 947 278 986 368 q 847 117 908 188 q 699 6 785 47 q 499 -35 613 -35 m 517 49 q 665 99 600 49 q 776 233 731 149 q 844 419 821 317 q 867 625 867 521 q 836 855 867 769 q 753 978 806 940 q 636 1015 701 1015 q 481 966 551 1015 q 360 835 411 917 q 281 656 308 754 q 253 458 253 557 q 268 301 253 375 q 315 170 283 226 q 397 81 347 114 q 517 49 447 49 m 565 1272 q 530 1263 549 1267 q 493 1260 511 1260 q 456 1266 475 1260 q 425 1287 438 1272 q 413 1326 413 1301 q 420 1370 413 1349 q 436 1414 428 1392 q 472 1424 453 1419 q 508 1428 490 1428 q 545 1422 526 1428 q 576 1401 564 1415 q 589 1360 589 1386 q 581 1317 589 1338 q 565 1272 572 1296 m 829 1272 q 794 1263 813 1267 q 757 1260 775 1260 q 720 1266 739 1260 q 689 1287 701 1272 q 676 1326 676 1301 q 684 1370 676 1349 q 700 1414 692 1392 q 735 1424 717 1419 q 772 1428 754 1428 q 809 1422 790 1428 q 840 1401 828 1415 q 853 1360 853 1386 q 844 1317 853 1338 q 829 1272 836 1296 z "},"Ȫ":{"ha":1114,"x_min":90,"x_max":1024,"o":"m 499 -35 q 313 15 390 -35 q 187 148 236 65 q 114 330 138 231 q 90 526 90 429 q 119 743 90 642 q 199 926 147 844 q 320 1065 250 1008 q 475 1149 390 1122 q 492 1140 485 1147 q 501 1126 500 1133 q 408 1057 453 1096 q 327 963 363 1018 q 269 828 292 908 l 281 825 q 394 985 326 921 q 540 1083 463 1050 q 692 1117 618 1117 q 856 1068 781 1117 q 977 919 931 1019 q 1024 665 1024 819 q 1005 468 1024 568 q 947 278 986 368 q 847 117 908 188 q 699 6 785 47 q 499 -35 613 -35 m 517 49 q 665 99 600 49 q 776 233 731 149 q 844 419 821 317 q 867 625 867 521 q 836 855 867 769 q 753 978 806 940 q 636 1015 701 1015 q 481 966 551 1015 q 360 835 411 917 q 281 656 308 754 q 253 458 253 557 q 268 301 253 375 q 315 170 283 226 q 397 81 347 114 q 517 49 447 49 m 565 1272 q 530 1263 549 1267 q 493 1260 511 1260 q 456 1266 475 1260 q 425 1287 438 1272 q 413 1326 413 1301 q 420 1370 413 1349 q 436 1414 428 1392 q 472 1424 453 1419 q 508 1428 490 1428 q 545 1422 526 1428 q 576 1401 564 1415 q 589 1360 589 1386 q 581 1317 589 1338 q 565 1272 572 1296 m 829 1272 q 794 1263 813 1267 q 757 1260 775 1260 q 720 1266 739 1260 q 689 1287 701 1272 q 676 1326 676 1301 q 684 1370 676 1349 q 700 1414 692 1392 q 735 1424 717 1419 q 772 1428 754 1428 q 809 1422 790 1428 q 840 1401 828 1415 q 853 1360 853 1386 q 844 1317 853 1338 q 829 1272 836 1296 m 521 1560 q 450 1588 465 1560 q 435 1668 435 1615 q 436 1681 435 1675 q 439 1693 438 1686 q 503 1683 472 1686 q 564 1681 533 1681 q 656 1689 611 1681 q 757 1697 701 1697 q 828 1669 813 1697 q 843 1589 843 1642 q 842 1577 843 1583 q 839 1564 842 1571 q 776 1574 806 1571 q 714 1576 746 1576 q 622 1568 667 1576 q 521 1560 578 1560 z "},"Ȱ":{"ha":1114,"x_min":90,"x_max":1024,"o":"m 499 -35 q 313 15 390 -35 q 187 148 236 65 q 114 330 138 231 q 90 526 90 429 q 119 743 90 642 q 199 926 147 844 q 320 1065 250 1008 q 475 1149 390 1122 q 492 1140 485 1147 q 501 1126 500 1133 q 408 1057 453 1096 q 327 963 363 1018 q 269 828 292 908 l 281 825 q 394 985 326 921 q 540 1083 463 1050 q 692 1117 618 1117 q 856 1068 781 1117 q 977 919 931 1019 q 1024 665 1024 819 q 1005 468 1024 568 q 947 278 986 368 q 847 117 908 188 q 699 6 785 47 q 499 -35 613 -35 m 517 49 q 665 99 600 49 q 776 233 731 149 q 844 419 821 317 q 867 625 867 521 q 836 855 867 769 q 753 978 806 940 q 636 1015 701 1015 q 481 966 551 1015 q 360 835 411 917 q 281 656 308 754 q 253 458 253 557 q 268 301 253 375 q 315 170 283 226 q 397 81 347 114 q 517 49 447 49 m 706 1269 q 669 1260 689 1264 q 631 1256 650 1256 q 592 1262 611 1256 q 559 1284 572 1268 q 546 1326 546 1300 q 554 1372 546 1350 q 571 1418 563 1394 q 608 1428 588 1425 q 646 1432 628 1432 q 685 1426 665 1432 q 717 1404 704 1419 q 731 1361 731 1389 q 722 1316 731 1339 q 706 1269 714 1293 m 521 1564 q 450 1592 465 1564 q 435 1672 435 1619 q 436 1685 435 1679 q 439 1697 438 1690 q 503 1688 472 1690 q 564 1685 533 1685 q 656 1693 611 1685 q 757 1701 701 1701 q 828 1674 813 1701 q 843 1593 843 1646 q 842 1581 843 1588 q 839 1568 842 1575 q 776 1578 806 1575 q 714 1581 746 1581 q 622 1572 667 1581 q 521 1564 578 1564 z "},"Ọ":{"ha":1114,"x_min":90,"x_max":1024,"o":"m 499 -35 q 313 15 390 -35 q 187 148 236 65 q 114 330 138 231 q 90 526 90 429 q 119 743 90 642 q 199 926 147 844 q 320 1065 250 1008 q 475 1149 390 1122 q 492 1140 485 1147 q 501 1126 500 1133 q 408 1057 453 1096 q 327 963 363 1018 q 269 828 292 908 l 281 825 q 394 985 326 921 q 540 1083 463 1050 q 692 1117 618 1117 q 856 1068 781 1117 q 977 919 931 1019 q 1024 665 1024 819 q 1005 468 1024 568 q 947 278 986 368 q 847 117 908 188 q 699 6 785 47 q 499 -35 613 -35 m 517 49 q 665 99 600 49 q 776 233 731 149 q 844 419 821 317 q 867 625 867 521 q 836 855 867 769 q 753 978 806 940 q 636 1015 701 1015 q 481 966 551 1015 q 360 835 411 917 q 281 656 308 754 q 253 458 253 557 q 268 301 253 375 q 315 170 283 226 q 397 81 347 114 q 517 49 447 49 m 575 -274 q 539 -283 558 -279 q 500 -287 519 -287 q 461 -281 481 -287 q 428 -259 442 -275 q 415 -217 415 -243 q 424 -171 415 -193 q 440 -125 432 -149 q 477 -115 457 -118 q 515 -111 497 -111 q 554 -117 535 -111 q 587 -139 574 -124 q 600 -182 600 -154 q 592 -227 600 -204 q 575 -274 583 -250 z "},"Ò":{"ha":1114,"x_min":90,"x_max":1024,"o":"m 499 -35 q 313 15 390 -35 q 187 148 236 65 q 114 330 138 231 q 90 526 90 429 q 119 743 90 642 q 199 926 147 844 q 320 1065 250 1008 q 475 1149 390 1122 q 492 1140 485 1147 q 501 1126 500 1133 q 408 1057 453 1096 q 327 963 363 1018 q 269 828 292 908 l 281 825 q 394 985 326 921 q 540 1083 463 1050 q 692 1117 618 1117 q 856 1068 781 1117 q 977 919 931 1019 q 1024 665 1024 819 q 1005 468 1024 568 q 947 278 986 368 q 847 117 908 188 q 699 6 785 47 q 499 -35 613 -35 m 517 49 q 665 99 600 49 q 776 233 731 149 q 844 419 821 317 q 867 625 867 521 q 836 855 867 769 q 753 978 806 940 q 636 1015 701 1015 q 481 966 551 1015 q 360 835 411 917 q 281 656 308 754 q 253 458 253 557 q 268 301 253 375 q 315 170 283 226 q 397 81 347 114 q 517 49 447 49 m 804 1250 q 790 1222 803 1235 q 760 1204 776 1208 q 687 1282 732 1240 q 587 1360 642 1324 q 472 1414 532 1396 q 486 1472 474 1450 q 514 1508 499 1494 q 539 1528 529 1522 q 644 1460 592 1507 q 740 1356 697 1413 q 804 1250 783 1299 z "},"Ỏ":{"ha":1114,"x_min":90,"x_max":1024,"o":"m 499 -35 q 313 15 390 -35 q 187 148 236 65 q 114 330 138 231 q 90 526 90 429 q 119 743 90 642 q 199 926 147 844 q 320 1065 250 1008 q 475 1149 390 1122 q 492 1140 485 1147 q 501 1126 500 1133 q 408 1057 453 1096 q 327 963 363 1018 q 269 828 292 908 l 281 825 q 394 985 326 921 q 540 1083 463 1050 q 692 1117 618 1117 q 856 1068 781 1117 q 977 919 931 1019 q 1024 665 1024 819 q 1005 468 1024 568 q 947 278 986 368 q 847 117 908 188 q 699 6 785 47 q 499 -35 613 -35 m 517 49 q 665 99 600 49 q 776 233 731 149 q 844 419 821 317 q 867 625 867 521 q 836 855 867 769 q 753 978 806 940 q 636 1015 701 1015 q 481 966 551 1015 q 360 835 411 917 q 281 656 308 754 q 253 458 253 557 q 268 301 253 375 q 315 170 283 226 q 397 81 347 114 q 517 49 447 49 m 572 1256 q 651 1335 622 1292 q 679 1421 679 1379 q 656 1483 679 1458 q 597 1507 633 1507 q 540 1496 569 1507 q 483 1464 511 1485 q 461 1489 469 1475 q 453 1517 453 1503 q 535 1575 490 1554 q 625 1596 581 1596 q 713 1576 675 1596 q 772 1522 750 1557 q 793 1443 793 1488 q 744 1305 793 1368 q 608 1201 696 1242 l 572 1256 z "},"Ơ":{"ha":1114,"x_min":90,"x_max":1126,"o":"m 499 -35 q 313 15 390 -35 q 187 148 236 65 q 114 330 138 231 q 90 526 90 429 q 119 743 90 642 q 199 926 147 844 q 320 1065 250 1008 q 475 1149 390 1122 q 492 1140 485 1147 q 501 1126 500 1133 q 408 1057 453 1096 q 327 963 363 1018 q 269 828 292 908 l 281 825 q 394 985 326 921 q 540 1083 463 1050 q 692 1117 618 1117 q 856 1068 781 1117 q 977 919 931 1019 q 1024 665 1024 819 q 1005 468 1024 568 q 947 278 986 368 q 847 117 908 188 q 699 6 785 47 q 499 -35 613 -35 m 517 49 q 665 99 600 49 q 776 233 731 149 q 844 419 821 317 q 867 625 867 521 q 836 855 867 769 q 753 978 806 940 q 636 1015 701 1015 q 481 966 551 1015 q 360 835 411 917 q 281 656 308 754 q 253 458 253 557 q 268 301 253 375 q 315 170 283 226 q 397 81 347 114 q 517 49 447 49 m 788 1036 l 760 1089 q 900 1104 850 1089 q 969 1158 950 1119 q 989 1264 989 1196 q 1017 1270 1003 1268 q 1047 1272 1032 1272 q 1126 1247 1096 1272 q 1094 1123 1126 1169 q 987 1056 1061 1076 q 788 1036 913 1036 z "},"Ớ":{"ha":1114,"x_min":90,"x_max":1126,"o":"m 499 -35 q 313 15 390 -35 q 187 148 236 65 q 114 330 138 231 q 90 526 90 429 q 119 743 90 642 q 199 926 147 844 q 320 1065 250 1008 q 475 1149 390 1122 q 492 1140 485 1147 q 501 1126 500 1133 q 408 1057 453 1096 q 327 963 363 1018 q 269 828 292 908 l 281 825 q 394 985 326 921 q 540 1083 463 1050 q 692 1117 618 1117 q 856 1068 781 1117 q 977 919 931 1019 q 1024 665 1024 819 q 1005 468 1024 568 q 947 278 986 368 q 847 117 908 188 q 699 6 785 47 q 499 -35 613 -35 m 517 49 q 665 99 600 49 q 776 233 731 149 q 844 419 821 317 q 867 625 867 521 q 836 855 867 769 q 753 978 806 940 q 636 1015 701 1015 q 481 966 551 1015 q 360 835 411 917 q 281 656 308 754 q 253 458 253 557 q 268 301 253 375 q 315 170 283 226 q 397 81 347 114 q 517 49 447 49 m 788 1036 l 760 1089 q 900 1104 850 1089 q 969 1158 950 1119 q 989 1264 989 1196 q 1017 1270 1003 1268 q 1047 1272 1032 1272 q 1126 1247 1096 1272 q 1094 1123 1126 1169 q 987 1056 1061 1076 q 788 1036 913 1036 m 472 1250 q 537 1356 494 1299 q 633 1460 579 1413 q 738 1528 686 1507 q 763 1508 747 1522 q 790 1472 778 1494 q 804 1414 803 1450 q 690 1360 746 1396 q 590 1282 635 1324 q 517 1204 546 1240 q 488 1222 500 1208 q 472 1250 475 1235 z "},"Ợ":{"ha":1114,"x_min":90,"x_max":1126,"o":"m 499 -35 q 313 15 390 -35 q 187 148 236 65 q 114 330 138 231 q 90 526 90 429 q 119 743 90 642 q 199 926 147 844 q 320 1065 250 1008 q 475 1149 390 1122 q 492 1140 485 1147 q 501 1126 500 1133 q 408 1057 453 1096 q 327 963 363 1018 q 269 828 292 908 l 281 825 q 394 985 326 921 q 540 1083 463 1050 q 692 1117 618 1117 q 856 1068 781 1117 q 977 919 931 1019 q 1024 665 1024 819 q 1005 468 1024 568 q 947 278 986 368 q 847 117 908 188 q 699 6 785 47 q 499 -35 613 -35 m 517 49 q 665 99 600 49 q 776 233 731 149 q 844 419 821 317 q 867 625 867 521 q 836 855 867 769 q 753 978 806 940 q 636 1015 701 1015 q 481 966 551 1015 q 360 835 411 917 q 281 656 308 754 q 253 458 253 557 q 268 301 253 375 q 315 170 283 226 q 397 81 347 114 q 517 49 447 49 m 788 1036 l 760 1089 q 900 1104 850 1089 q 969 1158 950 1119 q 989 1264 989 1196 q 1017 1270 1003 1268 q 1047 1272 1032 1272 q 1126 1247 1096 1272 q 1094 1123 1126 1169 q 987 1056 1061 1076 q 788 1036 913 1036 m 575 -274 q 539 -283 558 -279 q 500 -287 519 -287 q 461 -281 481 -287 q 428 -259 442 -275 q 415 -217 415 -243 q 424 -171 415 -193 q 440 -125 432 -149 q 477 -115 457 -118 q 515 -111 497 -111 q 554 -117 535 -111 q 587 -139 574 -124 q 600 -182 600 -154 q 592 -227 600 -204 q 575 -274 583 -250 z "},"Ờ":{"ha":1114,"x_min":90,"x_max":1126,"o":"m 499 -35 q 313 15 390 -35 q 187 148 236 65 q 114 330 138 231 q 90 526 90 429 q 119 743 90 642 q 199 926 147 844 q 320 1065 250 1008 q 475 1149 390 1122 q 492 1140 485 1147 q 501 1126 500 1133 q 408 1057 453 1096 q 327 963 363 1018 q 269 828 292 908 l 281 825 q 394 985 326 921 q 540 1083 463 1050 q 692 1117 618 1117 q 856 1068 781 1117 q 977 919 931 1019 q 1024 665 1024 819 q 1005 468 1024 568 q 947 278 986 368 q 847 117 908 188 q 699 6 785 47 q 499 -35 613 -35 m 517 49 q 665 99 600 49 q 776 233 731 149 q 844 419 821 317 q 867 625 867 521 q 836 855 867 769 q 753 978 806 940 q 636 1015 701 1015 q 481 966 551 1015 q 360 835 411 917 q 281 656 308 754 q 253 458 253 557 q 268 301 253 375 q 315 170 283 226 q 397 81 347 114 q 517 49 447 49 m 788 1036 l 760 1089 q 900 1104 850 1089 q 969 1158 950 1119 q 989 1264 989 1196 q 1017 1270 1003 1268 q 1047 1272 1032 1272 q 1126 1247 1096 1272 q 1094 1123 1126 1169 q 987 1056 1061 1076 q 788 1036 913 1036 m 804 1250 q 790 1222 803 1235 q 760 1204 776 1208 q 687 1282 732 1240 q 587 1360 642 1324 q 472 1414 532 1396 q 486 1472 474 1450 q 514 1508 499 1494 q 539 1528 529 1522 q 644 1460 592 1507 q 740 1356 697 1413 q 804 1250 783 1299 z "},"Ở":{"ha":1114,"x_min":90,"x_max":1126,"o":"m 499 -35 q 313 15 390 -35 q 187 148 236 65 q 114 330 138 231 q 90 526 90 429 q 119 743 90 642 q 199 926 147 844 q 320 1065 250 1008 q 475 1149 390 1122 q 492 1140 485 1147 q 501 1126 500 1133 q 408 1057 453 1096 q 327 963 363 1018 q 269 828 292 908 l 281 825 q 394 985 326 921 q 540 1083 463 1050 q 692 1117 618 1117 q 856 1068 781 1117 q 977 919 931 1019 q 1024 665 1024 819 q 1005 468 1024 568 q 947 278 986 368 q 847 117 908 188 q 699 6 785 47 q 499 -35 613 -35 m 517 49 q 665 99 600 49 q 776 233 731 149 q 844 419 821 317 q 867 625 867 521 q 836 855 867 769 q 753 978 806 940 q 636 1015 701 1015 q 481 966 551 1015 q 360 835 411 917 q 281 656 308 754 q 253 458 253 557 q 268 301 253 375 q 315 170 283 226 q 397 81 347 114 q 517 49 447 49 m 788 1036 l 760 1089 q 900 1104 850 1089 q 969 1158 950 1119 q 989 1264 989 1196 q 1017 1270 1003 1268 q 1047 1272 1032 1272 q 1126 1247 1096 1272 q 1094 1123 1126 1169 q 987 1056 1061 1076 q 788 1036 913 1036 m 572 1256 q 651 1335 622 1292 q 679 1421 679 1379 q 656 1483 679 1458 q 597 1507 633 1507 q 540 1496 569 1507 q 483 1464 511 1485 q 461 1489 469 1475 q 453 1517 453 1503 q 535 1575 490 1554 q 625 1596 581 1596 q 713 1576 675 1596 q 772 1522 750 1557 q 793 1443 793 1488 q 744 1305 793 1368 q 608 1201 696 1242 l 572 1256 z "},"Ỡ":{"ha":1114,"x_min":90,"x_max":1126,"o":"m 499 -35 q 313 15 390 -35 q 187 148 236 65 q 114 330 138 231 q 90 526 90 429 q 119 743 90 642 q 199 926 147 844 q 320 1065 250 1008 q 475 1149 390 1122 q 492 1140 485 1147 q 501 1126 500 1133 q 408 1057 453 1096 q 327 963 363 1018 q 269 828 292 908 l 281 825 q 394 985 326 921 q 540 1083 463 1050 q 692 1117 618 1117 q 856 1068 781 1117 q 977 919 931 1019 q 1024 665 1024 819 q 1005 468 1024 568 q 947 278 986 368 q 847 117 908 188 q 699 6 785 47 q 499 -35 613 -35 m 517 49 q 665 99 600 49 q 776 233 731 149 q 844 419 821 317 q 867 625 867 521 q 836 855 867 769 q 753 978 806 940 q 636 1015 701 1015 q 481 966 551 1015 q 360 835 411 917 q 281 656 308 754 q 253 458 253 557 q 268 301 253 375 q 315 170 283 226 q 397 81 347 114 q 517 49 447 49 m 788 1036 l 760 1089 q 900 1104 850 1089 q 969 1158 950 1119 q 989 1264 989 1196 q 1017 1270 1003 1268 q 1047 1272 1032 1272 q 1126 1247 1096 1272 q 1094 1123 1126 1169 q 987 1056 1061 1076 q 788 1036 913 1036 m 454 1292 q 428 1298 440 1292 q 418 1315 417 1304 q 448 1401 428 1369 q 494 1444 468 1432 q 546 1457 519 1457 q 613 1447 581 1457 q 674 1427 644 1438 q 728 1417 703 1417 q 786 1431 763 1417 q 822 1464 810 1446 q 846 1458 836 1464 q 858 1440 856 1451 q 831 1355 851 1386 q 783 1311 810 1324 q 731 1299 757 1299 q 665 1309 697 1299 q 603 1329 632 1319 q 549 1339 575 1339 q 490 1324 514 1339 q 454 1292 467 1310 z "},"Ő":{"ha":1114,"x_min":90,"x_max":1024,"o":"m 499 -35 q 313 15 390 -35 q 187 148 236 65 q 114 330 138 231 q 90 526 90 429 q 119 743 90 642 q 199 926 147 844 q 320 1065 250 1008 q 475 1149 390 1122 q 492 1140 485 1147 q 501 1126 500 1133 q 408 1057 453 1096 q 327 963 363 1018 q 269 828 292 908 l 281 825 q 394 985 326 921 q 540 1083 463 1050 q 692 1117 618 1117 q 856 1068 781 1117 q 977 919 931 1019 q 1024 665 1024 819 q 1005 468 1024 568 q 947 278 986 368 q 847 117 908 188 q 699 6 785 47 q 499 -35 613 -35 m 517 49 q 665 99 600 49 q 776 233 731 149 q 844 419 821 317 q 867 625 867 521 q 836 855 867 769 q 753 978 806 940 q 636 1015 701 1015 q 481 966 551 1015 q 360 835 411 917 q 281 656 308 754 q 253 458 253 557 q 268 301 253 375 q 315 170 283 226 q 397 81 347 114 q 517 49 447 49 m 401 1250 q 455 1355 419 1299 q 535 1459 490 1411 q 622 1528 579 1507 q 647 1508 632 1522 q 674 1472 663 1494 q 688 1414 686 1449 q 592 1360 639 1396 q 508 1282 546 1324 q 444 1204 469 1240 q 417 1221 431 1207 q 401 1250 404 1235 m 656 1250 q 711 1358 675 1301 q 791 1460 747 1414 q 876 1528 835 1507 q 901 1508 886 1522 q 928 1472 915 1494 q 942 1414 940 1450 q 847 1361 893 1397 q 762 1283 800 1325 q 700 1204 724 1240 q 672 1222 685 1208 q 656 1250 658 1235 z "},"Ȏ":{"ha":1114,"x_min":90,"x_max":1024,"o":"m 499 -35 q 313 15 390 -35 q 187 148 236 65 q 114 330 138 231 q 90 526 90 429 q 119 743 90 642 q 199 926 147 844 q 320 1065 250 1008 q 475 1149 390 1122 q 492 1140 485 1147 q 501 1126 500 1133 q 408 1057 453 1096 q 327 963 363 1018 q 269 828 292 908 l 281 825 q 394 985 326 921 q 540 1083 463 1050 q 692 1117 618 1117 q 856 1068 781 1117 q 977 919 931 1019 q 1024 665 1024 819 q 1005 468 1024 568 q 947 278 986 368 q 847 117 908 188 q 699 6 785 47 q 499 -35 613 -35 m 517 49 q 665 99 600 49 q 776 233 731 149 q 844 419 821 317 q 867 625 867 521 q 836 855 867 769 q 753 978 806 940 q 636 1015 701 1015 q 481 966 551 1015 q 360 835 411 917 q 281 656 308 754 q 253 458 253 557 q 268 301 253 375 q 315 170 283 226 q 397 81 347 114 q 517 49 447 49 m 828 1279 q 808 1265 818 1271 q 786 1260 797 1260 q 756 1278 765 1260 q 725 1349 749 1322 q 664 1375 701 1375 q 603 1358 633 1375 q 551 1312 572 1342 q 526 1239 529 1282 q 490 1253 507 1239 q 462 1288 472 1267 q 451 1331 451 1310 q 495 1415 465 1382 q 565 1463 525 1447 q 650 1479 606 1479 q 735 1460 694 1479 q 802 1398 776 1442 q 828 1279 828 1354 z "},"Ō":{"ha":1114,"x_min":90,"x_max":1024,"o":"m 499 -35 q 313 15 390 -35 q 187 148 236 65 q 114 330 138 231 q 90 526 90 429 q 119 743 90 642 q 199 926 147 844 q 320 1065 250 1008 q 475 1149 390 1122 q 492 1140 485 1147 q 501 1126 500 1133 q 408 1057 453 1096 q 327 963 363 1018 q 269 828 292 908 l 281 825 q 394 985 326 921 q 540 1083 463 1050 q 692 1117 618 1117 q 856 1068 781 1117 q 977 919 931 1019 q 1024 665 1024 819 q 1005 468 1024 568 q 947 278 986 368 q 847 117 908 188 q 699 6 785 47 q 499 -35 613 -35 m 517 49 q 665 99 600 49 q 776 233 731 149 q 844 419 821 317 q 867 625 867 521 q 836 855 867 769 q 753 978 806 940 q 636 1015 701 1015 q 481 966 551 1015 q 360 835 411 917 q 281 656 308 754 q 253 458 253 557 q 268 301 253 375 q 315 170 283 226 q 397 81 347 114 q 517 49 447 49 m 521 1308 q 450 1336 465 1308 q 435 1417 435 1364 q 436 1429 435 1424 q 439 1442 438 1435 q 503 1432 472 1435 q 564 1429 533 1429 q 656 1438 611 1429 q 757 1446 701 1446 q 828 1418 813 1446 q 843 1338 843 1390 q 842 1326 843 1332 q 839 1313 842 1319 q 776 1322 806 1319 q 714 1325 746 1325 q 622 1317 667 1325 q 521 1308 578 1308 z "},"Ǫ":{"ha":1114,"x_min":90,"x_max":1024,"o":"m 499 -35 q 313 15 390 -35 q 187 148 236 65 q 114 330 138 231 q 90 526 90 429 q 119 743 90 642 q 199 926 147 844 q 320 1065 250 1008 q 475 1149 390 1122 q 492 1140 485 1147 q 501 1126 500 1133 q 408 1057 453 1096 q 327 963 363 1018 q 269 828 292 908 l 281 825 q 394 985 326 921 q 540 1083 463 1050 q 692 1117 618 1117 q 856 1068 781 1117 q 977 919 931 1019 q 1024 665 1024 819 q 1005 468 1024 568 q 947 278 986 368 q 847 117 908 188 q 699 6 785 47 q 499 -35 613 -35 m 517 49 q 665 99 600 49 q 776 233 731 149 q 844 419 821 317 q 867 625 867 521 q 836 855 867 769 q 753 978 806 940 q 636 1015 701 1015 q 481 966 551 1015 q 360 835 411 917 q 281 656 308 754 q 253 458 253 557 q 268 301 253 375 q 315 170 283 226 q 397 81 347 114 q 517 49 447 49 m 663 -278 q 703 -325 703 -292 q 603 -407 660 -378 q 485 -436 546 -436 q 367 -389 411 -436 q 324 -262 324 -342 q 385 -99 324 -172 q 569 28 447 -25 l 603 0 q 476 -116 518 -57 q 433 -236 433 -175 q 459 -312 433 -285 q 528 -340 485 -340 q 597 -324 561 -340 q 663 -278 633 -307 z "},"Ø":{"ha":1114,"x_min":90,"x_max":1024,"o":"m 499 -35 q 313 15 390 -35 q 187 148 236 65 q 114 330 138 231 q 90 526 90 429 q 119 743 90 642 q 199 926 147 844 q 320 1065 250 1008 q 475 1149 390 1122 q 492 1140 485 1147 q 501 1126 500 1133 q 408 1057 453 1096 q 327 963 363 1018 q 269 828 292 908 l 281 825 q 394 985 326 921 q 540 1083 463 1050 q 692 1117 618 1117 q 856 1068 781 1117 q 977 919 931 1019 q 1024 665 1024 819 q 1005 468 1024 568 q 947 278 986 368 q 847 117 908 188 q 699 6 785 47 q 499 -35 613 -35 m 517 49 q 665 99 600 49 q 776 233 731 149 q 844 419 821 317 q 867 625 867 521 q 836 855 867 769 q 753 978 806 940 q 636 1015 701 1015 q 481 966 551 1015 q 360 835 411 917 q 281 656 308 754 q 253 458 253 557 q 268 301 253 375 q 315 170 283 226 q 397 81 347 114 q 517 49 447 49 m 775 1318 q 785 1309 775 1318 q 809 1283 796 1300 q 833 1238 822 1265 q 843 1175 843 1211 q 821 1078 843 1146 q 761 915 799 1010 q 678 707 724 819 q 585 476 632 594 q 496 242 538 357 q 425 29 454 128 q 386 -140 396 -69 q 374 -137 386 -140 q 345 -128 363 -135 q 310 -106 328 -121 q 281 -67 293 -90 q 269 -7 269 -43 q 294 97 269 25 q 360 269 319 169 q 452 485 401 369 q 555 722 503 601 q 653 954 607 842 q 731 1161 699 1067 q 775 1318 764 1256 z "},"Ǿ":{"ha":1114,"x_min":90,"x_max":1024,"o":"m 499 -35 q 313 15 390 -35 q 187 148 236 65 q 114 330 138 231 q 90 526 90 429 q 119 743 90 642 q 199 926 147 844 q 320 1065 250 1008 q 475 1149 390 1122 q 492 1140 485 1147 q 501 1126 500 1133 q 408 1057 453 1096 q 327 963 363 1018 q 269 828 292 908 l 281 825 q 394 985 326 921 q 540 1083 463 1050 q 692 1117 618 1117 q 856 1068 781 1117 q 977 919 931 1019 q 1024 665 1024 819 q 1005 468 1024 568 q 947 278 986 368 q 847 117 908 188 q 699 6 785 47 q 499 -35 613 -35 m 517 49 q 665 99 600 49 q 776 233 731 149 q 844 419 821 317 q 867 625 867 521 q 836 855 867 769 q 753 978 806 940 q 636 1015 701 1015 q 481 966 551 1015 q 360 835 411 917 q 281 656 308 754 q 253 458 253 557 q 268 301 253 375 q 315 170 283 226 q 397 81 347 114 q 517 49 447 49 m 775 1318 q 785 1309 775 1318 q 809 1283 796 1300 q 833 1238 822 1265 q 843 1175 843 1211 q 821 1078 843 1146 q 761 915 799 1010 q 678 707 724 819 q 585 476 632 594 q 496 242 538 357 q 425 29 454 128 q 386 -140 396 -69 q 374 -137 386 -140 q 345 -128 363 -135 q 310 -106 328 -121 q 281 -67 293 -90 q 269 -7 269 -43 q 294 97 269 25 q 360 269 319 169 q 452 485 401 369 q 555 722 503 601 q 653 954 607 842 q 731 1161 699 1067 q 775 1318 764 1256 m 442 1250 q 506 1356 464 1299 q 602 1460 549 1413 q 707 1528 656 1507 q 732 1508 717 1522 q 760 1472 747 1494 q 774 1414 772 1450 q 660 1360 715 1396 q 560 1282 604 1324 q 486 1204 515 1240 q 457 1222 469 1208 q 442 1250 444 1235 z "},"Õ":{"ha":1114,"x_min":90,"x_max":1024,"o":"m 499 -35 q 313 15 390 -35 q 187 148 236 65 q 114 330 138 231 q 90 526 90 429 q 119 743 90 642 q 199 926 147 844 q 320 1065 250 1008 q 475 1149 390 1122 q 492 1140 485 1147 q 501 1126 500 1133 q 408 1057 453 1096 q 327 963 363 1018 q 269 828 292 908 l 281 825 q 394 985 326 921 q 540 1083 463 1050 q 692 1117 618 1117 q 856 1068 781 1117 q 977 919 931 1019 q 1024 665 1024 819 q 1005 468 1024 568 q 947 278 986 368 q 847 117 908 188 q 699 6 785 47 q 499 -35 613 -35 m 517 49 q 665 99 600 49 q 776 233 731 149 q 844 419 821 317 q 867 625 867 521 q 836 855 867 769 q 753 978 806 940 q 636 1015 701 1015 q 481 966 551 1015 q 360 835 411 917 q 281 656 308 754 q 253 458 253 557 q 268 301 253 375 q 315 170 283 226 q 397 81 347 114 q 517 49 447 49 m 454 1292 q 428 1298 440 1292 q 418 1315 417 1304 q 448 1401 428 1369 q 494 1444 468 1432 q 546 1457 519 1457 q 613 1447 581 1457 q 674 1427 644 1438 q 728 1417 703 1417 q 786 1431 763 1417 q 822 1464 810 1446 q 846 1458 836 1464 q 858 1440 856 1451 q 831 1355 851 1386 q 783 1311 810 1324 q 731 1299 757 1299 q 665 1309 697 1299 q 603 1329 632 1319 q 549 1339 575 1339 q 490 1324 514 1339 q 454 1292 467 1310 z "},"Ȭ":{"ha":1114,"x_min":90,"x_max":1024,"o":"m 499 -35 q 313 15 390 -35 q 187 148 236 65 q 114 330 138 231 q 90 526 90 429 q 119 743 90 642 q 199 926 147 844 q 320 1065 250 1008 q 475 1149 390 1122 q 492 1140 485 1147 q 501 1126 500 1133 q 408 1057 453 1096 q 327 963 363 1018 q 269 828 292 908 l 281 825 q 394 985 326 921 q 540 1083 463 1050 q 692 1117 618 1117 q 856 1068 781 1117 q 977 919 931 1019 q 1024 665 1024 819 q 1005 468 1024 568 q 947 278 986 368 q 847 117 908 188 q 699 6 785 47 q 499 -35 613 -35 m 517 49 q 665 99 600 49 q 776 233 731 149 q 844 419 821 317 q 867 625 867 521 q 836 855 867 769 q 753 978 806 940 q 636 1015 701 1015 q 481 966 551 1015 q 360 835 411 917 q 281 656 308 754 q 253 458 253 557 q 268 301 253 375 q 315 170 283 226 q 397 81 347 114 q 517 49 447 49 m 454 1292 q 428 1298 440 1292 q 418 1315 417 1304 q 448 1401 428 1369 q 494 1444 468 1432 q 546 1457 519 1457 q 613 1447 581 1457 q 674 1427 644 1438 q 728 1417 703 1417 q 786 1431 763 1417 q 822 1464 810 1446 q 846 1458 836 1464 q 858 1440 856 1451 q 831 1355 851 1386 q 783 1311 810 1324 q 731 1299 757 1299 q 665 1309 697 1299 q 603 1329 632 1319 q 549 1339 575 1339 q 490 1324 514 1339 q 454 1292 467 1310 m 521 1582 q 450 1610 465 1582 q 435 1690 435 1638 q 436 1703 435 1697 q 439 1715 438 1708 q 503 1706 472 1708 q 564 1703 533 1703 q 656 1711 611 1703 q 757 1719 701 1719 q 828 1692 813 1719 q 843 1611 843 1664 q 842 1599 843 1606 q 839 1586 842 1593 q 776 1596 806 1593 q 714 1599 746 1599 q 622 1590 667 1599 q 521 1582 578 1582 z "},"Œ":{"ha":1408,"x_min":90,"x_max":1394,"o":"m 496 -35 q 333 6 407 -35 q 204 123 258 47 q 120 301 150 199 q 90 526 90 404 q 138 806 90 679 q 272 1023 186 933 q 475 1149 358 1113 q 493 1141 486 1147 q 501 1125 500 1135 q 397 1047 442 1090 q 321 949 351 1003 q 271 829 290 896 l 281 825 q 387 978 324 914 q 530 1076 450 1042 q 697 1110 610 1110 q 874 1093 767 1110 q 1121 1076 982 1076 q 1262 1083 1193 1076 q 1394 1103 1331 1089 q 1303 983 1388 1026 q 1076 939 1219 939 q 1022 941 1050 939 q 961 949 993 943 q 944 787 957 883 q 918 582 932 690 q 991 580 964 581 q 1035 579 1018 579 q 1142 589 1099 579 q 1217 618 1186 599 q 1219 596 1218 606 q 1219 572 1219 586 q 1194 495 1219 519 q 1113 471 1169 471 q 1061 472 1092 471 q 999 473 1031 472 q 941 474 967 474 q 906 474 915 474 q 890 283 896 372 q 882 115 883 193 q 1063 121 974 115 q 1227 136 1153 126 q 1346 158 1301 146 q 1290 26 1336 68 q 1153 -15 1244 -15 q 1051 -8 1106 -15 q 946 0 997 0 q 814 -6 869 0 q 712 -17 758 -11 q 615 -29 665 -24 q 496 -35 564 -35 m 529 49 q 605 58 567 49 q 675 82 643 67 q 725 115 707 97 q 739 248 729 168 q 761 422 749 328 q 785 616 774 517 q 806 809 797 715 q 819 979 815 903 q 656 1015 753 1015 q 503 970 576 1015 q 374 847 431 925 q 285 668 318 768 q 253 458 253 568 q 326 158 253 267 q 529 49 400 49 z "},"P":{"ha":863,"x_min":135,"x_max":863,"o":"m 335 1029 q 458 1080 394 1065 q 575 1094 522 1094 q 736 1056 672 1094 q 831 954 800 1017 q 863 818 863 892 q 837 682 863 750 q 760 557 811 614 q 635 466 710 500 q 463 432 560 432 q 424 433 443 432 q 386 438 406 435 l 382 482 q 546 510 481 482 q 649 583 611 538 q 704 683 688 629 q 721 792 721 738 q 698 892 721 846 q 628 965 675 938 q 507 993 581 993 q 437 985 475 993 q 357 963 399 978 l 335 1029 m 135 96 q 144 224 135 146 q 168 396 154 301 q 195 593 182 490 q 218 799 208 696 q 228 994 228 901 q 223 1087 228 1047 q 208 1147 218 1126 q 285 1118 250 1143 q 343 1051 321 1093 q 365 949 365 1008 q 353 803 365 892 q 326 603 342 714 q 298 369 310 493 q 286 115 286 244 q 288 49 286 83 q 294 -21 289 15 q 274 -23 282 -22 q 258 -24 265 -24 q 167 4 199 -24 q 135 96 135 32 z "},"Þ":{"ha":863,"x_min":135,"x_max":850,"o":"m 322 828 q 446 878 382 864 q 563 893 510 893 q 724 854 660 893 q 819 753 788 815 q 850 617 850 690 q 824 481 850 549 q 748 356 799 413 q 622 265 697 299 q 450 231 547 231 q 412 232 431 231 q 374 236 393 233 l 369 281 q 533 308 468 281 q 637 382 599 336 q 692 482 675 428 q 708 590 708 536 q 685 690 708 644 q 615 764 663 736 q 494 792 568 792 q 424 784 463 792 q 344 761 386 776 l 322 828 m 135 96 q 144 224 135 146 q 168 396 154 301 q 195 593 182 490 q 218 799 208 696 q 228 994 228 901 q 223 1087 228 1047 q 208 1147 218 1126 q 285 1118 250 1143 q 343 1051 321 1093 q 365 949 365 1008 q 353 803 365 892 q 326 603 342 714 q 298 369 310 493 q 286 115 286 244 q 288 49 286 83 q 294 -21 289 15 q 274 -23 282 -22 q 258 -24 265 -24 q 167 4 199 -24 q 135 96 135 32 z "},"Q":{"ha":1093,"x_min":108,"x_max":1075,"o":"m 260 -64 q 590 49 451 -42 q 805 285 729 139 q 881 621 881 432 q 849 831 881 742 q 758 968 817 919 q 619 1017 700 1017 q 476 974 543 1017 q 360 854 410 931 q 281 677 310 778 q 253 461 253 576 q 291 265 253 331 q 403 199 329 199 q 494 240 461 199 q 526 353 526 281 q 507 455 526 407 q 457 524 488 503 q 494 535 474 531 q 533 540 515 540 q 638 495 599 540 q 678 376 678 450 q 642 241 678 301 q 547 145 607 181 q 411 110 488 110 q 256 156 322 110 q 151 287 189 203 q 114 482 114 371 q 154 728 114 614 q 266 928 194 842 q 433 1063 338 1014 q 636 1111 528 1111 q 922 988 819 1111 q 1024 642 1024 864 q 970 350 1024 483 q 815 115 917 217 q 570 -49 714 14 q 246 -133 426 -112 l 260 -64 m 908 -433 q 811 -409 869 -433 q 681 -348 753 -385 q 526 -271 608 -311 q 357 -200 444 -231 q 220 -159 279 -172 q 108 -144 161 -146 q 167 -89 131 -108 q 260 -64 204 -69 l 375 -93 q 544 -156 458 -124 q 717 -218 629 -189 q 894 -267 804 -247 q 1075 -292 983 -287 q 1003 -394 1049 -356 q 908 -433 957 -433 z "},"R":{"ha":938,"x_min":135,"x_max":914,"o":"m 597 496 q 688 251 638 354 q 795 75 738 149 q 914 -53 853 1 q 879 -63 899 -60 q 840 -67 860 -67 q 742 -35 788 -67 q 656 49 696 -4 q 581 170 615 103 q 519 312 547 238 q 467 458 490 386 l 597 496 m 335 1029 q 458 1080 394 1065 q 575 1094 522 1094 q 736 1056 672 1094 q 831 954 800 1017 q 863 818 863 892 q 837 682 863 750 q 760 557 811 614 q 635 466 710 500 q 463 432 560 432 q 424 433 443 432 q 386 438 406 435 l 382 482 q 546 510 481 482 q 649 583 611 538 q 704 683 688 629 q 721 792 721 738 q 698 892 721 846 q 628 965 675 938 q 507 993 581 993 q 437 985 475 993 q 357 963 399 978 l 335 1029 m 135 96 q 144 224 135 146 q 168 396 154 301 q 195 593 182 490 q 218 799 208 696 q 228 994 228 901 q 208 1147 228 1104 q 285 1118 250 1143 q 343 1051 321 1093 q 365 949 365 1008 q 353 803 365 892 q 326 603 342 714 q 298 369 310 493 q 286 115 286 244 q 288 49 286 83 q 294 -21 289 15 q 274 -23 282 -22 q 258 -24 265 -24 q 167 4 199 -24 q 135 96 135 32 z "},"Ŕ":{"ha":938,"x_min":135,"x_max":914,"o":"m 597 496 q 688 251 638 354 q 795 75 738 149 q 914 -53 853 1 q 879 -63 899 -60 q 840 -67 860 -67 q 742 -35 788 -67 q 656 49 696 -4 q 581 170 615 103 q 519 312 547 238 q 467 458 490 386 l 597 496 m 335 1029 q 458 1080 394 1065 q 575 1094 522 1094 q 736 1056 672 1094 q 831 954 800 1017 q 863 818 863 892 q 837 682 863 750 q 760 557 811 614 q 635 466 710 500 q 463 432 560 432 q 424 433 443 432 q 386 438 406 435 l 382 482 q 546 510 481 482 q 649 583 611 538 q 704 683 688 629 q 721 792 721 738 q 698 892 721 846 q 628 965 675 938 q 507 993 581 993 q 437 985 475 993 q 357 963 399 978 l 335 1029 m 135 96 q 144 224 135 146 q 168 396 154 301 q 195 593 182 490 q 218 799 208 696 q 228 994 228 901 q 208 1147 228 1104 q 285 1118 250 1143 q 343 1051 321 1093 q 365 949 365 1008 q 353 803 365 892 q 326 603 342 714 q 298 369 310 493 q 286 115 286 244 q 288 49 286 83 q 294 -21 289 15 q 274 -23 282 -22 q 258 -24 265 -24 q 167 4 199 -24 q 135 96 135 32 m 386 1250 q 451 1356 408 1299 q 547 1460 493 1413 q 651 1528 600 1507 q 676 1508 661 1522 q 704 1472 692 1494 q 718 1414 717 1450 q 604 1360 660 1396 q 504 1282 549 1324 q 431 1204 460 1240 q 401 1222 414 1208 q 386 1250 389 1235 z "},"Ř":{"ha":938,"x_min":135,"x_max":914,"o":"m 597 496 q 688 251 638 354 q 795 75 738 149 q 914 -53 853 1 q 879 -63 899 -60 q 840 -67 860 -67 q 742 -35 788 -67 q 656 49 696 -4 q 581 170 615 103 q 519 312 547 238 q 467 458 490 386 l 597 496 m 335 1029 q 458 1080 394 1065 q 575 1094 522 1094 q 736 1056 672 1094 q 831 954 800 1017 q 863 818 863 892 q 837 682 863 750 q 760 557 811 614 q 635 466 710 500 q 463 432 560 432 q 424 433 443 432 q 386 438 406 435 l 382 482 q 546 510 481 482 q 649 583 611 538 q 704 683 688 629 q 721 792 721 738 q 698 892 721 846 q 628 965 675 938 q 507 993 581 993 q 437 985 475 993 q 357 963 399 978 l 335 1029 m 135 96 q 144 224 135 146 q 168 396 154 301 q 195 593 182 490 q 218 799 208 696 q 228 994 228 901 q 208 1147 228 1104 q 285 1118 250 1143 q 343 1051 321 1093 q 365 949 365 1008 q 353 803 365 892 q 326 603 342 714 q 298 369 310 493 q 286 115 286 244 q 288 49 286 83 q 294 -21 289 15 q 274 -23 282 -22 q 258 -24 265 -24 q 167 4 199 -24 q 135 96 135 32 m 714 1528 q 738 1509 724 1522 q 765 1473 753 1496 q 779 1414 778 1450 q 637 1310 699 1363 q 531 1204 575 1257 q 486 1226 501 1210 q 460 1269 471 1243 q 436 1331 450 1296 q 397 1406 422 1365 q 326 1490 372 1446 q 356 1501 340 1497 q 399 1506 372 1506 q 466 1485 440 1506 q 509 1408 492 1464 q 542 1250 526 1353 l 513 1296 q 560 1372 535 1336 q 623 1446 586 1408 q 714 1528 660 1483 z "},"Ŗ":{"ha":938,"x_min":135,"x_max":914,"o":"m 597 496 q 688 251 638 354 q 795 75 738 149 q 914 -53 853 1 q 879 -63 899 -60 q 840 -67 860 -67 q 742 -35 788 -67 q 656 49 696 -4 q 581 170 615 103 q 519 312 547 238 q 467 458 490 386 l 597 496 m 335 1029 q 458 1080 394 1065 q 575 1094 522 1094 q 736 1056 672 1094 q 831 954 800 1017 q 863 818 863 892 q 837 682 863 750 q 760 557 811 614 q 635 466 710 500 q 463 432 560 432 q 424 433 443 432 q 386 438 406 435 l 382 482 q 546 510 481 482 q 649 583 611 538 q 704 683 688 629 q 721 792 721 738 q 698 892 721 846 q 628 965 675 938 q 507 993 581 993 q 437 985 475 993 q 357 963 399 978 l 335 1029 m 135 96 q 144 224 135 146 q 168 396 154 301 q 195 593 182 490 q 218 799 208 696 q 228 994 228 901 q 208 1147 228 1104 q 285 1118 250 1143 q 343 1051 321 1093 q 365 949 365 1008 q 353 803 365 892 q 326 603 342 714 q 298 369 310 493 q 286 115 286 244 q 288 49 286 83 q 294 -21 289 15 q 274 -23 282 -22 q 258 -24 265 -24 q 167 4 199 -24 q 135 96 135 32 m 385 -125 q 423 -115 401 -119 q 464 -111 444 -111 q 501 -117 483 -111 q 529 -140 518 -124 q 540 -186 540 -157 q 491 -326 540 -258 q 343 -447 442 -394 l 314 -411 q 380 -319 357 -369 q 403 -215 403 -268 q 398 -170 403 -193 q 385 -125 393 -147 z "},"Ȑ":{"ha":938,"x_min":135,"x_max":914,"o":"m 597 496 q 688 251 638 354 q 795 75 738 149 q 914 -53 853 1 q 879 -63 899 -60 q 840 -67 860 -67 q 742 -35 788 -67 q 656 49 696 -4 q 581 170 615 103 q 519 312 547 238 q 467 458 490 386 l 597 496 m 335 1029 q 458 1080 394 1065 q 575 1094 522 1094 q 736 1056 672 1094 q 831 954 800 1017 q 863 818 863 892 q 837 682 863 750 q 760 557 811 614 q 635 466 710 500 q 463 432 560 432 q 424 433 443 432 q 386 438 406 435 l 382 482 q 546 510 481 482 q 649 583 611 538 q 704 683 688 629 q 721 792 721 738 q 698 892 721 846 q 628 965 675 938 q 507 993 581 993 q 437 985 475 993 q 357 963 399 978 l 335 1029 m 135 96 q 144 224 135 146 q 168 396 154 301 q 195 593 182 490 q 218 799 208 696 q 228 994 228 901 q 208 1147 228 1104 q 285 1118 250 1143 q 343 1051 321 1093 q 365 949 365 1008 q 353 803 365 892 q 326 603 342 714 q 298 369 310 493 q 286 115 286 244 q 288 49 286 83 q 294 -21 289 15 q 274 -23 282 -22 q 258 -24 265 -24 q 167 4 199 -24 q 135 96 135 32 m 822 1250 q 808 1221 821 1235 q 779 1204 794 1207 q 717 1282 756 1240 q 633 1360 679 1324 q 536 1414 586 1396 q 550 1472 538 1449 q 577 1508 563 1494 q 601 1528 592 1522 q 690 1459 646 1507 q 769 1355 733 1411 q 822 1250 804 1299 m 568 1250 q 553 1222 567 1235 q 524 1204 539 1208 q 462 1283 500 1240 q 378 1361 424 1325 q 282 1414 332 1397 q 296 1473 283 1450 q 324 1509 308 1496 q 347 1528 339 1522 q 433 1460 390 1507 q 513 1358 476 1414 q 568 1250 549 1301 z "},"Ȓ":{"ha":938,"x_min":135,"x_max":914,"o":"m 597 496 q 688 251 638 354 q 795 75 738 149 q 914 -53 853 1 q 879 -63 899 -60 q 840 -67 860 -67 q 742 -35 788 -67 q 656 49 696 -4 q 581 170 615 103 q 519 312 547 238 q 467 458 490 386 l 597 496 m 335 1029 q 458 1080 394 1065 q 575 1094 522 1094 q 736 1056 672 1094 q 831 954 800 1017 q 863 818 863 892 q 837 682 863 750 q 760 557 811 614 q 635 466 710 500 q 463 432 560 432 q 424 433 443 432 q 386 438 406 435 l 382 482 q 546 510 481 482 q 649 583 611 538 q 704 683 688 629 q 721 792 721 738 q 698 892 721 846 q 628 965 675 938 q 507 993 581 993 q 437 985 475 993 q 357 963 399 978 l 335 1029 m 135 96 q 144 224 135 146 q 168 396 154 301 q 195 593 182 490 q 218 799 208 696 q 228 994 228 901 q 208 1147 228 1104 q 285 1118 250 1143 q 343 1051 321 1093 q 365 949 365 1008 q 353 803 365 892 q 326 603 342 714 q 298 369 310 493 q 286 115 286 244 q 288 49 286 83 q 294 -21 289 15 q 274 -23 282 -22 q 258 -24 265 -24 q 167 4 199 -24 q 135 96 135 32 m 742 1279 q 722 1265 732 1271 q 700 1260 711 1260 q 669 1278 679 1260 q 639 1349 663 1322 q 578 1375 615 1375 q 517 1358 547 1375 q 465 1312 486 1342 q 440 1239 443 1282 q 403 1253 421 1239 q 376 1288 386 1267 q 365 1331 365 1310 q 409 1415 379 1382 q 479 1463 439 1447 q 564 1479 519 1479 q 649 1460 608 1479 q 716 1398 690 1442 q 742 1279 742 1354 z "},"S":{"ha":874,"x_min":60,"x_max":785,"o":"m 283 876 q 317 760 283 811 q 406 663 351 708 q 521 575 460 618 q 636 485 582 532 q 724 383 690 439 q 758 256 758 326 q 711 106 758 171 q 581 3 664 40 q 392 -35 499 -35 q 219 -3 294 -35 q 102 86 144 29 q 60 217 60 143 q 80 303 60 265 q 136 361 100 340 q 219 382 172 382 q 240 381 231 382 q 257 376 249 379 q 214 240 214 313 q 268 108 214 158 q 411 57 322 57 q 553 104 497 57 q 608 225 608 151 q 574 331 608 283 q 488 422 540 379 q 375 507 435 464 q 263 599 315 550 q 176 710 210 649 q 142 849 142 771 q 183 996 142 933 q 301 1093 225 1058 q 476 1128 376 1128 q 636 1097 567 1128 q 745 1013 706 1067 q 785 890 785 960 q 765 806 785 843 q 708 747 744 768 q 626 725 672 725 q 601 726 613 725 q 578 731 589 728 q 628 807 610 764 q 646 893 646 850 q 597 1004 646 963 q 469 1046 549 1046 q 335 999 386 1046 q 283 876 283 953 z "},"Ś":{"ha":874,"x_min":60,"x_max":785,"o":"m 283 876 q 317 760 283 811 q 406 663 351 708 q 521 575 460 618 q 636 485 582 532 q 724 383 690 439 q 758 256 758 326 q 711 106 758 171 q 581 3 664 40 q 392 -35 499 -35 q 219 -3 294 -35 q 102 86 144 29 q 60 217 60 143 q 80 303 60 265 q 136 361 100 340 q 219 382 172 382 q 240 381 231 382 q 257 376 249 379 q 214 240 214 313 q 268 108 214 158 q 411 57 322 57 q 553 104 497 57 q 608 225 608 151 q 574 331 608 283 q 488 422 540 379 q 375 507 435 464 q 263 599 315 550 q 176 710 210 649 q 142 849 142 771 q 183 996 142 933 q 301 1093 225 1058 q 476 1128 376 1128 q 636 1097 567 1128 q 745 1013 706 1067 q 785 890 785 960 q 765 806 785 843 q 708 747 744 768 q 626 725 672 725 q 601 726 613 725 q 578 731 589 728 q 628 807 610 764 q 646 893 646 850 q 597 1004 646 963 q 469 1046 549 1046 q 335 999 386 1046 q 283 876 283 953 m 326 1250 q 391 1356 349 1299 q 487 1460 433 1413 q 592 1528 540 1507 q 617 1508 601 1522 q 644 1472 632 1494 q 658 1414 657 1450 q 544 1360 600 1396 q 444 1282 489 1324 q 371 1204 400 1240 q 342 1222 354 1208 q 326 1250 329 1235 z "},"Š":{"ha":874,"x_min":60,"x_max":785,"o":"m 283 876 q 317 760 283 811 q 406 663 351 708 q 521 575 460 618 q 636 485 582 532 q 724 383 690 439 q 758 256 758 326 q 711 106 758 171 q 581 3 664 40 q 392 -35 499 -35 q 219 -3 294 -35 q 102 86 144 29 q 60 217 60 143 q 80 303 60 265 q 136 361 100 340 q 219 382 172 382 q 240 381 231 382 q 257 376 249 379 q 214 240 214 313 q 268 108 214 158 q 411 57 322 57 q 553 104 497 57 q 608 225 608 151 q 574 331 608 283 q 488 422 540 379 q 375 507 435 464 q 263 599 315 550 q 176 710 210 649 q 142 849 142 771 q 183 996 142 933 q 301 1093 225 1058 q 476 1128 376 1128 q 636 1097 567 1128 q 745 1013 706 1067 q 785 890 785 960 q 765 806 785 843 q 708 747 744 768 q 626 725 672 725 q 601 726 613 725 q 578 731 589 728 q 628 807 610 764 q 646 893 646 850 q 597 1004 646 963 q 469 1046 549 1046 q 335 999 386 1046 q 283 876 283 953 m 654 1528 q 678 1509 664 1522 q 706 1473 693 1496 q 719 1414 718 1450 q 577 1310 639 1363 q 471 1204 515 1257 q 426 1226 442 1210 q 401 1269 411 1243 q 376 1331 390 1296 q 338 1406 363 1365 q 267 1490 313 1446 q 297 1501 281 1497 q 339 1506 313 1506 q 406 1485 381 1506 q 449 1408 432 1464 q 482 1250 467 1353 l 453 1296 q 501 1372 475 1336 q 563 1446 526 1408 q 654 1528 600 1483 z "},"Ş":{"ha":874,"x_min":60,"x_max":785,"o":"m 283 876 q 317 760 283 811 q 406 663 351 708 q 521 575 460 618 q 636 485 582 532 q 724 383 690 439 q 758 256 758 326 q 711 106 758 171 q 581 3 664 40 q 392 -35 499 -35 q 219 -3 294 -35 q 102 86 144 29 q 60 217 60 143 q 80 303 60 265 q 136 361 100 340 q 219 382 172 382 q 240 381 231 382 q 257 376 249 379 q 214 240 214 313 q 268 108 214 158 q 411 57 322 57 q 553 104 497 57 q 608 225 608 151 q 574 331 608 283 q 488 422 540 379 q 375 507 435 464 q 263 599 315 550 q 176 710 210 649 q 142 849 142 771 q 183 996 142 933 q 301 1093 225 1058 q 476 1128 376 1128 q 636 1097 567 1128 q 745 1013 706 1067 q 785 890 785 960 q 765 806 785 843 q 708 747 744 768 q 626 725 672 725 q 601 726 613 725 q 578 731 589 728 q 628 807 610 764 q 646 893 646 850 q 597 1004 646 963 q 469 1046 549 1046 q 335 999 386 1046 q 283 876 283 953 m 336 -56 q 462 -101 418 -61 q 506 -211 506 -142 q 457 -349 506 -287 q 328 -435 408 -411 q 288 -398 303 -424 q 274 -337 274 -372 q 368 -288 333 -325 q 403 -200 403 -251 q 328 -93 403 -128 q 329 -74 328 -82 q 336 -56 331 -65 z "},"Ŝ":{"ha":874,"x_min":60,"x_max":785,"o":"m 283 876 q 317 760 283 811 q 406 663 351 708 q 521 575 460 618 q 636 485 582 532 q 724 383 690 439 q 758 256 758 326 q 711 106 758 171 q 581 3 664 40 q 392 -35 499 -35 q 219 -3 294 -35 q 102 86 144 29 q 60 217 60 143 q 80 303 60 265 q 136 361 100 340 q 219 382 172 382 q 240 381 231 382 q 257 376 249 379 q 214 240 214 313 q 268 108 214 158 q 411 57 322 57 q 553 104 497 57 q 608 225 608 151 q 574 331 608 283 q 488 422 540 379 q 375 507 435 464 q 263 599 315 550 q 176 710 210 649 q 142 849 142 771 q 183 996 142 933 q 301 1093 225 1058 q 476 1128 376 1128 q 636 1097 567 1128 q 745 1013 706 1067 q 785 890 785 960 q 765 806 785 843 q 708 747 744 768 q 626 725 672 725 q 601 726 613 725 q 578 731 589 728 q 628 807 610 764 q 646 893 646 850 q 597 1004 646 963 q 469 1046 549 1046 q 335 999 386 1046 q 283 876 283 953 m 326 1204 q 303 1224 318 1211 q 275 1260 288 1238 q 261 1318 263 1283 q 404 1423 342 1369 q 510 1528 467 1476 q 554 1506 539 1522 q 580 1463 569 1489 q 604 1401 590 1436 q 643 1326 618 1367 q 714 1242 668 1286 q 684 1231 700 1236 q 642 1226 668 1226 q 574 1247 600 1226 q 532 1324 549 1268 q 499 1482 515 1379 l 528 1436 q 480 1360 506 1396 q 418 1286 454 1324 q 326 1204 382 1249 z "},"Ș":{"ha":874,"x_min":60,"x_max":785,"o":"m 283 876 q 317 760 283 811 q 406 663 351 708 q 521 575 460 618 q 636 485 582 532 q 724 383 690 439 q 758 256 758 326 q 711 106 758 171 q 581 3 664 40 q 392 -35 499 -35 q 219 -3 294 -35 q 102 86 144 29 q 60 217 60 143 q 80 303 60 265 q 136 361 100 340 q 219 382 172 382 q 240 381 231 382 q 257 376 249 379 q 214 240 214 313 q 268 108 214 158 q 411 57 322 57 q 553 104 497 57 q 608 225 608 151 q 574 331 608 283 q 488 422 540 379 q 375 507 435 464 q 263 599 315 550 q 176 710 210 649 q 142 849 142 771 q 183 996 142 933 q 301 1093 225 1058 q 476 1128 376 1128 q 636 1097 567 1128 q 745 1013 706 1067 q 785 890 785 960 q 765 806 785 843 q 708 747 744 768 q 626 725 672 725 q 601 726 613 725 q 578 731 589 728 q 628 807 610 764 q 646 893 646 850 q 597 1004 646 963 q 469 1046 549 1046 q 335 999 386 1046 q 283 876 283 953 m 311 -125 q 349 -115 328 -119 q 390 -111 371 -111 q 427 -117 410 -111 q 456 -140 444 -124 q 467 -186 467 -157 q 417 -326 467 -258 q 269 -447 368 -394 l 240 -411 q 306 -319 283 -369 q 329 -215 329 -268 q 324 -170 329 -193 q 311 -125 319 -147 z "}}}
